<svg height="512" viewBox="0 0 64 64" width="512" xmlns="http://www.w3.org/2000/svg"><g id="flat"><circle cx="32" cy="27" fill="#feb6c1" r="24"/><path d="m35 48a24 24 0 0 1 -18.4-39.4 24 24 0 1 0 33.8 33.8 23.9 23.9 0 0 1 -15.4 5.6z" fill="#ff9caf"/><path d="m49 24s-7.611 8-17 8-17-8-17-8 7.611-8 17-8 17 8 17 8z" fill="#e6afe6"/><circle cx="32" cy="24" fill="#feffff" r="8"/><ellipse cx="32" cy="24" fill="#4e407a" rx="2" ry="4"/><path d="m51.828 47h-39.656l-3.172 10a68.129 68.129 0 0 0 46 0z" fill="#645191"/><path d="m15.538 47h-3.366l-3.172 10a68.129 68.129 0 0 0 46 0l-.217-.683a67.317 67.317 0 0 1 -33.12 1.127 8.174 8.174 0 0 1 -6.125-10.444z" fill="#4e407a"/><path d="m51.377 47.3a111.073 111.073 0 0 1 -38.754 0 1.974 1.974 0 0 1 -1.623-1.948 1.971 1.971 0 0 1 2.315-1.935 111.049 111.049 0 0 0 37.37 0 1.971 1.971 0 0 1 2.315 1.935 1.974 1.974 0 0 1 -1.623 1.948z" fill="#4e407a"/><path d="m48.98 23.99a40.5 40.5 0 0 0 -16.98-3.99 40.5 40.5 0 0 0 -16.98 3.99c.46-.48 7.88-7.99 16.98-7.99s16.52 7.51 16.98 7.99z" fill="#e69ae8"/><path d="m57.5 10.5 3.5-1.5-3.5-1.5-1.5-4.5-1.5 4.5-3.5 1.5 3.5 1.5 1.5 4.5z" fill="#fdca79"/><path d="m9.5 32.5 3.5-1.5-3.5-1.5-1.5-4.5-1.5 4.5-3.5 1.5 3.5 1.5 1.5 4.5z" fill="#fdca79"/><g fill="#4e407a"><path d="m32 13.078a1.013 1.013 0 0 0 1.013-1.013v-4.052a1.013 1.013 0 0 0 -2.026 0v4.052a1.013 1.013 0 0 0 1.013 1.013z"/><path d="m23.018 14.472a1.013 1.013 0 1 0 1.755-1.013l-2.026-3.509a1.013 1.013 0 1 0 -1.755 1.013z"/><path d="m39.6 14.843a1.015 1.015 0 0 0 1.384-.371l2.026-3.509a1.013 1.013 0 1 0 -1.757-1.013l-2.026 3.509a1.013 1.013 0 0 0 .373 1.384z"/><path d="m32 35a1 1 0 0 0 -1 1v4a1 1 0 0 0 2 0v-4a1 1 0 0 0 -1-1z"/><path d="m24.4 33.6a1.014 1.014 0 0 0 -1.384.371l-2.024 3.509a1.013 1.013 0 1 0 1.755 1.013l2.026-3.509a1.013 1.013 0 0 0 -.373-1.384z"/><path d="m40.866 33.625a1 1 0 1 0 -1.732 1l2 3.463a1 1 0 1 0 1.732-1z"/></g></g></svg>