<?xml version="1.0" encoding="iso-8859-1"?>
<!-- Generator: Adobe Illustrator 19.0.0, SVG Export Plug-In . SVG Version: 6.00 Build 0)  -->
<svg version="1.1" id="Capa_1" xmlns="http://www.w3.org/2000/svg" xmlns:xlink="http://www.w3.org/1999/xlink" x="0px" y="0px"
	 viewBox="0 0 512.001 512.001" style="enable-background:new 0 0 512.001 512.001;" xml:space="preserve">
<path style="fill:#AD7B64;" d="M407.21,122.644l-17.853-17.853c-4.19-4.19-10.984-4.191-15.175,0l-23.141,23.141l33.028,33.028
	l23.141-23.141C411.401,133.628,411.4,126.834,407.21,122.644z"/>
<path style="fill:#9E6B57;" d="M389.679,118.047c2.649-2.649,6.272-3.713,9.715-3.219l-10.036-10.036
	c-4.19-4.19-10.984-4.191-15.175,0l-23.141,23.141l14.376,14.376L389.679,118.047z"/>
<path style="fill:#AD7B64;" d="M250.768,228.205L3.143,475.83c-4.19,4.19-4.19,10.984,0,15.175l17.853,17.853
	c4.191,4.191,10.985,4.19,15.175,0l247.625-247.625L250.768,228.205z"/>
<path style="fill:#9E6B57;" d="M13.515,494.649l251.848-251.848l-14.595-14.595L3.143,475.83c-4.19,4.19-4.19,10.985,0,15.175
	l7.766,7.766C11.45,497.268,12.31,495.853,13.515,494.649z"/>
<path style="fill:#D8DCE5;" d="M333.021,124.231c-23.905-35.908-34.697-77.964-32.36-119.425c0.159-2.818-2.268-5.09-5.073-4.777
	C204.73,10.163,132.993,81.953,122.866,172.751c-0.313,2.805,1.959,5.232,4.777,5.073c41.461-2.337,83.517,8.455,119.425,32.36
	L333.021,124.231z"/>
<path style="fill:#C3C8D1;" d="M261.015,196.238c-41.232-29.523-87.739-45.532-132.241-47.311c-0.572-0.023-1.133-0.144-1.666-0.346
	c-1.919,7.977-3.335,16.051-4.241,24.171c-0.313,2.805,1.959,5.232,4.777,5.073c41.461-2.337,83.517,8.455,119.425,32.36
	l85.954-85.953l0,0L261.015,196.238z"/>
<path style="fill:#D8DCE5;" d="M511.971,216.413c0.313-2.805-1.959-5.232-4.777-5.073c-41.461,2.336-83.517-8.455-119.425-32.361
	l-85.953,85.953c23.905,35.908,34.697,77.964,32.361,119.425c-0.159,2.818,2.268,5.089,5.073,4.777
	C430.109,379.001,501.844,307.211,511.971,216.413z"/>
<g>
	<path style="fill:#C3C8D1;" d="M358.677,383.644c-0.247-45.12-14.685-91.751-42.836-132.736l-14.025,14.025
		c23.905,35.908,34.697,77.964,32.36,119.425c-0.159,2.818,2.268,5.089,5.073,4.777c6.686-0.746,13.34-1.836,19.935-3.268
		C358.864,385.178,358.682,384.424,358.677,383.644z"/>
	<path style="fill:#C3C8D1;" d="M162.466,178.951c29.709,3.611,58.749,14.023,84.601,31.234l85.953-85.953
		C315.809,98.38,305.397,69.34,301.786,39.63C228.186,47.011,169.855,105.269,162.466,178.951z"/>
</g>
<g>
	<path style="fill:#B4B9C1;" d="M261.015,196.238l72.006-72.007L261.015,196.238z"/>
	<path style="fill:#B4B9C1;" d="M162.466,178.951c32.779,4.097,62.785,16.236,84.601,31.234l13.947-13.947
		c-29.502-21.125-61.705-35.327-93.943-42.351C164.851,162.125,163.313,170.51,162.466,178.951z"/>
</g>
<path style="fill:#C3C8D1;" d="M472.372,210.214c-29.71-3.611-58.75-14.023-84.602-31.234l-85.953,85.953
	c17.211,25.853,27.623,54.892,31.234,84.602C406.651,342.154,464.982,283.896,472.372,210.214z"/>
<path style="fill:#B4B9C1;" d="M315.841,250.908c-7.23,7.23-7.175,7.175-14.025,14.025c17.319,26.016,27.668,55.238,31.234,84.602
	c7.437-0.746,14.829-2.028,22.117-3.841C349.307,312.952,336.141,280.462,315.841,250.908z"/>
<rect x="119.641" y="279.802" transform="matrix(-0.7071 -0.7071 0.7071 -0.7071 -16.8236 731.0532)" style="fill:#9E6B57;" width="46.708" height="178.418"/>
<path style="fill:#875748;" d="M189.555,289.418c-5.396,5.396-120.552,120.552-126.16,126.16l14.595,14.595l126.16-126.16
	L189.555,289.418z"/>
<path style="fill:#707487;" d="M389.105,165.313l-42.597-42.597c-3.632-3.632-9.484-3.67-13.069-0.085l-87.808,87.808
	c-3.586,3.586-3.547,9.437,0.085,13.069l42.597,42.597c3.632,3.632,9.483,3.671,13.069,0.085l87.808-87.808
	C392.775,174.797,392.738,168.946,389.105,165.313z"/>
<path style="fill:#5E6377;" d="M258.785,226.052l90.66-90.66c1.92-1.92,4.47-2.825,7.003-2.736l-9.94-9.94
	c-3.632-3.632-9.484-3.67-13.069-0.085l-87.808,87.808c-3.585,3.585-3.547,9.437,0.085,13.069l10.401,10.401
	C255.766,231.104,256.648,228.189,258.785,226.052z"/>
<g>
</g>
<g>
</g>
<g>
</g>
<g>
</g>
<g>
</g>
<g>
</g>
<g>
</g>
<g>
</g>
<g>
</g>
<g>
</g>
<g>
</g>
<g>
</g>
<g>
</g>
<g>
</g>
<g>
</g>
</svg>
