<svg id="Capa_1" enable-background="new 0 0 512.31 512.31" height="512" viewBox="0 0 512.31 512.31" width="512" xmlns="http://www.w3.org/2000/svg"><g><path d="m258.023 282.989-179.895 181.786-27.658-2.935-22.63-22.63 204.87-204.87 22.63 22.63z" fill="#9c5d2e"/><path d="m19.355 354.718h289.73v32.004h-289.73z" fill="#6e3e22" transform="matrix(.707 -.707 .707 .707 -214.04 224.702)"/><path d="m309.196 224.266-68.406 47.254-33.94-33.94 57.83-57.83z" fill="#ffad49"/><path d="m245.783 235.576h81.784v47.998h-81.784z" fill="#ed7756" transform="matrix(.707 -.707 .707 .707 -99.582 278.737)"/><path d="m415.589 185.724-37.335 39.911-92.214.635-67.88-67.88 56.57-79.2 79.19-56.56 67.88 67.88z" fill="#63436b"/><path d="m489.68 158.39-56.56 79.19-79.2 56.57-67.88-67.88 135.76-135.76z" fill="#42264a"/><path d="m331.29 0h-45.246l-90.513 90.514v45.246l22.63 22.63 135.759-135.76z" fill="#6f6a9e"/><path d="m489.68 158.39-135.76 135.759 22.631 22.631h45.245l90.514-90.514v-45.246z" fill="#63436b"/><path d="m64.54 447.77-12.134 43.592-52.406 20.948v-74.71l41.91-12.46z" fill="#ffad49"/><path d="m87.17 470.4-12.46 41.91h-74.71l64.54-64.54z" fill="#ed7756"/></g></svg>