<svg id="Layer_1" enable-background="new 0 0 497 497" height="512" viewBox="0 0 497 497" width="512" xmlns="http://www.w3.org/2000/svg"><g><path d="m346.897 229.327 59.838-59.764-17.459-62.803-61.497-16.055-59.838 59.764c14.448 42-33.743 87.214-71.477 71.389l-191.49 238.394c-7.216 8.983-6.506 21.958 1.647 30.101 8.141 8.131 21.096 8.839 30.075 1.644l238.724-191.281c-15.846-37.687 29.425-85.819 71.477-71.389z" fill="#f0b86c"/><path d="m389.276 106.76-3.288-.859 10.748 38.663-59.838 59.764c-42.052-14.43-87.322 33.701-71.477 71.388l-238.724 191.283c-7.574 6.069-17.967 6.493-25.923 1.604-2.002 7.565-.009 15.901 5.847 21.75 8.141 8.131 21.096 8.839 30.075 1.644l238.724-191.281c-15.845-37.687 29.425-85.819 71.477-71.389l59.838-59.764z" fill="#e8a54a"/><path d="m113.203 384.025c-14.729-14.711-16.038-38.128-3.038-54.384l36.512-45.658 12.162 54.312 54.361 12.269-45.475 36.44c-16.274 13.04-39.768 11.757-54.522-2.979z" fill="#bf7341"/><g><path d="m472.529 416.497c-.546 0-1.101-.061-1.656-.186l-313.684-70.701c-2.821-.636-5.026-2.838-5.665-5.659l-70.297-310.279c-.915-4.04 1.617-8.057 5.657-8.972 4.035-.921 8.056 1.617 8.972 5.657l69.252 305.661 309.064 69.66c4.04.911 6.578 4.925 5.667 8.966-.785 3.486-3.881 5.853-7.31 5.853z" fill="#e6e8f7"/></g><path d="m466.626 419.661-15.704-15.684c-11.159-11.145-16.642-26.532-15.043-42.214l7.781-76.306c4.677-45.86-11.358-90.856-43.995-123.453l-64.317-64.237c-32.637-32.596-77.689-48.612-123.606-43.941l-76.4 7.772c-15.703 1.596-31.108-3.88-42.268-15.026l-15.702-15.685c-6.948-6.94-6.948-18.192 0-25.131s18.214-6.94 25.162 0l15.704 15.684c3.564 3.559 8.485 5.309 13.5 4.799l76.399-7.773c56.603-5.758 112.142 13.986 152.374 54.168l64.317 64.237c40.232 40.182 60.001 95.652 54.235 152.185l-7.781 76.305c-.511 5.008 1.24 9.923 4.804 13.483l15.704 15.684c6.948 6.94 6.948 18.192 0 25.131-6.95 6.942-18.215 6.942-25.164.002z" fill="#cacee6"/><path d="m174.017 333.723 305.099-305.194c2.929-2.93 2.928-7.679-.001-10.606-2.932-2.931-7.681-2.928-10.606.001l-305.223 305.318 1.821 8.776z" fill="#9b4f1d"/><path d="m497 .044-24.91 50.508-24.911 50.508-10.698-40.572-40.622-10.685 50.57-24.879z" fill="#cacee6"/></g></svg>