<svg id="Icons" viewBox="0 0 60 60" xmlns="http://www.w3.org/2000/svg"><path d="m16.641 37.858a116.826 116.826 0 0 0 13.445-10.133c9.891-8.325 13.306-16.488 14.068-18.614a.851.851 0 0 1 .773-.547c6.068-.419 9.558-4.809 11-7.16a.871.871 0 0 1 1.546.15c1.665 4.079 4.586 15.329-7.968 25.9-10.527 8.859-23.07 14.054-28.192 15.946z" fill="#d1d1d3"/><path d="m16.877 45.974a81.013 81.013 0 0 0 -9.117 8.888l-3.909-2.652a47.516 47.516 0 0 1 9.5-10.4l2.649 1.19z" fill="#663526"/><path d="m7.03 53.37a3.417 3.417 0 1 1 -4.811-.408 3.419 3.419 0 0 1 4.811.408z" fill="#ffae43"/><path d="m24.427 48.045-4.21-6.3a15.167 15.167 0 0 0 -2.115-2.5l-5.5-5.217-.01-.011-3.199 3.083 3.962 4.713 3.522 4.165 3.963 4.712z" fill="#ffae43"/><g fill="#f2923b"><path d="m11.82 31.493a3.418 3.418 0 1 1 -4.812-.408 3.43 3.43 0 0 1 4.812.408z"/><path d="m26.371 54.067a3.417 3.417 0 1 1 .418-4.809 3.419 3.419 0 0 1 -.418 4.809z"/></g></svg>