<svg id="Capa_1" enable-background="new 0 0 512 512" height="512" viewBox="0 0 512 512" width="512" xmlns="http://www.w3.org/2000/svg"><g><g><g><path d="m182.76 400.218c49.33-70.992 115.635-140.78 115.635-140.78l-43.119-43.119s-69.788 66.306-140.78 115.635c-49.757 34.574-96.613 138.01-111.355 172.814-1.82 4.297 2.508 8.625 6.805 6.805 34.804-14.742 138.24-61.598 172.814-111.355z" fill="#e2dee2"/><path d="m298.392 259.436s-66.307 69.788-115.637 140.78c-34.566 49.757-138.006 96.614-172.811 111.357-4.291 1.818-8.623-2.504-6.805-6.805 2.182-5.164 5.081-11.844 8.592-19.585.135-.312.281-.613.416-.914 44.561-20.249 123.076-60.26 152.313-102.338 27.148-39.076 59.439-77.777 82.982-104.686 4.447-5.07 4.187-12.727-.592-17.496l-14.598-14.598c-1.371-1.371-2.618-2.857-3.719-4.436 16.561-14.722 26.743-24.395 26.743-24.395z" fill="#cbc5cb"/><path d="m259.805 302.346c-3.252 3.771-6.66 7.74-10.161 11.875l-19.065-19.065-213.248 213.248c-2.712 1.174-5.184 2.234-7.387 3.169-4.291 1.818-8.623-2.504-6.805-6.805.925-2.192 1.984-4.665 3.158-7.366l213.259-213.259-19.075-19.075c4.135-3.491 8.104-6.899 11.875-10.161z" fill="#bcbbbc"/></g><g><path d="m303.248 267.251c7.6-8.466 16.763-17.912 16.763-17.912l-54.637-54.637s-9.446 9.163-17.912 16.763c-5.581 5.01-5.818 13.685-.515 18.988l37.311 37.311c5.305 5.305 13.979 5.068 18.99-.513z" fill="#433f43"/><path d="m284.266 267.765-20.694-20.694c5.301 5.301 13.968 5.069 18.982-.518 7.595-8.464 16.762-17.909 16.762-17.909l20.694 20.694s-9.167 9.445-16.762 17.909c-5.014 5.587-13.681 5.818-18.982.518z" fill="#2d2b2d"/></g><g><ellipse cx="389.199" cy="125.515" fill="#fb6a3b" rx="111.611" ry="34.607" transform="matrix(.707 -.707 .707 .707 25.242 311.968)"/><path d="m413.664 149.986c-43.58 43.58-89.87 67.964-103.385 54.449-3.423-3.423-4.413-8.964-3.275-16.041 20.795-3.367 54.828-25.189 87.353-57.714 32.516-32.516 54.338-66.549 57.715-87.354 7.077-1.156 12.618-.167 16.05 3.265 13.515 13.516-10.87 59.806-54.458 103.395z" fill="#fb5532"/><path d="m499.828 60.567c-1.579 1.59-3.294 2.971-5.091 4.156-23.232-22.223-30.006-42.733-31.523-56.229 11.979-5.642 26.712-3.512 36.613 6.39 12.614 12.613 12.614 33.07.001 45.683z" fill="#fcb44d"/><path d="m499.828 60.567c-1.579 1.59-3.294 2.971-5.091 4.156-5.995-5.735-10.899-11.366-14.899-16.79 2.566-1.423 4.987-3.221 7.169-5.403 8.509-8.509 11.273-20.582 8.291-31.408 1.59 1.091 3.107 2.348 4.53 3.771 12.613 12.614 12.613 33.061 0 45.674z" fill="#fb9927"/><path d="m496.789 63.234c-12.673 9.88-30.99 8.992-42.645-2.664-12.618-12.618-12.618-33.062 0-45.68 3.423-3.423 7.419-5.92 11.693-7.474.971 12.756 6.929 33.404 30.952 55.818z" fill="#e2dee2"/><path d="m496.789 63.234c-12.673 9.88-30.99 8.992-42.645-2.664-4.098-4.098-6.864-9.01-8.288-14.227-.009-.009-.019-.019-.009-.046 10.786 7.456 25.097 7.595 36.003.407 3.968 5.337 8.88 10.878 14.939 16.53z" fill="#cbc5cb"/><path d="m384.436 241.342.017-.017c-8.293-8.293-25.331-13.809-34.997-15.891-4.739-1.021-8.121-5.214-8.116-10.062.007-6.184-2.447-12.118-6.82-16.491l-18.688-18.688c-4.373-4.373-10.306-6.827-16.491-6.82-4.848.005-9.041-3.377-10.062-8.116-2.082-9.666-7.598-26.704-15.891-34.997l-.017.017c-21.157-24.104-40.224-15.381-50.442-5.162-10.445 10.445-10.445 27.381 0 37.826 6.161 6.161 14.58 8.684 22.593 7.575 2.595-.359 5.015 1.387 5.643 3.931.326 1.322.622 2.67.883 4.042 1.831 9.631 6.395 18.532 13.326 25.463l45.386 45.386c6.932 6.932 15.833 11.496 25.463 13.326 1.372.261 2.72.557 4.042.883 2.544.628 4.29 3.048 3.931 5.643-1.109 8.013 1.414 16.432 7.575 22.593 10.445 10.445 27.381 10.445 37.826 0 10.22-10.217 18.943-29.284-5.161-50.441z" fill="#fcb44d"/><path d="m389.603 291.789c-10.444 10.444-27.391 10.444-37.835 0-3.201-3.201-5.421-7.012-6.66-11.064 9.158 2.812 19.537.592 26.781-6.651 8.168-8.168 15.384-21.989 5.643-38.02 2.646 1.61 5.014 3.367 6.919 5.273l-.019.019c24.116 21.155 15.393 40.221 5.171 50.443z" fill="#fb9927"/><g><path d="m491.947 69.388c-26.016-24.131-32.602-46.982-33.817-60.984-.412-4.746 3.553-8.718 8.305-8.384 3.808.268 6.885 3.252 7.202 7.057.931 11.178 6.394 30.049 28.951 50.928 3.04 2.814 3.329 7.527.67 10.703-2.874 3.433-8.029 3.725-11.311.68z" fill="#fb6a3b"/></g><g><path d="m463.088 108.365c-.712 0-1.436-.098-2.155-.305-36.59-10.506-66.69-40.306-67.953-41.569-3.043-3.043-3.043-7.977 0-11.02 3.042-3.041 7.973-3.043 11.016-.004.283.282 28.589 28.239 61.238 37.614 4.137 1.188 6.527 5.503 5.339 9.64-.98 3.418-4.098 5.644-7.485 5.644z" fill="#fcb44d"/></g><g><path d="m437.87 137.055c-.746 0-1.505-.108-2.257-.335-37.272-11.26-68.285-41.973-69.587-43.275-3.043-3.043-3.043-7.977 0-11.02 3.042-3.041 7.974-3.043 11.016-.004.292.292 29.618 29.272 63.078 39.38 4.12 1.245 6.45 5.593 5.206 9.713-1.017 3.369-4.11 5.541-7.456 5.541z" fill="#fcb44d"/></g><g><path d="m413.125 164.578c-.789 0-1.59-.12-2.381-.374-38.164-12.237-70.367-44.141-71.719-45.494-3.043-3.043-3.043-7.977 0-11.02s7.977-3.043 11.02 0c.467.464 31.042 30.638 65.458 41.674 4.098 1.314 6.355 5.701 5.041 9.799-1.061 3.307-4.124 5.415-7.419 5.415z" fill="#fcb44d"/></g><g><path d="m384.988 189.938c-.72 0-1.452-.1-2.179-.312-36.751-10.684-67.066-40.699-68.339-41.972-3.043-3.043-3.043-7.977 0-11.02 3.042-3.041 7.973-3.042 11.016-.004.285.284 28.831 28.483 61.673 38.031 4.133 1.201 6.508 5.525 5.307 9.658-.989 3.406-4.101 5.619-7.478 5.619z" fill="#fcb44d"/></g></g></g><g><g><path d="m364.814 277.327c-.769 3.668-4.01 6.203-7.626 6.203-.53 0-1.06-.062-1.6-.166l-10.307-2.151c-1.278-3.886-1.642-8.01-1.081-12.021.239-1.735-.467-3.387-1.714-4.488l16.291 3.397c4.208.883 6.909 5.008 6.037 9.226z" fill="#fb9927"/></g><g><path d="m250.008 172.236c-1.091-1.257-2.753-1.953-4.488-1.714-4.01.551-8.125.197-12.01-1.081l-2.151-10.317c-.883-4.218 1.818-8.343 6.036-9.216 4.218-.883 8.343 1.818 9.216 6.036z" fill="#fb9927"/></g></g><g><path d="m279.932 199.856h52.484v15.575h-52.484z" fill="#fb9927" transform="matrix(.707 -.707 .707 .707 -57.15 277.315)"/></g><g><g><path d="m358.32 227.779c-7.325.904-27.159 4.852-46.889 22.213-.229-.218-.457-.436-.675-.655l-10.379-10.379c14.753-13.226 29.631-19.979 40.977-23.418.062 4.769 3.429 8.883 8.104 9.891 2.535.55 5.589 1.33 8.862 2.348z" fill="#fb9927"/></g><g><path d="m298.912 173.358c-3.335 11.2-10.026 26.068-23.387 40.748l-10.151-10.151c-.291-.291-.582-.592-.862-.894 19.262-21.486 21.798-42.92 22.12-47.626 1.164 3.626 2.047 7.034 2.649 9.818.509 2.369 1.808 4.405 3.595 5.839 1.683 1.362 3.781 2.182 6.036 2.266z" fill="#fb9927"/></g></g></g></svg>