<svg id="Capa_1" enable-background="new 0 0 512 512" height="512" viewBox="0 0 512 512" width="512" xmlns="http://www.w3.org/2000/svg"><g><path d="m472.612 12.773h-12.2c-7.637 0-13.829 6.191-13.829 13.829v-12.773c.001-7.638-6.191-13.829-13.828-13.829h-12.246c-7.637 0-13.829 6.191-13.829 13.829 0-7.638-6.191-13.829-13.828-13.829h-12.225c-7.637 0-13.829 6.191-13.829 13.829v-.003c0-7.636-6.19-13.826-13.826-13.826h-12.274c-7.636 0-13.826 6.19-13.826 13.826l-.04 12.776-22.715 15.144c-10.737 7.158-17.187 19.209-17.187 32.113v25.606c0 12.961 5.149 25.39 14.313 34.555l47.6 47.6c3.044 3.044 4.701 7.207 4.582 11.51-.016.587-.066 1.173-.148 1.754l-1.133 8.025c46.077 38.869 73.711 12.185 109.263.653-.05-.315-.1-.63-.15-.944-.945-5.924-1.419-11.913-1.419-17.912 0-3.334 1.271-6.56 3.612-8.932 14.215-14.403 22.989-34.189 22.989-56.024v-93.149c.002-7.637-6.189-13.828-13.827-13.828z" fill="#f1b0a2"/><path d="m39.388 12.773h12.2c7.637 0 13.829 6.191 13.829 13.829v-12.773c-.001-7.638 6.191-13.829 13.828-13.829h12.246c7.637 0 13.829 6.191 13.829 13.829 0-7.638 6.191-13.829 13.829-13.829h12.225c7.637 0 13.829 6.191 13.829 13.829v-.003c-.001-7.636 6.189-13.826 13.825-13.826h12.274c7.636 0 13.826 6.19 13.826 13.826l.04 12.776 22.715 15.144c10.737 7.158 17.187 19.209 17.187 32.113v25.606c0 12.961-5.149 25.39-14.313 34.555l-47.6 47.6c-3.044 3.044-4.701 7.207-4.582 11.51.016.587.066 1.173.148 1.754l1.133 8.025c-46.077 38.869-73.711 12.185-109.263.653.05-.315.1-.63.15-.944.945-5.924 1.419-11.913 1.419-17.912 0-3.334-1.271-6.56-3.612-8.932-14.215-14.403-22.989-34.189-22.989-56.024v-93.149c-.002-7.637 6.189-13.828 13.827-13.828z" fill="#f1b0a2"/><path d="m472.612 12.773h-12.2c-7.637 0-13.829 6.191-13.829 13.829v-12.773c0-2.138-.485-4.163-1.352-5.97v91.287c0 21.835-8.774 41.621-22.989 56.024-2.342 2.373-3.612 5.599-3.612 8.932 0 2.004.125 4.397.303 6.795.541 7.27-4.244 13.907-11.328 15.628-17.808 4.326-36.128 5.793-54.274 4.41.082.724.114 1.458.093 2.195-.016.587-.066 1.173-.148 1.754l-1.133 8.025c46.077 38.869 73.711 12.185 109.263.653-.05-.315-.1-.63-.15-.944-.945-5.924-1.419-11.913-1.419-17.912 0-3.334 1.271-6.56 3.612-8.932 14.215-14.403 22.989-34.189 22.989-56.024v-93.149c.003-7.637-6.188-13.828-13.826-13.828z" fill="#eb9c8d"/><path d="m207.883 41.745-22.715-15.144-.04-12.776c-.001-7.635-6.191-13.825-13.826-13.825h-12.274c-5.459 0-10.179 3.164-12.427 7.759l20.073 13.382c10.737 7.158 17.186 19.209 17.186 32.113v25.606c0 12.961-5.149 25.39-14.313 34.555l-47.6 47.6c-3.044 3.044-4.701 7.207-4.582 11.51.016.587.066 1.173.148 1.754.666 4.718-2.258 9.2-6.84 10.505-19.135 5.452-38.991 7.556-58.692 6.302-.217 3.861-.63 7.709-1.24 11.531-.05.315-.1.629-.15.944 35.552 11.532 63.186 38.216 109.263-.653l-1.133-8.025c-.082-.582-.131-1.167-.148-1.754-.119-4.303 1.538-8.466 4.582-11.51l47.6-47.6c9.165-9.165 14.313-21.594 14.313-34.555v-25.606c.001-12.904-6.448-24.955-17.185-32.113z" fill="#eb9c8d"/><g fill="#eb9c8d"><path d="m319.333 106.107c4.143 0 7.5-3.357 7.5-7.5v-72.162.156l-15 10v62.006c0 4.143 3.358 7.5 7.5 7.5z"/><path d="m439.084 64.389c4.143 0 7.5-3.357 7.5-7.5v-43.061c0-7.637-6.191-13.828-13.829-13.828h-1.171v56.889c0 4.143 3.358 7.5 7.5 7.5z"/><path d="m406.68 56.405v-42.595c-.01-7.629-6.197-13.81-13.828-13.81h-1.172v56.405c0 4.143 3.357 7.5 7.5 7.5s7.5-3.358 7.5-7.5z"/><path d="m359.298 64.389c4.143 0 7.5-3.357 7.5-7.5v-43.072c-.005-7.632-6.193-13.817-13.826-13.817h-1.174v56.889c0 4.143 3.357 7.5 7.5 7.5z"/><path d="m57.916 64.389c4.143 0 7.5-3.357 7.5-7.5v-30.288c0-7.637-6.191-13.829-13.828-13.829h-1.172v44.116c0 4.144 3.358 7.501 7.5 7.501z"/><path d="m97.82 63.905c4.143 0 7.5-3.357 7.5-7.5v-42.576c0-7.638-6.191-13.829-13.828-13.829h-1.172v56.405c0 4.142 3.358 7.5 7.5 7.5z"/><path d="m137.702 64.389c4.143 0 7.5-3.357 7.5-7.5v-43.063.003c0-7.638-6.192-13.829-13.829-13.829h-1.171v56.889c0 4.143 3.358 7.5 7.5 7.5z"/><path d="m177.667 106.107c4.143 0 7.5-3.357 7.5-7.5l-.04-84.781c0-7.636-6.19-13.826-13.826-13.826h-1.134v98.607c0 4.143 3.358 7.5 7.5 7.5z"/></g><path d="m175.728 105.853c.619.165 1.269.254 1.939.254 4.143 0 7.5-3.357 7.5-7.5l-.04-84.781c0-7.636-6.19-13.826-13.825-13.826h-1.135v23.767c8.627 7.284 13.693 18.05 13.693 29.487v25.606c.001 9.672-2.868 19.049-8.132 26.993z" fill="#d78878"/><path d="m348.384 230.035c-8.722 66.241-13.098 132.988-13.098 199.811v37.886c44.761 20.522 88.831 35.322 134.047 15.823l11.02-15.823v-24.097c0-71.271-4.978-142.444-14.892-213-53.017-3.079-67.239-3.079-117.077-.6z" fill="#fdb441"/><path d="m163.616 230.035c8.722 66.241 13.098 132.988 13.098 199.811v37.886c-44.761 20.522-88.831 35.322-134.047 15.823l-11.02-15.823v-24.097c0-71.271 4.978-142.444 14.892-213 53.017-3.079 67.239-3.079 117.077-.6z" fill="#fdb441"/><path d="m465.461 230.636c-15.641-.909-27.906-1.549-38.704-1.937 9.873 77.212 11.941 140.452 12.314 179.156.247 25.659-18.283 47.642-43.61 51.767-17.012 2.771-37.802 3.908-60.173.144v7.967c44.761 20.522 88.831 35.322 134.047 15.823l11.02-15.823v-24.097c-.002-71.272-4.98-142.445-14.894-213z" fill="#fea713"/><path d="m163.616 230.035c-15.702-.781-27.868-1.316-38.826-1.587 7.136 59.99 10.715 120.36 10.715 180.793 0 25.359-18.308 46.993-43.308 51.246-20.033 3.408-40.533 3.281-60.55-.391v7.636l11.02 15.823c45.216 19.499 89.286 4.699 134.047-15.823v-37.886c0-66.823-4.377-133.569-13.098-199.811z" fill="#fea713"/><g fill="#fec165"><path d="m494.463 487.447c0 1.605-.955 3.057-2.429 3.692l-15.409 6.645c-45.216 19.499-96.578 18.915-141.339-1.608-3.313-1.519-6.556-3.131-9.755-4.849-1.299-.698-2.099-2.065-2.099-3.54v-19.369c0-3.014 3.179-4.931 5.869-3.571l.06.03c1.949.984 3.924 1.936 5.925 2.854 44.761 20.522 96.123 21.106 141.339 1.607l12.224-5.272c2.654-1.145 5.613.802 5.613 3.692v19.689z"/><path d="m469.07 200.878c-40.721 15.343-85.733 14.856-126.109-1.36-3.676-1.476-7.674 1.248-7.674 5.21v16.295c0 2.215 1.294 4.244 3.326 5.125 42.789 18.545 91.243 19.124 134.459 1.61 2.136-.866 3.553-2.917 3.553-5.222v-16.402c0-3.907-3.899-6.633-7.555-5.256z"/><path d="m17.537 487.447c0 1.605.955 3.057 2.429 3.692l15.409 6.645c45.216 19.499 96.578 18.915 141.339-1.608 3.313-1.519 6.556-3.131 9.755-4.849 1.299-.698 2.099-2.065 2.099-3.54v-19.369c0-3.014-3.179-4.931-5.869-3.571-.02.01-.04.02-.06.03-1.949.984-3.924 1.936-5.925 2.854-44.761 20.522-96.123 21.106-141.339 1.607l-12.224-5.272c-2.654-1.145-5.613.802-5.613 3.692v19.689z"/><path d="m42.93 200.878c40.721 15.343 85.733 14.856 126.109-1.36 3.676-1.476 7.674 1.248 7.674 5.21v16.295c0 2.215-1.294 4.244-3.326 5.125-42.789 18.545-91.243 19.124-134.459 1.61-2.136-.866-3.553-2.917-3.553-5.222v-16.402c0-3.907 3.899-6.633 7.555-5.256z"/><path d="m363.73 437.346c-4.143 0-7.5-3.357-7.5-7.5 0-48.424 2.385-97.556 7.087-146.029.399-4.122 4.041-7.148 8.189-6.74 4.122.399 7.141 4.066 6.74 8.189-4.656 47.993-7.017 96.638-7.017 144.58.001 4.143-3.356 7.5-7.499 7.5z"/><path d="m60.19 434.205c-.029 0-.058 0-.087 0-4.143-.048-7.462-3.443-7.415-7.585.543-47.587 3.382-95.779 8.439-143.239.438-4.119 4.132-7.098 8.253-6.663 4.119.439 7.102 4.134 6.663 8.253-5.008 46.99-7.819 94.706-8.356 141.819-.045 4.113-3.395 7.415-7.497 7.415z"/></g></g></svg>