<svg height="512" viewBox="0 0 58 58" width="512" xmlns="http://www.w3.org/2000/svg"><g id="Page-1" fill="none" fill-rule="evenodd"><g id="020---Archery" fill-rule="nonzero" transform="translate(0 -1)"><path id="Shape" d="m14.849 44.151-1.117 5.586c-.1934791.9679297-.6691243 1.8569373-1.367 2.555l-6.708 6.708-.707-4.95-4.95-.707 6.708-6.708c.69806272-.6978757 1.58707028-1.1735209 2.555-1.367z" fill="#e64c3c"/><path id="Shape" d="m1 59c-.4043959-.0000863-.76893405-.2437275-.92367798-.6173454-.15474393-.373618-.06922994-.8036603.21667798-1.0896546l50-50c.2510745-.25995658.6228779-.3642126.9725073-.27269716.3496295.09151544.6226744.3645604.7141899.71418984.0915154.34962943-.0127406.72143285-.2726972.97250732l-50 50c-.18749273.1875494-.44180519.2929434-.707.293z" fill="#cb8252"/><path id="Shape" d="m57.912 1.088-8.486 4.243c-.0979557 1.8492373-.8496498 3.60354447-2.121 4.95l.707.707.707.707c1.3464555-1.2713502 3.1007627-2.02304428 4.95-2.121z" fill="#95a5a5"/><path id="Shape" d="m23.2097476 8.637c-.0447476 0 5.9412524 1.526 7.8302524 5.633 1.4647527 2.8747753 3.3561726 5.5113 5.61 7.82 2.3087 2.2538274 4.9452247 4.1452473 7.82 5.61 4.095 1.875 5.6 7.837 5.63 7.8220283l-.743-10.5920283c.038-.023-4.222 0-9.877-5.67-5.645-5.645-5.664-9.89-5.633-9.888z" fill="#a56a43"/><path id="Rectangle-path" d="m27.296-7.479h2v76.366h-2z" fill="#f9eab0" transform="matrix(.707 -.707 .707 .707 -13.423 29.001)"/><g fill="#cb8252"><path id="Shape" d="m3.247 1.433c1.00997547.67390982 2.08141064 1.25081069 3.2 1.723 9.4 4.041 15.342-.391 23.9.821 1.6061211.23321564 3.1781802.6596392 4.682 1.27 1.0005124.40273146 1.7026581 1.31793549 1.8325457 2.38861138s-.333058 2.12722139-1.208252 2.75750162c-.8751939.6302802-2.0239997.7344546-2.9982937.271887-7.175-3.417-14.448.884-23.838-2.012-2.91265196-.86482361-5.64422467-2.2509392-8.062-4.091-.86404947-.6881468-1.00664677-1.9464505-.31849998-2.81049998s1.94645049-1.0066468 2.81049998-.31850002z"/><path id="Shape" d="m54.438 58.247c-3.6905135-4.8851665-5.5150879-10.9277173-5.145-17.039.4-6.811 1.1-10.547-.958-14.862-.4604736-.9731433-.3560675-2.1195971.2726192-2.993552.6286866-.8739548 1.6824385-1.3374889 2.7514943-1.2103526s1.9847041.8248791 2.3908865 1.8219046c3.809 9.38-1.224 16.323.917 25.035.5646037 2.452089 1.5739535 4.7798977 2.978 6.868.5832055.8861091.3731211 2.0734112-.4787355 2.7055965-.8518565.6321854-2.049106.4893033-2.7282645-.3255965z"/></g></g></g></svg>