<svg height="512" viewBox="0 0 58 58" width="512" xmlns="http://www.w3.org/2000/svg"><g id="Page-1" fill="none" fill-rule="evenodd"><g id="040---Bow" transform="translate(-1 -1)"><path id="Path" d="m56.583 57.962c-.034 0-.068 0-.1-.005l-44.972-4.6c-.3638246-.0251695-.6850973-.246406-.8383745-.5773259-.1532773-.3309199-.1142504-.7190418.1018421-1.0128205.2160926-.2937786.5749802-.4466229.9365324-.3988536l44.973 4.6c.5522847.0276143.9776142.4977153.9499999 1.05-.0276142.5522847-.4977152.9776142-1.0499999.95z" fill="#cf976a"/><path id="Path" d="m7.584 48.908c-.5131825-.0005068-.94268198-.3893896-.994-.9l-4.576-44.784c-.0600638-.36681585.08828351-.73667957.38517371-.96032603.29689021-.22364645.69332942-.26416868 1.02932747-.10521323.33599806.15895546.55610735.4911572.57149882.86253926l4.58 44.785c.02795801.2643877-.05051658.5290257-.21808232.7354336-.16756575.206408-.41042764.3375933-.67491768.3645664-.03426698.0026327-.06865664.0033005-.103.002z" fill="#cf976a"/><path id="Path" d="m55.688 58.528-2.167-1.822c-1.1208737-.7614357-1.9773792-1.8524231-2.451-3.122-.3059779-1.2389332-.3549847-2.5274042-.144-3.786.2372833-4.4439519-.0159117-8.9005196-.755-13.289-1.235-6.889-3.988-13.344-8.681-18-4.655-4.693-11.11-7.446-18-8.681-3.5007078-.59914835-7.048658-.8786331-10.6-.835-1.772.026-5.2.2-5.207.2-2-.169-3.092-1.211-4.386-2.711l-1.824-2.17c-.67545606-.79999959-.62567766-1.9840155.1145433-2.7244972.74022097-.74048171 1.92421928-.79067708 2.7244567-.1155028 2.669 2.248 1.678 1.399 2.969 2.515.16600164.19640631.43870736.26518607.678.171.263-.14 3.763-.649 4.558-.755 3.9523887-.46098972 7.944021-.47709043 11.9-.048 4.0614774.43808926 8.036954 1.46834411 11.8 3.058 3.862663 1.66754442 7.3874263 4.0281191 10.4 6.965 2.937127 3.0123741 5.2977339 6.5371854 6.965 10.4 1.590436 3.7628452 2.6210451 7.7383887 3.059 11.8.5336551 4.9423537.3700551 9.9351829-.486 14.832-.021.129-.276 1.551-.317 1.627-.162.3.033.515.171.678.8386667.9886667 1.6766667 1.9783333 2.514 2.969.6754561.7999996.6256777 1.9840155-.1145433 2.7244972s-1.9242193.7906771-2.7244567.1155028z" fill="#cb8252"/><path id="Path" d="m14 46h-7l-6 6h7v7l6-6z" fill="#e64c3c"/><path id="Path" d="m58.28 58.53c-.7484189.6299507-1.8415811.6299507-2.59 0l-2.17-1.82c-1.1203011-.7652911-1.9761593-1.8586936-2.45-3.13-.2535772-.793736-.3320463-1.6330147-.23-2.46l5.05.72c-.0100467.0681492-.0267946.1351405-.05.2-.1085476.2386028-.038061.5205494.17.68l2.52 2.97c.7106494.8547098.5990405 2.1225868-.25 2.84z" fill="#a56a43"/><path id="Path" d="m52.59 21.69-5.31 5.31c-1.4004262-3.1570074-3.3622194-6.0336265-5.79-8.49-2.4068638-2.3770393-5.2172884-4.30709-8.3-5.7l5.31-5.31c2.9797397 1.55221935 5.7155546 3.5333267 8.12 5.88 2.3981802 2.4526676 4.4110113 5.2544475 5.97 8.31z" fill="#cf976a"/><path id="Path" d="m7.45 4.11-2.14 4.28c-.75721861-.5416494-1.43684298-1.18426452-2.02-1.91l-1.82-2.17c-.67084194-.80081554-.61880886-1.98142304.11988405-2.72011595s1.91930041-.79072599 2.72011595-.11988405c2.67 2.25 1.68 1.4 2.97 2.52.0499322.0487768.10731847.08928475.17.12z" fill="#a56a43"/><path id="Path" d="m3 58c-.4043959-.0000863-.76893405-.2437275-.92367798-.6173454-.15474393-.373618-.06922994-.8036603.21667798-1.0896546l47.5-47.5c.3923789-.37897221 1.0160848-.37355237 1.4018186.01218142.3857338.3857338.3911536 1.00943969.0121814 1.40181858l-47.5 47.5c-.18749273.1875494-.44180519.2929434-.707.293z" fill="#fac176"/><path id="Path" d="m57.2 1.555-9.613 2.957c-.3348487.1032961-.5911989.37432745-.6757065.71440416-.0845076.34007672.0151582.69957656.2627065.94759584l6.652 6.652c.2480193.2475483.6075191.3472141.9475958.2627065.3400768-.0845076.6111081-.3408578.7144042-.6757065l2.957-9.608c.1080082-.35297735.0127799-.73674971-.2477125-.99828833-.2604925-.26153862-.6438801-.35830423-.9972875-.25171167z" fill="#95a5a5"/></g></g></svg>