<svg id="Layer_1" enable-background="new 0 0 497 497" height="512" viewBox="0 0 497 497" width="512" xmlns="http://www.w3.org/2000/svg"><g><path d="m321.996 196.019-296.415 296.752c-5.632 5.638-14.764 5.638-20.396 0-5.632-5.638-5.632-14.78 0-20.419l296.415-296.752" fill="#f0b86c"/><g><path d="m496.038 0-110.815 55.13-25.495 60.236 21.076 21.099 60.166-25.523z" fill="#9197b8"/><path d="m421.136 74.989c-2.932-2.927-7.679-2.927-10.606.005l-55.433 55.484c-2.928 2.931-2.926 7.679.005 10.606 1.465 1.463 3.382 2.194 5.301 2.194 1.92 0 3.841-.733 5.306-2.199l55.433-55.484c2.926-2.93 2.924-7.678-.006-10.606z" fill="#6d718a"/></g><path d="m321.65 195.673-19.716-19.738c-5.442-5.448-5.442-14.277 0-19.725 5.447-5.453 14.282-5.453 19.729 0l19.716 19.738c5.442 5.448 5.442 14.277 0 19.725-5.447 5.453-14.282 5.453-19.729 0z" fill="#cacee6"/><path d="m341.366 175.935-19.716-19.738c-5.442-5.448-5.442-14.277 0-19.725 5.447-5.453 14.282-5.453 19.729 0l19.716 19.738c5.442 5.448 5.442 14.277 0 19.725-5.448 5.453-14.282 5.453-19.729 0z" fill="#e6e8f7"/><path d="m361.081 156.197-19.716-19.738c-5.442-5.448-5.442-14.277 0-19.725 5.447-5.453 14.282-5.453 19.729 0l19.716 19.738c5.442 5.448 5.442 14.277 0 19.725-5.447 5.453-14.282 5.453-19.729 0z" fill="#cacee6"/><path d="m341.379 175.948-19.716-19.738c-.055-.055-.116-.101-.171-.155l5.387 5.393c5.443 5.449 5.443 14.276 0 19.725-5.391 5.397-14.1 5.443-19.558.154l14.329 14.346c5.446 5.452 14.282 5.452 19.729 0 5.442-5.449 5.442-14.277 0-19.725z" fill="#bfc4e0"/><path d="m361.094 156.209-19.716-19.738c-.055-.055-.115-.101-.171-.155l5.387 5.393c5.443 5.449 5.443 14.276 0 19.725-5.391 5.397-14.1 5.443-19.558.155l14.329 14.345c5.446 5.452 14.282 5.452 19.729 0 5.443-5.448 5.443-14.276 0-19.725z" fill="#dadcf0"/><path d="m380.81 136.471-19.716-19.738c-.055-.055-.115-.101-.17-.155l5.386 5.393c5.443 5.449 5.443 14.276 0 19.725-5.391 5.397-14.1 5.443-19.558.154l14.33 14.346c5.446 5.452 14.282 5.452 19.729 0 5.442-5.448 5.442-14.276-.001-19.725z" fill="#bfc4e0"/></g></svg>