<svg id="Icons" height="512" viewBox="0 0 60 60" width="512" xmlns="http://www.w3.org/2000/svg"><path d="m52.219 25.194 2.6-2.6a2.465 2.465 0 0 1 3.751.319 2.557 2.557 0 0 1 -.379 3.261l-2.5 2.5a17.21 17.21 0 0 1 -18.545 3.82 3.608 3.608 0 0 0 -3.77.618l-28.043 25.23a2.62 2.62 0 0 1 -1.733.658 2.571 2.571 0 0 1 -1.835-.758 2.6 2.6 0 0 1 -.1-3.57l25.235-28.032a3.606 3.606 0 0 0 .619-3.77 17.193 17.193 0 0 1 3.821-18.538l2.6-2.613a2.465 2.465 0 0 1 3.751.319 2.555 2.555 0 0 1 -.366 3.262l-2.5 2.5z" fill="#6d4732"/><ellipse cx="43.516" cy="16.502" fill="#5acca6" rx="12.302" ry="12.298"/><path d="m38.3 12.284a1 1 0 0 1 -.707-1.707 8.4 8.4 0 0 1 11.853 0 1 1 0 0 1 -1.414 1.414 6.393 6.393 0 0 0 -9.025 0 .993.993 0 0 1 -.707.293z" fill="#69e6c3"/></svg>