<?xml version="1.0" encoding="UTF-8"?>
<svg xmlns="http://www.w3.org/2000/svg" viewBox="0 0 64 64" width="512" height="512"><g id="Layer_28" data-name="Layer 28"><path d="M45.219,6.219,49,2l4,4-3.762,4.238-5.609,6.313L23.168,39.743A84.346,84.346,0,0,0,9.827,60.209h0A3.083,3.083,0,0,1,7.028,62h0a3.08,3.08,0,0,1-1.85-.617L3.463,60.1A3.656,3.656,0,0,1,2,57.172H2a3.66,3.66,0,0,1,.681-2.126h0A243.162,243.162,0,0,1,22.952,30.291l16.6-17.742Z" style="fill:#967a56"/><path d="M3.463,56.1l1.715,1.286a3.082,3.082,0,0,0,4.649-1.174A84.346,84.346,0,0,1,23.168,35.743L51.119,4.119,49,2,45.219,6.219l-5.67,6.33-16.6,17.742A243.162,243.162,0,0,0,2.681,55.046h0c-.025.035-.043.074-.066.11A3.611,3.611,0,0,0,3.463,56.1Z" style="fill:#b19367"/><path d="M44,17l1,1,2-2h0a17.073,17.073,0,0,1,5,12.071V30l1.393-.4A14.766,14.766,0,0,0,62,23h0L44,5l-6,6,1,1" style="fill:#c1cfe8"/><path d="M59.6,20.6,44,5l-6,6,1,1L44,17l1,1,2-2a17.07,17.07,0,0,1,4.918,10.425A14.748,14.748,0,0,0,59.6,20.6Z" style="fill:#a5badb"/><polyline points="43 6 39 2 35 6 39 10" style="fill:#c1cfe8"/><polygon points="32 20.619 32 29.732 36 25.198 36 16.342 32 20.619" style="fill:#feaf73"/><path d="M22.952,30.291c-.662.709-1.3,1.441-1.952,2.158v9.859c.706-.868,1.426-1.725,2.168-2.565L25,37.666V28.1Z" style="fill:#feaf73"/><path d="M22.952,30.291c-.217.233-.424.475-.641.709h8.57l3.529-4H26.031Z" style="fill:#40c1c1"/><polygon points="32 20.619 32 25.732 36 21.198 36 16.342 32 20.619" style="fill:#f9dd9d"/><path d="M22.311,31c.217-.234.424-.476.641-.709-.662.709-1.3,1.441-1.952,2.158v5.859c.706-.868,1.426-1.725,2.168-2.565L25,33.666V31Z" style="fill:#f9dd9d"/><path d="M26.031,27l-3.079,3.291c-.217.233-.424.475-.641.709h5.041l3.529-4Z" style="fill:#5fe0dc"/></g></svg>
