<svg xmlns="http://www.w3.org/2000/svg" version="1.1" xmlns:xlink="http://www.w3.org/1999/xlink" width="512" height="512" x="0" y="0" viewBox="0 0 64 64" style="enable-background:new 0 0 512 512" xml:space="preserve" class=""><g><path fill="#b27946" d="m10 59-1.96 1.96a3.521 3.521 0 0 1-5 0 3.521 3.521 0 0 1 0-5L5 54z" opacity="1" data-original="#b27946"></path><path fill="#d3a06c" d="M6.13 52.87 9 50l8-8 5 5-12 12-5-5z" opacity="1" data-original="#d3a06c"></path><path fill="#aab2bd" d="M29.29 38.71c.46 1 .71 2.12.71 3.29 0 2.01-.74 3.86-1.97 5.26A75.77 75.77 0 0 1 26 45.34l-8-7.99c-.45-.46-.95-.85-1.49-1.17l.01-.01A7.999 7.999 0 0 1 22 34c1.17 0 2.29.25 3.29.71 1.77.8 3.2 2.23 4 4z" opacity="1" data-original="#aab2bd" class=""></path><path fill="#ddce7f" d="M31 50c-.62.12-1.24.18-1.86.18-2.51 0-4.94-.98-6.75-2.79L22 47l-5-5-1.82-1.82A4.037 4.037 0 0 0 12.34 39c-.87 0-1.71.28-2.41.8l-.49.37A6.081 6.081 0 0 0 7 45.04v.06c0 1.25.36 2.45 1.05 3.47C8.53 49.3 9 50 9 50l-2.87 2.87-1.41-2.08c-1.54-2.31-2.08-5.13-1.48-7.92.54-2.45 2.04-4.58 4.04-6.08l.05-.04c1.17-.88 2.53-1.51 3.98-1.69 1.87-.23 3.68.17 5.2 1.12.54.32 1.04.71 1.49 1.17l8 7.99c.4.4 1.19 1.15 2.03 1.92C29.45 48.58 31 50 31 50z" opacity="1" data-original="#b4dd7f" class=""></path><path fill="#e6e9ed" d="M62 2a9.695 9.695 0 0 1-2.83 6.83L29.29 38.71c-.8-1.77-2.23-3.2-4-4L55.17 4.83A9.667 9.667 0 0 1 62 2z" opacity="1" data-original="#e6e9ed" class=""></path><path d="M62 1a10.584 10.584 0 0 0-7.535 3.121l-29.42 29.42A8.943 8.943 0 0 0 22 33a8.962 8.962 0 0 0-5.611 1.969 9.021 9.021 0 0 0-5.203-.898c-1.53.189-3.071.84-4.502 1.916-2.286 1.719-3.855 4.086-4.417 6.667-.664 3.04-.089 6.126 1.622 8.695l.947 1.399-2.509 2.509A4.513 4.513 0 0 0 1 58.465 4.54 4.54 0 0 0 5.535 63a4.506 4.506 0 0 0 3.207-1.328l13.277-13.277a10.494 10.494 0 0 0 9.177 2.586l1.938-.388-1.46-1.331c-.021-.019-1.117-1.02-2.299-2.113A8.993 8.993 0 0 0 31 42c0-1.07-.197-2.092-.541-3.045l29.42-29.42A10.584 10.584 0 0 0 63 2V1zM8.879 48.014C8.304 47.153 8 46.146 8 45.042c0-1.593.761-3.113 2.035-4.068l.499-.374a3.011 3.011 0 0 1 1.8-.6h.003a3.045 3.045 0 0 1 2.135.886L15.586 42l-6.43 6.43zm8.121-4.6L20.586 47 10 57.586 6.414 54zM5.535 61A2.539 2.539 0 0 1 3 58.465c0-.678.264-1.314.742-1.793L5 55.414 8.586 59l-1.258 1.258A2.52 2.52 0 0 1 5.535 61zm17.567-14.312-7.216-7.216A5.054 5.054 0 0 0 12.339 38h-.005a5.03 5.03 0 0 0-3 .999l-.498.374C7.061 40.704 6 42.823 6 45.102c0 1.441.42 2.832 1.214 4.021l.5.75-1.436 1.436-.728-1.075c-1.403-2.107-1.875-4.648-1.328-7.154.46-2.112 1.762-4.063 3.709-5.528 1.107-.832 2.318-1.35 3.502-1.496 2.192-.269 4.324.46 5.864 1.999l7.996 7.996c.613.613 2.117 2.009 3.323 3.12a8.51 8.51 0 0 1-5.514-2.483zm3.605-2.051-7.996-7.996c-.175-.175-.363-.332-.549-.49A6.963 6.963 0 0 1 22 35c3.859 0 7 3.141 7 7a6.989 6.989 0 0 1-1.109 3.769c-.5-.469-.928-.877-1.184-1.132zM58.465 8.121 29.519 37.067a9.074 9.074 0 0 0-2.586-2.586L55.879 5.535a8.596 8.596 0 0 1 5.057-2.471 8.596 8.596 0 0 1-2.471 5.057z" fill="#000000" opacity="0" data-original="#000000" class=""></path></g></svg>