<svg xmlns="http://www.w3.org/2000/svg" version="1.1" xmlns:xlink="http://www.w3.org/1999/xlink" width="512" height="512" x="0" y="0" viewBox="0 0 64 64" style="enable-background:new 0 0 512 512" xml:space="preserve" class=""><g><circle cx="32" cy="27" r="24" fill="#000000" opacity="1" data-original="#feb6c1" class=""></circle><path fill="#000000" d="M35 48A24 24 0 0 1 16.6 8.6a24 24 0 1 0 33.8 33.8A23.9 23.9 0 0 1 35 48z" opacity="1" data-original="#ff9caf" class=""></path><path fill="#ffffff" d="M49 24s-7.611 8-17 8-17-8-17-8 7.611-8 17-8 17 8 17 8z" opacity="1" data-original="#e6afe6" class=""></path><circle cx="32" cy="24" r="8" fill="#000000" opacity="1" data-original="#feffff" class=""></circle><ellipse cx="32" cy="24" fill="#ffffff" rx="2" ry="4" opacity="1" data-original="#4e407a" class=""></ellipse><path fill="#000000" d="M51.828 47H12.172L9 57a68.129 68.129 0 0 0 46 0z" opacity="1" data-original="#645191" class=""></path><path fill="#ffffff" d="M15.538 47h-3.366L9 57a68.129 68.129 0 0 0 46 0l-.217-.683a67.317 67.317 0 0 1-33.12 1.127A8.174 8.174 0 0 1 15.538 47z" opacity="1" data-original="#4e407a" class=""></path><path fill="#ffffff" d="M51.377 47.3a111.073 111.073 0 0 1-38.754 0A1.974 1.974 0 0 1 11 45.352a1.971 1.971 0 0 1 2.315-1.935 111.049 111.049 0 0 0 37.37 0A1.971 1.971 0 0 1 53 45.352a1.974 1.974 0 0 1-1.623 1.948z" opacity="1" data-original="#4e407a" class=""></path><path fill="#000000" d="M48.98 23.99A40.5 40.5 0 0 0 32 20a40.5 40.5 0 0 0-16.98 3.99C15.48 23.51 22.9 16 32 16s16.52 7.51 16.98 7.99z" opacity="1" data-original="#e69ae8" class=""></path><path fill="#000000" d="M57.5 10.5 61 9l-3.5-1.5L56 3l-1.5 4.5L51 9l3.5 1.5L56 15zM9.5 32.5 13 31l-3.5-1.5L8 25l-1.5 4.5L3 31l3.5 1.5L8 37z" opacity="1" data-original="#fdca79" class=""></path><g fill="#4e407a"><path d="M32 13.078a1.013 1.013 0 0 0 1.013-1.013V8.013a1.013 1.013 0 0 0-2.026 0v4.052A1.013 1.013 0 0 0 32 13.078zM23.018 14.472a1.013 1.013 0 1 0 1.755-1.013L22.747 9.95a1.013 1.013 0 1 0-1.755 1.013zM39.6 14.843a1.015 1.015 0 0 0 1.384-.371l2.026-3.509a1.013 1.013 0 1 0-1.757-1.013l-2.026 3.509a1.013 1.013 0 0 0 .373 1.384zM32 35a1 1 0 0 0-1 1v4a1 1 0 0 0 2 0v-4a1 1 0 0 0-1-1zM24.4 33.6a1.014 1.014 0 0 0-1.384.371l-2.024 3.509a1.013 1.013 0 1 0 1.755 1.013l2.026-3.509A1.013 1.013 0 0 0 24.4 33.6zM40.866 33.625a1 1 0 1 0-1.732 1l2 3.463a1 1 0 1 0 1.732-1z" fill="#ffffff" opacity="1" data-original="#4e407a" class=""></path></g></g></svg>