<svg xmlns="http://www.w3.org/2000/svg" version="1.1" xmlns:xlink="http://www.w3.org/1999/xlink" width="512" height="512" x="0" y="0" viewBox="0 0 512.001 512.001" style="enable-background:new 0 0 512 512" xml:space="preserve" class=""><g><path d="m407.21 122.644-17.853-17.853c-4.19-4.19-10.984-4.191-15.175 0l-23.141 23.141 33.028 33.028 23.141-23.141c4.191-4.191 4.19-10.985 0-15.175z" style="" fill="#000000" data-original="#ad7b64" opacity="1"></path><path d="M389.679 118.047c2.649-2.649 6.272-3.713 9.715-3.219l-10.036-10.036c-4.19-4.19-10.984-4.191-15.175 0l-23.141 23.141 14.376 14.376 24.261-24.262z" style="" fill="#000000" data-original="#9e6b57" class="" opacity="1"></path><path d="M250.768 228.205 3.143 475.83c-4.19 4.19-4.19 10.984 0 15.175l17.853 17.853c4.191 4.191 10.985 4.19 15.175 0l247.625-247.625-33.028-33.028z" style="" fill="#000000" data-original="#ad7b64" opacity="1"></path><path d="m13.515 494.649 251.848-251.848-14.595-14.595L3.143 475.83c-4.19 4.19-4.19 10.985 0 15.175l7.766 7.766a11.127 11.127 0 0 1 2.606-4.122z" style="" fill="#000000" data-original="#9e6b57" class="" opacity="1"></path><path d="M333.021 124.231c-23.905-35.908-34.697-77.964-32.36-119.425.159-2.818-2.268-5.09-5.073-4.777-90.858 10.134-162.595 81.924-172.722 172.722-.313 2.805 1.959 5.232 4.777 5.073 41.461-2.337 83.517 8.455 119.425 32.36l85.953-85.953z" style="" fill="#000000" data-original="#d8dce5" class="" opacity="1"></path><path d="M261.015 196.238c-41.232-29.523-87.739-45.532-132.241-47.311a5.303 5.303 0 0 1-1.666-.346 196.52 196.52 0 0 0-4.241 24.171c-.313 2.805 1.959 5.232 4.777 5.073 41.461-2.337 83.517 8.455 119.425 32.36l85.954-85.953-72.008 72.006z" style="" fill="#000000" data-original="#c3c8d1" class="" opacity="1"></path><path d="M511.971 216.413c.313-2.805-1.959-5.232-4.777-5.073-41.461 2.336-83.517-8.455-119.425-32.361l-85.953 85.953c23.905 35.908 34.697 77.964 32.361 119.425-.159 2.818 2.268 5.089 5.073 4.777 90.859-10.133 162.594-81.923 172.721-172.721z" style="" fill="#000000" data-original="#d8dce5" class="" opacity="1"></path><path d="M358.677 383.644c-.247-45.12-14.685-91.751-42.836-132.736l-14.025 14.025c23.905 35.908 34.697 77.964 32.36 119.425-.159 2.818 2.268 5.089 5.073 4.777a196.791 196.791 0 0 0 19.935-3.268 5.355 5.355 0 0 1-.507-2.223zM162.466 178.951c29.709 3.611 58.749 14.023 84.601 31.234l85.953-85.953C315.809 98.38 305.397 69.34 301.786 39.63c-73.6 7.381-131.931 65.639-139.32 139.321z" style="" fill="#000000" data-original="#c3c8d1" class="" opacity="1"></path><path d="m261.015 196.238 72.006-72.007-72.006 72.007zM162.466 178.951c32.779 4.097 62.785 16.236 84.601 31.234l13.947-13.947c-29.502-21.125-61.705-35.327-93.943-42.351a156.321 156.321 0 0 0-4.605 25.064z" style="" fill="#000000" data-original="#b4b9c1" class="" opacity="1"></path><path d="M472.372 210.214c-29.71-3.611-58.75-14.023-84.602-31.234l-85.953 85.953c17.211 25.853 27.623 54.892 31.234 84.602 73.6-7.381 131.931-65.639 139.321-139.321z" style="" fill="#000000" data-original="#c3c8d1" class="" opacity="1"></path><path d="m315.841 250.908-14.025 14.025c17.319 26.016 27.668 55.238 31.234 84.602a156.2 156.2 0 0 0 22.117-3.841c-5.86-32.742-19.026-65.232-39.326-94.786z" style="" fill="#000000" data-original="#b4b9c1" class="" opacity="1"></path><path d="M119.641 279.802h46.708V458.22h-46.708z" style="" transform="rotate(-134.999 142.994 369.013)" fill="#000000" data-original="#9e6b57" class="" opacity="1"></path><path d="m189.555 289.418-126.16 126.16 14.595 14.595 126.16-126.16-14.595-14.595z" style="" fill="#000000" data-original="#875748" class="" opacity="1"></path><path d="m389.105 165.313-42.597-42.597c-3.632-3.632-9.484-3.67-13.069-.085l-87.808 87.808c-3.586 3.586-3.547 9.437.085 13.069l42.597 42.597c3.632 3.632 9.483 3.671 13.069.085l87.808-87.808c3.585-3.585 3.548-9.436-.085-13.069z" style="" fill="#000000" data-original="#707487" class="" opacity="1"></path><path d="m258.785 226.052 90.66-90.66c1.92-1.92 4.47-2.825 7.003-2.736l-9.94-9.94c-3.632-3.632-9.484-3.67-13.069-.085l-87.808 87.808c-3.585 3.585-3.547 9.437.085 13.069l10.401 10.401c-.351-2.805.531-5.72 2.668-7.857z" style="" fill="#000000" data-original="#5e6377" class="" opacity="1"></path></g></svg>