<?xml version="1.0" encoding="UTF-8" standalone="no"?>
<!-- Created with Inkscape (http://www.inkscape.org/) -->
<svg xmlns="http://www.w3.org/2000/svg" xmlns:svg="http://www.w3.org/2000/svg" version="1.1" id="svg3513" width="682.66669" height="682.66669" viewBox="0 0 682.66669 682.66669">
  <defs id="defs3517">
    <clipPath clipPathUnits="userSpaceOnUse" id="clipPath3535">
      <path d="M 0,512 H 512 V 0 H 0 Z" id="path3533"/>
    </clipPath>
    <clipPath clipPathUnits="userSpaceOnUse" id="clipPath3555">
      <path d="M 0,512 H 512 V 0 H 0 Z" id="path3553"/>
    </clipPath>
  </defs>
  <mask id="custom"><rect id="bg" x="0" y="0" width="100%" height="100%" fill="white"/><g transform="matrix(1.3333333,0,0,-1.3333333,0,682.66667)"><path transform="matrix(1,0,0,1,285.7347,512.0001)" d="m 0,0 -90.204,-90.204 v -45.245 L 90.816,-316.47 h 45.246 l 90.203,90.205 V -180.4 L 45.865,0 Z" style="fill:#ffffff;fill-opacity:1;fill-rule:nonzero;stroke:none" id="path3523"/><path transform="matrix(1,0,0,1,263.6416,331.5215)" d="m 0,0 -56.794,-56.794 67.88,-67.88 56.794,56.794 z" style="fill:#ffffff;fill-opacity:1;fill-rule:nonzero;stroke:none" id="path3527"/><path transform="matrix(1,0,0,1,366.0454,501.8047)" d="M 0,0 -160.01,-160.01" style="fill:none;stroke:#000000;stroke-width:30;stroke-linecap:butt;stroke-linejoin:miter;stroke-miterlimit:10;stroke-dasharray:none;stroke-opacity:1" id="path3539"/><path transform="matrix(1,0,0,1,501.8047,366.0449)" d="M 0,0 -160.01,-160.009" style="fill:none;stroke:#000000;stroke-width:30;stroke-linecap:butt;stroke-linejoin:miter;stroke-miterlimit:10;stroke-dasharray:none;stroke-opacity:1" id="path3543"/><path transform="matrix(1,0,0,1,41.9139,87.1668)" d="m 0,0 -41.914,-12.454 v -74.713 h 74.713 l 12.454,41.913 179.531,179.532 -45.253,45.253 z" style="fill:#ffffff;fill-opacity:1;fill-rule:nonzero;stroke:none" id="path3547"/><path transform="matrix(1,0,0,1,29.9619,99.1182)" d="M 0,0 69.156,-69.156" style="fill:none;stroke:#000000;stroke-width:30;stroke-linecap:butt;stroke-linejoin:miter;stroke-miterlimit:10;stroke-dasharray:none;stroke-opacity:1" id="path3559"/><path transform="matrix(1,0,0,1,200.5703,281.0049)" d="M 0,0 80.435,-80.435" style="fill:none;stroke:#000000;stroke-width:30;stroke-linecap:butt;stroke-linejoin:miter;stroke-miterlimit:10;stroke-dasharray:none;stroke-opacity:1" id="path3563"/></g></mask><g mask="url(#custom)"><g id="g3519" transform="matrix(1.3333333,0,0,-1.3333333,0,682.66667)">
    <g id="g3521" transform="translate(285.7347,512.0001)">
      <path d="m 0,0 -90.204,-90.204 v -45.245 L 90.816,-316.47 h 45.246 l 90.203,90.205 V -180.4 L 45.865,0 Z" style="fill:#000000;fill-opacity:1;fill-rule:nonzero;stroke:none" id="path3523"/>
    </g>
    <g id="g3525" transform="translate(263.6416,331.5215)">
      <path d="m 0,0 -56.794,-56.794 67.88,-67.88 56.794,56.794 z" style="fill:#000000;fill-opacity:1;fill-rule:nonzero;stroke:none" id="path3527"/>
    </g>
    <g id="g3529">
      <g id="g3531" clip-path="url(#clipPath3535)">
        <g id="g3537" transform="translate(366.0454,501.8047)">
          <path d="M 0,0 -160.01,-160.01" style="fill:none;stroke:#ffffff;stroke-width:30;stroke-linecap:butt;stroke-linejoin:miter;stroke-miterlimit:10;stroke-dasharray:none;stroke-opacity:1" id="path3539"/>
        </g>
        <g id="g3541" transform="translate(501.8047,366.0449)">
          <path d="M 0,0 -160.01,-160.009" style="fill:none;stroke:#ffffff;stroke-width:30;stroke-linecap:butt;stroke-linejoin:miter;stroke-miterlimit:10;stroke-dasharray:none;stroke-opacity:1" id="path3543"/>
        </g>
      </g>
    </g>
    <g id="g3545" transform="translate(41.9139,87.1668)">
      <path d="m 0,0 -41.914,-12.454 v -74.713 h 74.713 l 12.454,41.913 179.531,179.532 -45.253,45.253 z" style="fill:#000000;fill-opacity:1;fill-rule:nonzero;stroke:none" id="path3547"/>
    </g>
    <g id="g3549">
      <g id="g3551" clip-path="url(#clipPath3555)">
        <g id="g3557" transform="translate(29.9619,99.1182)">
          <path d="M 0,0 69.156,-69.156" style="fill:none;stroke:#ffffff;stroke-width:30;stroke-linecap:butt;stroke-linejoin:miter;stroke-miterlimit:10;stroke-dasharray:none;stroke-opacity:1" id="path3559"/>
        </g>
      </g>
    </g>
    <g id="g3561" transform="translate(200.5703,281.0049)">
      <path d="M 0,0 80.435,-80.435" style="fill:none;stroke:#ffffff;stroke-width:30;stroke-linecap:butt;stroke-linejoin:miter;stroke-miterlimit:10;stroke-dasharray:none;stroke-opacity:1" id="path3563"/>
    </g>
  </g></g>
</svg>
