<svg xmlns="http://www.w3.org/2000/svg" version="1.1" xmlns:xlink="http://www.w3.org/1999/xlink" width="512" height="512" x="0" y="0" viewBox="0 0 497 497" style="enable-background:new 0 0 512 512" xml:space="preserve" class=""><g><path fill="#000000" d="m346.897 229.327 59.838-59.764-17.459-62.803-61.497-16.055-59.838 59.764c14.448 42-33.743 87.214-71.477 71.389L4.974 460.252c-7.216 8.983-6.506 21.958 1.647 30.101 8.141 8.131 21.096 8.839 30.075 1.644L275.42 300.716c-15.846-37.687 29.425-85.819 71.477-71.389z" opacity="1" data-original="#f0b86c" class=""></path><path fill="#000000" d="m389.276 106.76-3.288-.859 10.748 38.663-59.838 59.764c-42.052-14.43-87.322 33.701-71.477 71.388L26.697 466.999c-7.574 6.069-17.967 6.493-25.923 1.604-2.002 7.565-.009 15.901 5.847 21.75 8.141 8.131 21.096 8.839 30.075 1.644L275.42 300.716c-15.845-37.687 29.425-85.819 71.477-71.389l59.838-59.764z" opacity="1" data-original="#e8a54a" class=""></path><path fill="#000000" d="M113.203 384.025c-14.729-14.711-16.038-38.128-3.038-54.384l36.512-45.658 12.162 54.312 54.361 12.269-45.475 36.44c-16.274 13.04-39.768 11.757-54.522-2.979z" opacity="1" data-original="#bf7341" class=""></path><path fill="#000000" d="M472.529 416.497a7.535 7.535 0 0 1-1.656-.186L157.189 345.61a7.5 7.5 0 0 1-5.665-5.659L81.227 29.672a7.5 7.5 0 0 1 5.657-8.972c4.035-.921 8.056 1.617 8.972 5.657l69.252 305.661 309.064 69.66a7.5 7.5 0 0 1-1.643 14.819z" opacity="1" data-original="#e6e8f7" class=""></path><path fill="#000000" d="m466.626 419.661-15.704-15.684c-11.159-11.145-16.642-26.532-15.043-42.214l7.781-76.306c4.677-45.86-11.358-90.856-43.995-123.453l-64.317-64.237c-32.637-32.596-77.689-48.612-123.606-43.941l-76.4 7.772c-15.703 1.596-31.108-3.88-42.268-15.026L77.372 30.887c-6.948-6.94-6.948-18.192 0-25.131s18.214-6.94 25.162 0l15.704 15.684a16.65 16.65 0 0 0 13.5 4.799l76.399-7.773c56.603-5.758 112.142 13.986 152.374 54.168l64.317 64.237c40.232 40.182 60.001 95.652 54.235 152.185l-7.781 76.305a16.602 16.602 0 0 0 4.804 13.483l15.704 15.684c6.948 6.94 6.948 18.192 0 25.131-6.95 6.942-18.215 6.942-25.164.002z" opacity="1" data-original="#cacee6" class=""></path><path fill="#000000" d="M174.017 333.723 479.116 28.529a7.5 7.5 0 0 0-.001-10.606 7.497 7.497 0 0 0-10.606.001L163.286 323.242l1.821 8.776z" opacity="1" data-original="#9b4f1d" class=""></path><path fill="#000000" d="m497 .044-24.91 50.508-24.911 50.508-10.698-40.572-40.622-10.685 50.57-24.879z" opacity="1" data-original="#cacee6" class=""></path></g></svg>