<svg xmlns="http://www.w3.org/2000/svg" version="1.1" xmlns:xlink="http://www.w3.org/1999/xlink" width="512" height="512" x="0" y="0" viewBox="0 0 512 512" style="enable-background:new 0 0 512 512" xml:space="preserve" class=""><g><path fill="#000000" d="M472.612 12.773h-12.2c-7.637 0-13.829 6.191-13.829 13.829V13.829C446.584 6.191 440.392 0 432.755 0h-12.246c-7.637 0-13.829 6.191-13.829 13.829C406.68 6.191 400.489 0 392.852 0h-12.225c-7.637 0-13.829 6.191-13.829 13.829v-.003C366.798 6.19 360.608 0 352.972 0h-12.274c-7.636 0-13.826 6.19-13.826 13.826l-.04 12.776-22.715 15.144a38.596 38.596 0 0 0-17.187 32.113v25.606a48.87 48.87 0 0 0 14.313 34.555l47.6 47.6a15.666 15.666 0 0 1 4.434 13.264l-1.133 8.025c46.077 38.869 73.711 12.185 109.263.653l-.15-.944a113.702 113.702 0 0 1-1.419-17.912c0-3.334 1.271-6.56 3.612-8.932 14.215-14.403 22.989-34.189 22.989-56.024V26.601c.002-7.637-6.189-13.828-13.827-13.828zM39.388 12.773h12.2c7.637 0 13.829 6.191 13.829 13.829V13.829C65.416 6.191 71.608 0 79.245 0h12.246c7.637 0 13.829 6.191 13.829 13.829C105.32 6.191 111.511 0 119.149 0h12.225c7.637 0 13.829 6.191 13.829 13.829v-.003C145.202 6.19 151.392 0 159.028 0h12.274c7.636 0 13.826 6.19 13.826 13.826l.04 12.776 22.715 15.144a38.596 38.596 0 0 1 17.187 32.113v25.606a48.87 48.87 0 0 1-14.313 34.555l-47.6 47.6a15.666 15.666 0 0 0-4.434 13.264l1.133 8.025c-46.077 38.869-73.711 12.185-109.263.653l.15-.944a113.702 113.702 0 0 0 1.419-17.912c0-3.334-1.271-6.56-3.612-8.932-14.215-14.403-22.989-34.189-22.989-56.024V26.601c-.002-7.637 6.189-13.828 13.827-13.828z" opacity="1" data-original="#f1b0a2"></path><path fill="#000000" d="M472.612 12.773h-12.2c-7.637 0-13.829 6.191-13.829 13.829V13.829c0-2.138-.485-4.163-1.352-5.97v91.287c0 21.835-8.774 41.621-22.989 56.024-2.342 2.373-3.612 5.599-3.612 8.932 0 2.004.125 4.397.303 6.795.541 7.27-4.244 13.907-11.328 15.628a173.936 173.936 0 0 1-54.274 4.41 15.57 15.57 0 0 1-.055 3.949l-1.133 8.025c46.077 38.869 73.711 12.185 109.263.653l-.15-.944a113.702 113.702 0 0 1-1.419-17.912c0-3.334 1.271-6.56 3.612-8.932 14.215-14.403 22.989-34.189 22.989-56.024V26.601c.003-7.637-6.188-13.828-13.826-13.828zM207.883 41.745l-22.715-15.144-.04-12.776C185.127 6.19 178.937 0 171.302 0h-12.274c-5.459 0-10.179 3.164-12.427 7.759l20.073 13.382a38.595 38.595 0 0 1 17.186 32.113V78.86a48.87 48.87 0 0 1-14.313 34.555l-47.6 47.6a15.666 15.666 0 0 0-4.434 13.264 9.541 9.541 0 0 1-6.84 10.505 173.893 173.893 0 0 1-58.692 6.302c-.217 3.861-.63 7.709-1.24 11.531l-.15.944c35.552 11.532 63.186 38.216 109.263-.653l-1.133-8.025a15.666 15.666 0 0 1 4.434-13.264l47.6-47.6a48.866 48.866 0 0 0 14.313-34.555V73.858a38.592 38.592 0 0 0-17.185-32.113z" opacity="1" data-original="#eb9c8d" class=""></path><g fill="#eb9c8d"><path d="M319.333 106.107c4.143 0 7.5-3.357 7.5-7.5V26.445v.156l-15 10v62.006a7.5 7.5 0 0 0 7.5 7.5zM439.084 64.389c4.143 0 7.5-3.357 7.5-7.5V13.828C446.584 6.191 440.393 0 432.755 0h-1.171v56.889a7.5 7.5 0 0 0 7.5 7.5zM406.68 56.405V13.81C406.67 6.181 400.483 0 392.852 0h-1.172v56.405c0 4.143 3.357 7.5 7.5 7.5s7.5-3.358 7.5-7.5zM359.298 64.389c4.143 0 7.5-3.357 7.5-7.5V13.817C366.793 6.185 360.605 0 352.972 0h-1.174v56.889c0 4.143 3.357 7.5 7.5 7.5zM57.916 64.389c4.143 0 7.5-3.357 7.5-7.5V26.601c0-7.637-6.191-13.829-13.828-13.829h-1.172v44.116a7.5 7.5 0 0 0 7.5 7.501zM97.82 63.905c4.143 0 7.5-3.357 7.5-7.5V13.829C105.32 6.191 99.129 0 91.492 0H90.32v56.405a7.5 7.5 0 0 0 7.5 7.5zM137.702 64.389c4.143 0 7.5-3.357 7.5-7.5V13.826v.003C145.202 6.191 139.01 0 131.373 0h-1.171v56.889a7.5 7.5 0 0 0 7.5 7.5zM177.667 106.107c4.143 0 7.5-3.357 7.5-7.5l-.04-84.781C185.127 6.19 178.937 0 171.301 0h-1.134v98.607a7.5 7.5 0 0 0 7.5 7.5z" fill="#000000" opacity="1" data-original="#eb9c8d" class=""></path></g><path fill="#000000" d="M175.728 105.853a7.499 7.499 0 0 0 9.439-7.246l-.04-84.781C185.127 6.19 178.937 0 171.302 0h-1.135v23.767a38.596 38.596 0 0 1 13.693 29.487V78.86a48.86 48.86 0 0 1-8.132 26.993z" opacity="1" data-original="#d78878" class=""></path><path fill="#000000" d="M348.384 230.035a1530.61 1530.61 0 0 0-13.098 199.811v37.886c44.761 20.522 88.831 35.322 134.047 15.823l11.02-15.823v-24.097c0-71.271-4.978-142.444-14.892-213-53.017-3.079-67.239-3.079-117.077-.6zM163.616 230.035a1530.61 1530.61 0 0 1 13.098 199.811v37.886c-44.761 20.522-88.831 35.322-134.047 15.823l-11.02-15.823v-24.097c0-71.271 4.978-142.444 14.892-213 53.017-3.079 67.239-3.079 117.077-.6z" opacity="1" data-original="#fdb441" class=""></path><path fill="#000000" d="M465.461 230.636c-15.641-.909-27.906-1.549-38.704-1.937 9.873 77.212 11.941 140.452 12.314 179.156.247 25.659-18.283 47.642-43.61 51.767-17.012 2.771-37.802 3.908-60.173.144v7.967c44.761 20.522 88.831 35.322 134.047 15.823l11.02-15.823v-24.097a1531.059 1531.059 0 0 0-14.894-213zM163.616 230.035c-15.702-.781-27.868-1.316-38.826-1.587a1530.583 1530.583 0 0 1 10.715 180.793c0 25.359-18.308 46.993-43.308 51.246a173.949 173.949 0 0 1-60.55-.391v7.636l11.02 15.823c45.216 19.499 89.286 4.699 134.047-15.823v-37.886c0-66.823-4.377-133.569-13.098-199.811z" opacity="1" data-original="#fea713" class=""></path><g fill="#fec165"><path d="M494.463 487.447a4.02 4.02 0 0 1-2.429 3.692l-15.409 6.645a173.896 173.896 0 0 1-151.094-6.457 4.014 4.014 0 0 1-2.099-3.54v-19.369c0-3.014 3.179-4.931 5.869-3.571l.06.03a173.9 173.9 0 0 0 147.264 4.461l12.224-5.272c2.654-1.145 5.613.802 5.613 3.692v19.689zM469.07 200.878a173.903 173.903 0 0 1-126.109-1.36c-3.676-1.476-7.674 1.248-7.674 5.21v16.295c0 2.215 1.294 4.244 3.326 5.125a173.9 173.9 0 0 0 134.459 1.61c2.136-.866 3.553-2.917 3.553-5.222v-16.402c0-3.907-3.899-6.633-7.555-5.256zM17.537 487.447a4.02 4.02 0 0 0 2.429 3.692l15.409 6.645a173.896 173.896 0 0 0 151.094-6.457 4.014 4.014 0 0 0 2.099-3.54v-19.369c0-3.014-3.179-4.931-5.869-3.571l-.06.03a173.9 173.9 0 0 1-147.264 4.461l-12.224-5.272c-2.654-1.145-5.613.802-5.613 3.692v19.689zM42.93 200.878a173.903 173.903 0 0 0 126.109-1.36c3.676-1.476 7.674 1.248 7.674 5.21v16.295c0 2.215-1.294 4.244-3.326 5.125a173.9 173.9 0 0 1-134.459 1.61c-2.136-.866-3.553-2.917-3.553-5.222v-16.402c0-3.907 3.899-6.633 7.555-5.256zM363.73 437.346a7.499 7.499 0 0 1-7.5-7.5c0-48.424 2.385-97.556 7.087-146.029a7.48 7.48 0 0 1 8.189-6.74 7.498 7.498 0 0 1 6.74 8.189c-4.656 47.993-7.017 96.638-7.017 144.58a7.497 7.497 0 0 1-7.499 7.5zM60.19 434.205h-.087a7.5 7.5 0 0 1-7.415-7.585 1521.315 1521.315 0 0 1 8.439-143.239 7.5 7.5 0 1 1 14.916 1.59 1505.701 1505.701 0 0 0-8.356 141.819 7.499 7.499 0 0 1-7.497 7.415z" fill="#000000" opacity="1" data-original="#fec165" class=""></path></g></g></svg>