<svg height="512" viewBox="0 0 59 59" width="512" xmlns="http://www.w3.org/2000/svg"><g id="Page-1" fill="none" fill-rule="evenodd"><g id="020---Archery" fill="rgb(0,0,0)" fill-rule="nonzero" transform="translate(-1)"><path id="Shape" d="m49.013 12.4c.3902698.3890509 1.0217302.3890509 1.412 0 1.1643644-1.0886945 2.67272-1.7360422 4.264-1.83.3725278-.0040191.710842-.2180782.874-.553l4.244-8.485c.1899199-.38476974.1132016-.84781485-.1906626-1.15077336s-.7671363-.37829427-1.1513374-.18722664l-8.486 4.243c-.3350208.16289459-.5488705.50148986-.552.874-.0947715 1.59021333-.7408259 3.09767349-1.827 4.263-.3903819.39049985-.3903819 1.0235001 0 1.414l-7.683 7.683c-1.6721057-1.7017146-3.0558876-3.6644085-4.097-5.811-.2928451.060116-.5910483.0902714-.89.09-.7368957.0007032-1.4646331-.163294-2.13-.48-.9308179-.4392895-1.9162268-.7520643-2.93-.93.9167081.7379426 1.6579175 1.6704319 2.17 2.73 1.3253364 2.6407447 3.0255993 5.0759469 5.048 7.23l-6.839 6.839-19.412-19.415c8.9 2.3 15.907-1.55 22.819 1.741.974294.4625676 2.1230998.3583932 2.9982937-.271887.875194-.63028023 1.3381396-1.68682573 1.208252-2.75750162s-.8320333-1.98587992-1.8325457-2.38861138c-1.5038198-.6103608-3.0758789-1.03678436-4.682-1.27-8.56-1.212-14.506 3.22-23.9-.821-1.11858936-.47218931-2.19002453-1.04909018-3.2-1.723-.86404949-.68842292-2.12257704-.54604946-2.81099998.31800002-.68842293.86404948-.54604949 2.12257703.31799998 2.81099998 1.45751081 1.12453626 3.04202673 2.07403754 4.721 2.829l22.359 22.359-14.753 14.75-3.819.764c-.96792972.1934791-1.85693728.6691243-2.555 1.367l-5.294 5.298c-.26962351.2676907-.36425687.6650526-.24423622 1.0255386.12002065.3604861.43396006.6218173.81023622.6744614l1.732.247-3.419 3.42c-.25995658.2510745-.3642126.6228779-.27269716.9725073.09151544.3496295.3645604.6226744.71418984.7141899.34962943.0915154.72143285-.0127406.97250732-.2726972l3.419-3.419.248 1.732c.05264411.3762762.3139753.6902156.67446135.8102362.36048606.1200207.75784794.0253873 1.02553865-.2442362l5.294-5.294c.6978757-.6980627 1.1735209-1.5870703 1.367-2.555l.764-3.819 14.75-14.757 22.334 22.336c.754164 1.6936482 1.7129722 3.2885274 2.855 4.749.6791585.8148998 1.876408.9577819 2.7282645.3255965.8518566-.6321853 1.061941-1.8194874.4787355-2.7055965-1.4041579-2.0884053-2.4135118-4.4165626-2.978-6.869-2.13-8.668 2.841-15.584-.859-24.892-.5973125-1.5616328-2.3377865-2.3543768-3.908-1.78-.7571543.3054225-1.3545356.9100151-1.6508513 1.6707796-.2963156.7607644-.2652493 1.6101357.0858513 2.3472204 2.055 4.315 1.355 8.051.957 14.862-.1467038 2.6738194.1156518 5.3543657.778 7.949l-19.407-19.407 6.852-6.85c2.080881 1.9193449 4.4223208 3.5352919 6.955 4.8 1.2037976.5887143 2.2443506 1.4644272 3.03 2.55-.1749159-1.0548384-.5016385-2.0787939-.97-3.04-.4718539-.9861176-.605415-2.1002981-.38-3.17-2.1470248-.9843989-4.1128675-2.3234708-5.815-3.961l7.677-7.679z"/></g></g></svg>