<svg id="Capa_1" enable-background="new 0 0 596.473 596.473" height="512" viewBox="0 0 596.473 596.473" width="512" xmlns="http://www.w3.org/2000/svg"><g><g id="Page-1_39_"><g id="_x30_40---Bow" clip-rule="evenodd" fill-rule="evenodd"><path id="Path_239_" d="m539.836 581.942-384.204-39.323v-20.751l361.274 36.937h.104c5.113 7.352 11.304 13.893 18.365 19.402z"/><path id="Path_238_" d="m74.6 440.835h-20.855l-39.219-384.307 1.556 1.868c3.36 4.021 6.927 7.866 10.687 11.517l11.101 10.893z"/><path id="Path_237_" d="m583.101.448-99.739 30.68c-3.474 1.072-6.134 3.884-7.011 7.412s.157 7.258 2.726 9.832l27.173 27.173-386.04 386.04h-57.957l-62.253 62.254h57.957l-44.542 44.542c-2.697 2.605-3.779 6.463-2.829 10.09.95 3.628 3.782 6.461 7.41 7.41s7.485-.132 10.09-2.829l44.542-44.542v57.957l62.253-62.253v-57.957l386.04-386.04 27.173 27.173c2.573 2.574 6.306 3.611 9.838 2.734s6.346-3.541 7.416-7.019l30.67-99.688c1.121-3.662.133-7.644-2.57-10.358-2.702-2.713-6.68-3.717-10.347-2.611z"/><path id="Path_236_" d="m12.845 22.382c-3.541-4.18-3.286-10.376.586-14.251s10.069-4.134 14.251-.596c24.828 20.854 21.975 18.447 26.27 22.162l-12.72 25.43c-2.988-2.926-6.09-6.329-9.483-10.272z"/><path id="Path_235_" d="m128.096 67.235c-14.899 0-43.639 1.307-58.57 2.075-3.738-.33-7.417-1.142-10.946-2.417l14.443-28.927c.977-.197 1.935-.478 2.864-.84 4.15-1.266 33.71-5.717 44.718-7.19 40.275-4.735 80.956-4.902 121.269-.498 41.117 4.418 81.363 14.846 119.453 30.95 3.414 1.473 6.786 3.113 10.158 4.669l-39.987 39.987c-30.857-13.411-63.189-23.131-96.326-28.958-35.366-6.071-71.195-9.032-107.076-8.851z"/><path id="Path_234_" d="m390.948 74.892c18.227 10.058 35.519 21.725 51.67 34.862l-38.493 38.493c-16.407-12.96-34.064-24.256-52.707-33.72z"/><path id="Path_233_" d="m522.612 207.387-39.634 39.531c-9.685-19.335-21.333-37.622-34.758-54.575l38.493-38.493c13.613 16.684 25.632 34.609 35.899 53.537z"/><path id="Path_232_" d="m492.306 266.994 40.029-40.029c18.33 40.452 30.045 83.586 34.696 127.753 5.48 50.356 3.8 101.234-4.991 151.119-.093.56-.425 2.428-.83 4.69l-33.098-4.731c.093-1.411.228-2.781.28-4.15 2.531-46.924-.149-93.984-7.989-140.318-5.71-32.42-15.138-64.073-28.097-94.334z"/><path id="Path_231_" d="m587.646 583.622c-3.912 3.305-9.638 3.305-13.55 0l-25.296-21.311c-8.978-6.188-15.781-15.046-19.444-25.316-1.111-3.358-1.788-6.845-2.013-10.375l31.51 4.493c.889 2.527 2.255 4.859 4.026 6.869 7.854 9.255 17.638 20.803 26.063 30.763 3.75 4.466 3.17 11.126-1.296 14.877z"/></g></g></g></svg>