<svg xmlns="http://www.w3.org/2000/svg" version="1.1" xmlns:xlink="http://www.w3.org/1999/xlink" width="512" height="512" x="0" y="0" viewBox="0 0 497 497" style="enable-background:new 0 0 512 512" xml:space="preserve" class=""><g><path fill="#000000" d="M321.996 196.019 25.581 492.771c-5.632 5.638-14.764 5.638-20.396 0-5.632-5.638-5.632-14.78 0-20.419L301.6 175.6" opacity="1" data-original="#f0b86c" class=""></path><path fill="#000000" d="M496.038 0 385.223 55.13l-25.495 60.236 21.076 21.099 60.166-25.523z" opacity="1" data-original="#9197b8" class=""></path><path fill="#ffffff" d="M421.136 74.989a7.498 7.498 0 0 0-10.606.005l-55.433 55.484a7.498 7.498 0 0 0 .005 10.606 7.476 7.476 0 0 0 5.301 2.194c1.92 0 3.841-.733 5.306-2.199l55.433-55.484a7.501 7.501 0 0 0-.006-10.606z" opacity="1" data-original="#6d718a" class=""></path><path fill="#000000" d="m321.65 195.673-19.716-19.738c-5.442-5.448-5.442-14.277 0-19.725 5.447-5.453 14.282-5.453 19.729 0l19.716 19.738c5.442 5.448 5.442 14.277 0 19.725-5.447 5.453-14.282 5.453-19.729 0z" opacity="1" data-original="#cacee6" class=""></path><path fill="#000000" d="m341.366 175.935-19.716-19.738c-5.442-5.448-5.442-14.277 0-19.725 5.447-5.453 14.282-5.453 19.729 0l19.716 19.738c5.442 5.448 5.442 14.277 0 19.725-5.448 5.453-14.282 5.453-19.729 0z" opacity="1" data-original="#e6e8f7" class=""></path><path fill="#000000" d="m361.081 156.197-19.716-19.738c-5.442-5.448-5.442-14.277 0-19.725 5.447-5.453 14.282-5.453 19.729 0l19.716 19.738c5.442 5.448 5.442 14.277 0 19.725-5.447 5.453-14.282 5.453-19.729 0z" opacity="1" data-original="#cacee6" class=""></path><path fill="#000000" d="m341.379 175.948-19.716-19.738c-.055-.055-.116-.101-.171-.155l5.387 5.393c5.443 5.449 5.443 14.276 0 19.725-5.391 5.397-14.1 5.443-19.558.154l14.329 14.346c5.446 5.452 14.282 5.452 19.729 0 5.442-5.449 5.442-14.277 0-19.725z" opacity="1" data-original="#bfc4e0" class=""></path><path fill="#000000" d="m361.094 156.209-19.716-19.738c-.055-.055-.115-.101-.171-.155l5.387 5.393c5.443 5.449 5.443 14.276 0 19.725-5.391 5.397-14.1 5.443-19.558.155l14.329 14.345c5.446 5.452 14.282 5.452 19.729 0 5.443-5.448 5.443-14.276 0-19.725z" opacity="1" data-original="#dadcf0" class=""></path><path fill="#000000" d="m380.81 136.471-19.716-19.738c-.055-.055-.115-.101-.17-.155l5.386 5.393c5.443 5.449 5.443 14.276 0 19.725-5.391 5.397-14.1 5.443-19.558.154l14.33 14.346c5.446 5.452 14.282 5.452 19.729 0 5.442-5.448 5.442-14.276-.001-19.725z" opacity="1" data-original="#bfc4e0" class=""></path></g></svg>