<?xml version="1.0" encoding="UTF-8"?>
<svg xmlns="http://www.w3.org/2000/svg" viewBox="0 0 64 64" width="512" height="512"><g id="Layer_14" data-name="Layer 14"><path d="M49.04,3.454l2.587,2.587L49.2,8.781l-2.6-2.6ZM36.414,6,39,3.414,41.586,6,39,8.586ZM28.665,32,26,35.021V32Zm-4.071-2,1.871-2H31v1.354L30.43,30ZM31,26H28.336L31,23.152Zm2-4.986,2-2.138V24.82l-2,2.267ZM8.918,59.79a2.083,2.083,0,0,1-3.14.794L4.062,59.3a2.658,2.658,0,0,1-.568-3.669A243.121,243.121,0,0,1,20,35.014V41.96A85.335,85.335,0,0,0,8.918,59.79Zm13.5-20.709c-.142.161-.277.329-.418.491V32.8q.369-.4.739-.8H24v5.288ZM37,22.553V16.738l2.573-2.751,2.648,2.648ZM53.119,28.64,53,28.674v-.6a17.953,17.953,0,0,0-5.293-12.778,1,1,0,0,0-1.414,0L45,16.586,39.414,11,44,6.414,60.725,23.14A13.721,13.721,0,0,1,53.119,28.64Z"/></g></svg>
