<svg id="_x33_0" enable-background="new 0 0 64 64" height="512" viewBox="0 0 64 64" width="512" xmlns="http://www.w3.org/2000/svg"><g><path d="m6.015 47.964h14.971v5.071h-14.971z" transform="matrix(.707 -.707 .707 .707 -31.755 24.337)"/><path d="m3.742 56.672c-.478.478-.742 1.115-.742 1.793 0 1.397 1.138 2.535 2.535 2.535.678 0 1.314-.264 1.793-.742l1.258-1.258-3.586-3.586z"/><path d="m17.297 38.055c-1.54-1.539-3.672-2.268-5.864-1.999-1.184.146-2.395.664-3.502 1.496-1.947 1.465-3.249 3.416-3.709 5.528-.547 2.506-.075 5.047 1.328 7.154l.727 1.074 1.436-1.436-.5-.75c-.793-1.188-1.213-2.579-1.213-4.02 0-2.278 1.061-4.397 2.836-5.729l.498-.374c.858-.644 1.924-.999 3-.999h.005c1.32.001 2.613.537 3.547 1.472l7.216 7.216c1.495 1.495 3.46 2.36 5.515 2.483-1.206-1.111-2.71-2.507-3.323-3.12z"/><path d="m55.879 5.535-28.946 28.946c1.028.677 1.909 1.558 2.586 2.586l28.946-28.946c1.381-1.382 2.238-3.147 2.471-5.057-1.91.233-3.675 1.09-5.057 2.471z"/><path d="m22 35c-1.379 0-2.705.405-3.838 1.15.186.159.374.315.549.49l7.996 7.996c.256.256.684.663 1.184 1.133.717-1.12 1.109-2.424 1.109-3.769 0-3.859-3.141-7-7-7z"/></g></svg>