<svg id="Capa_1" enable-background="new 0 0 512 512" height="512" viewBox="0 0 512 512" width="512" xmlns="http://www.w3.org/2000/svg"><g><path d="m496.791 148.641c.067.001.133.002.199.002 5.671-.001 10.777-3.124 13.358-8.189 2.611-5.125 2.097-11.172-1.343-15.781l-30.313-40.62 16.277-48.001c1.847-5.446.468-11.356-3.599-15.423-4.067-4.065-9.977-5.446-15.424-3.599l-48 16.276-40.619-30.312c-4.609-3.439-10.655-3.954-15.781-1.344-5.125 2.611-8.263 7.806-8.189 13.557l.648 50.681-41.382 29.265c-4.695 3.321-7.054 8.913-6.154 14.594s4.87 10.27 10.363 11.978l48.4 15.044 15.045 48.4c1.708 5.492 6.297 9.463 11.978 10.362.801.127 1.599.189 2.39.189 4.821 0 9.351-2.31 12.204-6.344l29.265-41.381z"/><path d="m189.099 301.688c-5.858-5.858-15.355-5.858-21.213 0l-159.099 159.099c-11.716 11.716-11.716 30.711 0 42.426 11.716 11.716 30.711 11.716 42.426 0l159.099-159.099c5.858-5.858 5.858-15.355 0-21.213z"/><path d="m351.265 160.734-16.182-5.029-124.77 124.77 21.212 21.213 124.771-124.771z"/><path d="m497 320h-15v-15c0-8.284-6.716-15-15-15s-15 6.716-15 15v15h-15c-8.284 0-15 6.716-15 15s6.716 15 15 15h15v15c0 8.284 6.716 15 15 15s15-6.716 15-15v-15h15c8.284 0 15-6.716 15-15s-6.716-15-15-15z"/><path d="m146 170c-8.284 0-15 6.716-15 15s6.716 15 15 15h15v15c0 8.284 6.716 15 15 15s15-6.716 15-15v-15h15c8.284 0 15-6.716 15-15s-6.716-15-15-15h-15v-15c0-8.284-6.716-15-15-15s-15 6.716-15 15v15z"/><path d="m216 60h15v15c0 8.284 6.716 15 15 15s15-6.716 15-15v-15h15c8.284 0 15-6.716 15-15s-6.716-15-15-15h-15v-15c0-8.284-6.716-15-15-15s-15 6.716-15 15v15h-15c-8.284 0-15 6.716-15 15s6.716 15 15 15z"/><circle cx="347" cy="320" r="15"/><circle cx="467" cy="240" r="15"/><circle cx="141" cy="90" r="15"/></g></svg>