<?xml version="1.0" encoding="iso-8859-1"?>
<!-- Generator: Adobe Illustrator 19.0.0, SVG Export Plug-In . SVG Version: 6.00 Build 0)  -->
<svg version="1.1" id="Capa_1" xmlns="http://www.w3.org/2000/svg" xmlns:xlink="http://www.w3.org/1999/xlink" x="0px" y="0px"
	 viewBox="0 0 511.999 511.999" style="enable-background:new 0 0 511.999 511.999;" xml:space="preserve">
<g>
	<g>
		<path d="M499.411,205.162c-36.085,2.034-73.315-6.831-105.368-26.376c1.445-5.086,0.386-10.734-3.174-14.988l17.212-17.212
			c6.984-6.985,6.984-18.352,0-25.337l-17.33-17.329c-7.001-7.004-18.335-7.004-25.338,0l-17.212,17.212
			c-4.255-3.56-9.902-4.619-14.988-3.175c-19.245-31.549-28.442-68.717-26.376-105.367c0.415-7.384-5.93-13.332-13.245-12.513
			C201.921,10.299,129.549,82.525,119.306,174.36c-0.817,7.328,5.135,13.659,12.514,13.245
			c35.681-2.012,72.959,6.613,105.368,26.376c-1.445,5.086-0.386,10.734,3.174,14.988L5.238,464.09
			c-6.985,6.985-6.985,18.353,0,25.339l17.33,17.33c6.987,6.984,18.351,6.985,25.339,0L157.07,397.596
			c2.929-2.93,2.929-7.679,0-10.608c-2.932-2.929-7.681-2.927-10.608,0l-45.37,45.37l-21.453-21.453l111.858-111.858l21.453,21.453
			l-41.737,41.737c-2.929,2.93-2.929,7.679,0,10.608c2.93,2.928,7.679,2.928,10.608,0l101.208-101.207
			c4.037,3.377,9.592,4.707,14.988,3.174c19.283,31.623,28.438,68.785,26.376,105.37c-0.412,7.36,5.907,13.331,13.245,12.511
			c91.669-10.225,164.041-82.447,174.286-174.286C512.745,211.046,506.744,204.737,499.411,205.162z M90.485,442.967L37.3,496.152
			c-1.138,1.138-2.986,1.136-4.122,0l-17.33-17.33c-1.137-1.137-1.137-2.985,0-4.122l53.185-53.185L90.485,442.967z
			 M376.021,114.525c0.742-0.743,1.61-0.854,2.061-0.854s1.318,0.111,2.061,0.854l17.33,17.329c1.137,1.137,1.137,2.987,0,4.124
			l-17.159,17.159l-21.453-21.453L376.021,114.525z M134.647,172.456C145.339,90.721,209.75,26.137,291.688,15.415
			c-0.3,8.022-0.095,16.045,0.583,24.02c-69.077,10.273-123.334,64.567-133.603,133.599
			C150.838,172.368,142.873,172.149,134.647,172.456z M173.564,174.817c9.439-62.187,58.327-111.052,120.485-120.486
			c4.108,25.528,13.304,50.348,27.134,72.731l-74.888,74.889C224.663,188.523,199.677,179.02,173.564,174.817z M223.558,309.894
			l-21.453-21.453l48.813-48.812l21.453,21.454L223.558,309.894z M295.166,259.37l-0.681,0.681c-0.33,0.331-0.707,0.4-0.966,0.4
			c-0.258,0-0.635-0.069-0.965-0.4c-4.834-4.834-35.731-35.731-40.607-40.607c-0.532-0.532-0.532-1.399,0-1.931l0.681-0.681
			c0.051-0.051,83.394-83.393,83.444-83.445c0.535-0.535,0.906-1.071,1.638-1.071c0.35,0,0.7,0.133,0.966,0.399
			c4.844,4.844,35.769,35.769,40.606,40.606h0.001c0.532,0.532,0.532,1.399-0.001,1.932
			C372.988,181.548,298.523,256.013,295.166,259.37z M339.543,377.352c0.3-8.026,0.095-16.053-0.584-24.032
			c27.257-4.032,52.918-15.031,74.607-32.087c3.256-2.561,3.819-7.276,1.259-10.533c-2.56-3.255-7.275-3.818-10.533-1.259
			c-19.517,15.35-42.589,25.298-67.109,28.998c-4.219-26.226-13.798-51.236-27.133-72.734l74.888-74.889
			c21.204,13.16,46.14,22.855,72.736,27.134c-3.76,24.94-13.965,48.338-29.741,68.059c-2.588,3.234-2.063,7.955,1.171,10.543
			c3.233,2.587,7.955,2.063,10.543-1.171c17.529-21.912,28.811-47.936,32.908-75.655c7.978,0.679,16.005,0.885,24.032,0.585
			C485.89,302.028,421.502,366.63,339.543,377.352z"/>
	</g>
</g>
<g>
</g>
<g>
</g>
<g>
</g>
<g>
</g>
<g>
</g>
<g>
</g>
<g>
</g>
<g>
</g>
<g>
</g>
<g>
</g>
<g>
</g>
<g>
</g>
<g>
</g>
<g>
</g>
<g>
</g>
</svg>
