<?xml version="1.0" encoding="utf-8"?>
<svg xmlns="http://www.w3.org/2000/svg" viewBox="46.264 0 444.7 445.863" xmlns:bx="https://boxy-svg.com" width="444.7px" height="445.863px"><defs><bx:export><bx:file format="svg" href="#object-0"/><bx:file format="svg" path="Untitled 2.svg" excluded="true"/><bx:file format="svg" path="Untitled 3.svg"/></bx:export></defs><path d="M 393.015 50.774 L 377.015 34.774 C 375.515 33.274 373.484 32.43 371.359 32.43 L 347.359 32.43 C 342.937 32.43 339.359 36.008 339.359 40.43 L 339.359 56.43 L 291.359 56.43 C 291.359 52.008 287.781 48.43 283.359 48.43 L 259.359 48.43 L 259.359 32.43 C 259.359 28.008 255.781 24.43 251.359 24.43 L 219.359 24.43 C 214.941 24.43 211.359 28.008 211.359 32.43 L 211.359 48.43 L 187.359 48.43 C 182.941 48.43 179.359 52.008 179.359 56.43 L 131.359 56.43 L 131.359 40.43 C 131.359 36.008 127.777 32.43 123.359 32.43 L 99.359 32.43 C 97.238 32.43 95.202 33.274 93.702 34.774 L 77.702 50.774 C 76.202 52.274 75.359 54.305 75.359 56.43 L 75.359 184.43 C 75.359 186.555 76.202 188.587 77.702 190.087 L 93.702 206.087 C 95.202 207.587 97.238 208.43 99.359 208.43 L 123.359 208.43 C 127.777 208.43 131.359 204.852 131.359 200.43 L 131.359 184.43 L 179.359 184.43 C 179.359 188.852 182.941 192.43 187.359 192.43 L 211.359 192.43 L 211.359 432.43 L 203.359 432.43 C 198.941 432.43 195.359 436.008 195.359 440.43 L 195.359 480.43 C 195.359 484.852 198.941 488.43 203.359 488.43 L 267.359 488.43 C 271.781 488.43 275.359 484.852 275.359 480.43 L 275.359 440.43 C 275.359 436.008 271.781 432.43 267.359 432.43 L 259.359 432.43 L 259.359 192.43 L 283.359 192.43 C 287.781 192.43 291.359 188.852 291.359 184.43 L 339.359 184.43 L 339.359 200.43 C 339.359 204.852 342.937 208.43 347.359 208.43 L 371.359 208.43 C 373.484 208.43 375.515 207.587 377.015 206.087 L 393.015 190.087 C 394.515 188.587 395.359 186.555 395.359 184.43 L 395.359 56.43 C 395.359 54.305 394.515 52.274 393.015 50.774 Z M 227.359 40.43 L 243.359 40.43 L 243.359 48.43 L 227.359 48.43 L 227.359 40.43 Z M 115.359 192.43 L 102.671 192.43 L 91.359 181.118 L 91.359 59.743 L 102.671 48.43 L 115.359 48.43 L 115.359 192.43 Z M 131.359 168.43 L 131.359 72.43 L 179.359 72.43 L 179.359 168.43 L 131.359 168.43 Z M 227.359 315.743 L 243.359 331.743 L 243.359 389.118 L 227.359 373.118 L 227.359 315.743 Z M 243.359 309.118 L 227.359 293.118 L 227.359 235.743 L 243.359 251.743 L 243.359 309.118 Z M 259.359 472.43 L 211.359 472.43 L 211.359 448.43 L 259.359 448.43 L 259.359 472.43 Z M 227.359 432.43 L 227.359 395.743 L 243.359 411.743 L 243.359 432.43 L 227.359 432.43 Z M 243.359 229.118 L 227.359 213.118 L 227.359 192.43 L 243.359 192.43 L 243.359 229.118 Z M 251.359 176.43 L 195.359 176.43 L 195.359 64.43 L 275.359 64.43 L 275.359 176.43 L 251.359 176.43 Z M 291.359 168.43 L 291.359 72.43 L 339.359 72.43 L 339.359 168.43 L 291.359 168.43 Z M 379.359 181.118 L 368.046 192.43 L 355.359 192.43 L 355.359 48.43 L 368.046 48.43 L 379.359 59.743 L 379.359 181.118 Z M 379.359 181.118" style="stroke-width: 1px; transform-origin: 235.359px 256.43px 0px;" id="object-0" transform="matrix(0.707107, 0.707107, -0.707107, 0.707107, 0, 0)"/></svg>