<svg height="464pt" viewBox="-72 0 464 464" width="464pt" xmlns="http://www.w3.org/2000/svg"><path d="m317.65625 26.34375-16-16c-1.5-1.5-3.53125-2.34375-5.65625-2.34375h-24c-4.421875 0-8 3.578125-8 8v16h-48c0-4.421875-3.578125-8-8-8h-24v-16c0-4.421875-3.578125-8-8-8h-32c-4.417969 0-8 3.578125-8 8v16h-24c-4.417969 0-8 3.578125-8 8h-48v-16c0-4.421875-3.582031-8-8-8h-24c-2.121094 0-4.15625.84375-5.65625 2.34375l-16 16c-1.5 1.5-2.34375 3.53125-2.34375 5.65625v128c0 2.125.84375 4.15625 2.34375 5.65625l16 16c1.5 1.5 3.535156 2.34375 5.65625 2.34375h24c4.417969 0 8-3.578125 8-8v-16h48c0 4.421875 3.582031 8 8 8h24v240h-8c-4.417969 0-8 3.578125-8 8v40c0 4.421875 3.582031 8 8 8h64c4.421875 0 8-3.578125 8-8v-40c0-4.421875-3.578125-8-8-8h-8v-240h24c4.421875 0 8-3.578125 8-8h48v16c0 4.421875 3.578125 8 8 8h24c2.125 0 4.15625-.84375 5.65625-2.34375l16-16c1.5-1.5 2.34375-3.53125 2.34375-5.65625v-128c0-2.125-.84375-4.15625-2.34375-5.65625zm-165.65625-10.34375h16v8h-16zm-112 152h-12.6875l-11.3125-11.3125v-121.375l11.3125-11.3125h12.6875zm16-24v-96h48v96zm96 147.3125 16 16v57.375l-16-16zm16-6.625-16-16v-57.375l16 16zm16 163.3125h-48v-24h48zm-32-40v-36.6875l16 16v20.6875zm16-203.3125-16-16v-20.6875h16zm8-52.6875h-56v-112h80v112zm40-8v-96h48v96zm88 12.6875-11.3125 11.3125h-12.6875v-144h12.6875l11.3125 11.3125zm0 0"/></svg>