<?xml version="1.0" encoding="UTF-8"?>
<svg xmlns="http://www.w3.org/2000/svg" xmlns:xlink="http://www.w3.org/1999/xlink" version="1.1" id="Capa_1" x="0px" y="0px" viewBox="0 0 512.31 512.31" style="enable-background:new 0 0 512.31 512.31;" xml:space="preserve" width="512" height="512">
<polygon style="fill:none;stroke:#000000;stroke-width:30;stroke-miterlimit:10;" points="369.5,313.229 199.081,142.81 &#10;&#9;199.081,100.213 284.294,15 326.89,15 497.31,185.42 497.31,228.016 412.097,313.229 "/>
<polyline style="fill:none;stroke:#000000;stroke-width:30;stroke-miterlimit:10;" points="252.338,196.067 209.735,238.67 &#10;&#9;273.64,302.575 316.243,259.972 "/>
<line style="fill:none;stroke:#000000;stroke-width:30;stroke-miterlimit:10;" x1="348.195" y1="36.305" x2="220.386" y2="164.115"/>
<line style="fill:none;stroke:#000000;stroke-width:30;stroke-miterlimit:10;" x1="476.005" y1="164.115" x2="348.195" y2="291.924"/>
<polyline style="fill:none;stroke:#000000;stroke-width:30;stroke-miterlimit:10;" points="266.081,288.833 97.062,457.851 &#10;&#9;85.338,497.31 15,497.31 15,426.972 54.459,415.248 223.477,246.229 "/>
<line style="fill:none;stroke:#000000;stroke-width:30;stroke-miterlimit:10;" x1="54.459" y1="415.248" x2="97.062" y2="457.851"/>















</svg>
