<?xml version="1.0" encoding="UTF-8" standalone="no"?>
<!-- Created with Inkscape (http://www.inkscape.org/) -->

<svg
   version="1.1"
   id="svg4317"
   xml:space="preserve"
   width="682.66669"
   height="682.66669"
   viewBox="0 0 682.66669 682.66669"
   xmlns="http://www.w3.org/2000/svg"
   xmlns:svg="http://www.w3.org/2000/svg"><defs
     id="defs4321"><clipPath
       clipPathUnits="userSpaceOnUse"
       id="clipPath4331"><path
         d="M 0,512 H 512 V 0 H 0 Z"
         id="path4329" /></clipPath></defs><g
     id="g4323"
     transform="matrix(1.3333333,0,0,-1.3333333,0,682.66667)"><g
       id="g4325"><g
         id="g4327"
         clip-path="url(#clipPath4331)"><g
           id="g4333"
           transform="translate(181.2715,482.4932)"><path
             d="m 0,0 -42.033,-4.276 c -5.016,-0.51 -9.937,1.239 -13.5,4.798 l -15.704,15.685 c -6.949,6.939 -18.214,6.939 -25.162,0 -6.949,-6.94 -6.949,-18.192 0,-25.132 l 15.703,-15.683 c 11.159,-11.146 26.564,-16.622 42.267,-15.027 l 76.4,7.773 c 45.917,4.671 90.969,-11.345 123.605,-43.942 l 64.318,-64.236 c 32.636,-32.597 48.671,-77.594 43.995,-123.453 l -7.782,-76.307 c -1.598,-15.681 3.885,-31.068 15.044,-42.214 l 15.703,-15.684 c 6.949,-6.94 18.214,-6.94 25.164,0 6.948,6.94 6.948,18.191 0,25.132 l -15.705,15.683 c -3.563,3.56 -5.315,8.475 -4.803,13.484 l 7.781,76.304 c 5.766,56.533 -14.003,112.004 -54.235,152.186 l -64.317,64.237 C 147.748,-11.729 94.379,8.017 39.598,3.955"
             style="fill:none;stroke:#060606;stroke-width:15;stroke-linecap:round;stroke-linejoin:round;stroke-miterlimit:10;stroke-dasharray:none;stroke-opacity:1"
             id="path4335" /></g><g
           id="g4337"
           transform="translate(104.8857,61.0879)"><path
             d="m 0,0 178.034,142.652 c -15.846,37.688 29.426,85.819 71.477,71.389 l 59.838,59.764 -78.955,78.858 -59.838,-59.764 c 14.447,-42 -33.744,-87.214 -71.478,-71.388 L -92.412,-16.884 c -7.216,-8.983 -6.506,-21.958 1.647,-30.1 8.141,-8.131 21.096,-8.84 30.075,-1.645 l 29.805,23.882"
             style="fill:none;stroke:#060606;stroke-width:15;stroke-linecap:round;stroke-linejoin:round;stroke-miterlimit:10;stroke-dasharray:none;stroke-opacity:1"
             id="path4339" /></g><g
           id="g4341"
           transform="translate(120.7031,120.4307)"><path
             d="M 0,0 V 0 C -14.729,14.711 -16.037,38.128 -3.037,54.385 L 33.475,100.043 45.636,45.731 99.997,33.462 54.522,-2.978 C 38.248,-16.019 14.754,-14.735 0,0 Z"
             style="fill:none;stroke:#060606;stroke-width:15;stroke-linecap:round;stroke-linejoin:round;stroke-miterlimit:10;stroke-dasharray:none;stroke-opacity:1"
             id="path4343" /></g><g
           id="g4345"
           transform="translate(100.5752,457.8848)"><path
             d="m 0,0 65.764,-291.723 292.084,-65.682"
             style="fill:none;stroke:#060606;stroke-width:15;stroke-linecap:round;stroke-linejoin:round;stroke-miterlimit:10;stroke-dasharray:none;stroke-opacity:1"
             id="path4347" /></g><g
           id="g4349"
           transform="translate(441.041,440.959)"><path
             d="M 0,0 -271.806,-271.904"
             style="fill:none;stroke:#060606;stroke-width:15;stroke-linecap:round;stroke-linejoin:round;stroke-miterlimit:10;stroke-dasharray:none;stroke-opacity:1"
             id="path4351" /></g><g
           id="g4353"
           transform="translate(504.5,504.4121)"><path
             d="m 0,0 -24.91,-50.508 -24.91,-50.509 -10.7,40.573 -40.622,10.685 50.572,24.879 z"
             style="fill:none;stroke:#060606;stroke-width:15;stroke-linecap:round;stroke-linejoin:round;stroke-miterlimit:10;stroke-dasharray:none;stroke-opacity:1"
             id="path4355" /></g></g></g></g></svg>
