<?xml version="1.0" encoding="iso-8859-1"?>
<!-- Generator: Adobe Illustrator 19.0.0, SVG Export Plug-In . SVG Version: 6.00 Build 0)  -->
<svg version="1.1" id="Capa_1" xmlns="http://www.w3.org/2000/svg" xmlns:xlink="http://www.w3.org/1999/xlink" x="0px" y="0px"
	 viewBox="0 0 512 512" style="enable-background:new 0 0 512 512;" xml:space="preserve">
<g>
	<g>
		<path d="M512,10.697c0-5.385-4.021-9.926-9.354-10.583c-5.854-0.812-10.354,2.781-11.667,8
			c-6.333,25.373-86.917,60.725-142.125,77.714c-4.458,1.385-7.521,5.521-7.521,10.197c0,53.985-108.432,164.502-205.259,246.393
			c-4.999-10.014-8.074-21.142-8.074-33.072c0-5.895-4.771-10.666-10.667-10.666H74.667C68.771,298.68,64,303.45,64,309.346
			c0,28.086,8.452,54.21,22.865,76.072l-48.66,41.706C16.802,429.391,0,447.335,0,469.336C0,492.866,19.146,512,42.667,512
			c21.686,0,39.453-16.324,42.125-37.302l51.168-43.859c19.807,10.919,42.536,17.166,66.707,17.166
			c5.896,0,10.667-4.771,10.667-10.666v-42.664c0-5.895-4.771-10.666-10.667-10.666c-2.555,0-4.971-0.503-7.461-0.754
			C508.137,199.618,512,18.492,512,10.697z M42.667,490.667c-11.771,0-21.333-9.573-21.333-21.333
			c0-11.76,9.563-21.333,21.333-21.333C54.438,448,64,457.573,64,469.333C64,481.094,54.438,490.667,42.667,490.667z
			 M80.598,450.208c-3.674-7.253-9.294-13.273-16.251-17.418l35.664-30.569c5.37,5.928,11.208,11.398,17.52,16.329L80.598,450.208z
			 M192,426.188C135.792,421.104,90.896,376.208,85.813,320h21.438c4.938,44.427,40.312,79.813,84.75,84.74V426.188z
			 M167.328,374.695c-7.126-3.871-13.59-8.706-19.082-14.59c57.451-48.513,203.911-178.979,213.879-256.116
			c24.854-8,85.375-29.198,121.625-56.26C465.716,110.174,400.632,242.499,167.328,374.695z"/>
	</g>
</g>
<g>
</g>
<g>
</g>
<g>
</g>
<g>
</g>
<g>
</g>
<g>
</g>
<g>
</g>
<g>
</g>
<g>
</g>
<g>
</g>
<g>
</g>
<g>
</g>
<g>
</g>
<g>
</g>
<g>
</g>
</svg>
