<?xml version="1.0"?>
<svg xmlns="http://www.w3.org/2000/svg" id="Icons" viewBox="0 0 60 60"><path d="M56.817.007a1.863,1.863,0,0,0-1.746.875C53.644,3.214,50.42,7.183,44.9,7.564a1.866,1.866,0,0,0-1.683,1.209c-.8,2.215-4.138,10.073-13.771,18.186A123.94,123.94,0,0,1,16.768,36.6L13.6,33.589a4.392,4.392,0,0,0-1.009-2.738A4.418,4.418,0,1,0,8.9,38.065l3.056,3.628A48.463,48.463,0,0,0,3.22,51.346a4.422,4.422,0,0,0-1.647.852,4.426,4.426,0,0,0-.529,6.226,4.369,4.369,0,0,0,3.011,1.56c.124.011.247.016.37.016a4.32,4.32,0,0,0,2.828-1.044,4.334,4.334,0,0,0,1.554-3.773A79.5,79.5,0,0,1,16.761,47.4l3.022,3.588c0,.033-.016.064-.018.1a4.421,4.421,0,0,0,7.251,3.752,4.374,4.374,0,0,0-1.979-7.673L22.85,43.885c5.627-2.167,17.353-7.3,27.3-15.663C63.1,17.312,60.231,5.674,58.4,1.181A1.876,1.876,0,0,0,56.817.007ZM6.805,33.487a2.416,2.416,0,1,1,3.967,2.056,2.45,2.45,0,0,1-3.416-.292A2.384,2.384,0,0,1,6.805,33.487ZM5.959,57.428a2.413,2.413,0,0,1-3.1-3.7,2.468,2.468,0,0,1,3.41.284A2.441,2.441,0,0,1,5.959,57.428Zm2.064-4.371c-.077-.109-.139-.226-.226-.329l0-.007A4.367,4.367,0,0,0,5.65,51.348a49.006,49.006,0,0,1,7.6-8.126l2.226,2.644A84.624,84.624,0,0,0,8.023,53.057Zm3.134-15.419a4.409,4.409,0,0,0,.9-.564,4.36,4.36,0,0,0,1-1.24l4.36,4.136a14.173,14.173,0,0,1,1.972,2.33l3.341,5a4.413,4.413,0,0,0-1.405.773,4.481,4.481,0,0,0-.714.784ZM25.727,53.3a2.418,2.418,0,0,1-3.121-3.694,2.481,2.481,0,0,1,3.416.29A2.427,2.427,0,0,1,25.727,53.3ZM48.858,26.691c-9.979,8.4-21.821,13.468-27.147,15.488l-.666-1a16.151,16.151,0,0,0-2.255-2.665l-.528-.5A131.059,131.059,0,0,0,30.73,28.489c9.876-8.317,13.428-16.474,14.327-18.932C51.3,9.1,54.95,4.822,56.634,2.155,58.3,6.4,60.6,16.806,48.858,26.691Z"/></svg>
