<?xml version="1.0" encoding="UTF-8" standalone="no"?>
<!-- Created with Inkscape (http://www.inkscape.org/) -->

<svg
   version="1.1"
   id="svg2805"
   xml:space="preserve"
   width="682.66669"
   height="682.66669"
   viewBox="0 0 682.66669 682.66669"
   xmlns="http://www.w3.org/2000/svg"
   xmlns:svg="http://www.w3.org/2000/svg"><defs
     id="defs2809"><clipPath
       clipPathUnits="userSpaceOnUse"
       id="clipPath2819"><path
         d="M 0,512 H 512 V 0 H 0 Z"
         id="path2817" /></clipPath></defs><g
     id="g2811"
     transform="matrix(1.3333333,0,0,-1.3333333,0,682.66667)"><g
       id="g2813"><g
         id="g2815"
         clip-path="url(#clipPath2819)"><g
           id="g2821"
           transform="translate(245.6899,285.4312)"><path
             d="m 0,0 c -22.167,-20.235 -72.658,-64.923 -123.799,-100.459 -57.928,-40.251 -111.768,-177.472 -111.768,-177.472 0,0 42.179,16.554 86.626,41.174"
             style="fill:none;stroke:#000000;stroke-width:15;stroke-linecap:round;stroke-linejoin:round;stroke-miterlimit:10;stroke-dasharray:none;stroke-opacity:1"
             id="path2823" /></g><g
           id="g2825"
           transform="translate(121.8545,63.3965)"><path
             d="m 0,0 c 26.999,16.833 52.011,36.114 65.74,55.872 35.537,51.143 80.228,101.637 100.462,123.802"
             style="fill:none;stroke:#000000;stroke-width:15;stroke-linecap:round;stroke-linejoin:round;stroke-miterlimit:10;stroke-dasharray:none;stroke-opacity:1"
             id="path2827" /></g><g
           id="g2829"
           transform="translate(231.8291,229.2065)"><path
             d="M 0,0 -215.196,-215.196"
             style="fill:none;stroke:#000000;stroke-width:15;stroke-linecap:round;stroke-linejoin:round;stroke-miterlimit:10;stroke-dasharray:none;stroke-opacity:1"
             id="path2831" /></g><g
           id="g2833"
           transform="translate(215.0273,249.5811)"><path
             d="M 0,0 38.495,-38.495"
             style="fill:none;stroke:#000000;stroke-width:15;stroke-linecap:round;stroke-linejoin:round;stroke-miterlimit:10;stroke-dasharray:none;stroke-opacity:1"
             id="path2835" /></g><g
           id="g2837"
           transform="translate(261.1724,311.3975)"><path
             d="m 0,0 c -3.24,-3.067 -7.38,-6.936 -11.302,-10.457 -5.371,-4.822 -5.6,-13.171 -0.495,-18.276 l 5.602,-5.601"
             style="fill:none;stroke:#000000;stroke-width:15;stroke-linecap:round;stroke-linejoin:round;stroke-miterlimit:10;stroke-dasharray:none;stroke-opacity:1"
             id="path2839" /></g><g
           id="g2841"
           transform="translate(275.5542,256.4854)"><path
             d="m 0,0 9.733,-9.732 c 5.104,-5.105 13.454,-4.877 18.276,0.495 3.458,3.852 7.253,7.915 10.293,11.128"
             style="fill:none;stroke:#000000;stroke-width:15;stroke-linecap:round;stroke-linejoin:round;stroke-miterlimit:10;stroke-dasharray:none;stroke-opacity:1"
             id="path2843" /></g><g
           id="g2845"
           transform="translate(463.146,435.4502)"><path
             d="m 0,0 c -6.828,-20.065 -26.21,-48.243 -53.302,-75.334 -24.847,-24.848 -50.608,-43.21 -70.185,-51.35"
             style="fill:none;stroke:#000000;stroke-width:15;stroke-linecap:round;stroke-linejoin:round;stroke-miterlimit:10;stroke-dasharray:none;stroke-opacity:1"
             id="path2847" /></g><g
           id="g2849"
           transform="translate(311.5918,337.5195)"><path
             d="m 0,0 c 8.239,19.518 26.503,45.059 51.146,69.702 27.041,27.04 55.162,46.4 75.22,53.263"
             style="fill:none;stroke:#000000;stroke-width:15;stroke-linecap:round;stroke-linejoin:round;stroke-miterlimit:10;stroke-dasharray:none;stroke-opacity:1"
             id="path2851" /></g><g
           id="g2853"
           transform="translate(492.7705,446.1763)"><path
             d="m 0,0 c -12.143,-12.143 -31.83,-12.143 -43.972,0 -12.142,12.143 -12.142,31.83 0,43.972 12.142,12.142 31.829,12.142 43.972,0 C 12.143,31.83 12.143,12.143 0,0 Z"
             style="fill:none;stroke:#000000;stroke-width:15;stroke-linecap:round;stroke-linejoin:round;stroke-miterlimit:10;stroke-dasharray:none;stroke-opacity:1"
             id="path2855" /></g><g
           id="g2857"
           transform="translate(371.1201,279.4561)"><path
             d="m 0,0 c -7.831,3.98 -16.979,6.726 -23.082,8.041 -4.562,0.982 -7.816,5.019 -7.812,9.685 h 10e-4 c 0.006,5.952 -2.355,11.663 -6.564,15.872 l -17.987,17.986 c -4.209,4.209 -9.919,6.571 -15.872,6.564 -4.666,-0.005 -8.702,3.25 -9.685,7.812 -2.004,9.303 -7.313,25.702 -15.295,33.685 l -0.017,-0.017 c -20.363,23.2 -38.715,14.804 -48.55,4.969 -10.054,-10.054 -10.054,-26.354 0,-36.408 6.997,-6.997 17.019,-9.118 25.857,-6.375 0.862,-2.734 1.602,-5.603 2.17,-8.59 1.762,-9.269 6.155,-17.836 12.827,-24.508 l 43.683,-43.684 c 6.672,-6.672 15.239,-11.064 24.509,-12.826 2.987,-0.568 5.855,-1.309 8.589,-2.171 -2.743,-8.837 -0.622,-18.859 6.376,-25.856 10.053,-10.054 26.353,-10.054 36.407,0 7.759,7.759 14.61,20.821 5.768,35.989"
             style="fill:none;stroke:#000000;stroke-width:15;stroke-linecap:round;stroke-linejoin:round;stroke-miterlimit:10;stroke-dasharray:none;stroke-opacity:1"
             id="path2859" /></g><g
           id="g2861"
           transform="translate(460.0156,504.5)"><path
             d="M 0,0 C -0.784,-11.162 1.737,-37.675 35.935,-66.3"
             style="fill:none;stroke:#000000;stroke-width:15;stroke-linecap:round;stroke-linejoin:round;stroke-miterlimit:10;stroke-dasharray:none;stroke-opacity:1"
             id="path2863" /></g><g
           id="g2865"
           transform="translate(395.2339,445.7817)"><path
             d="M 0,0 C 0,0 28.412,-28.412 62.171,-38.105"
             style="fill:none;stroke:#000000;stroke-width:15;stroke-linecap:round;stroke-linejoin:round;stroke-miterlimit:10;stroke-dasharray:none;stroke-opacity:1"
             id="path2867" /></g><g
           id="g2869"
           transform="translate(369.2905,419.8384)"><path
             d="M 0,0 C 0,0 29.359,-29.358 63.843,-39.776"
             style="fill:none;stroke:#000000;stroke-width:15;stroke-linecap:round;stroke-linejoin:round;stroke-miterlimit:10;stroke-dasharray:none;stroke-opacity:1"
             id="path2871" /></g><g
           id="g2873"
           transform="translate(343.3018,395.5215)"><path
             d="M 0,0 C 0,0 30.59,-30.59 66.016,-41.949"
             style="fill:none;stroke:#000000;stroke-width:15;stroke-linecap:round;stroke-linejoin:round;stroke-miterlimit:10;stroke-dasharray:none;stroke-opacity:1"
             id="path2875" /></g><g
           id="g2877"
           transform="translate(319.668,367.6626)"><path
             d="M 0,0 C 0,0 28.635,-28.635 62.566,-38.5"
             style="fill:none;stroke:#000000;stroke-width:15;stroke-linecap:round;stroke-linejoin:round;stroke-miterlimit:10;stroke-dasharray:none;stroke-opacity:1"
             id="path2879" /></g><g
           id="g2881"
           transform="translate(346.1265,249.0352)"><path
             d="M 0,0 9.348,-1.949"
             style="fill:none;stroke:#000000;stroke-width:15;stroke-linecap:round;stroke-linejoin:round;stroke-miterlimit:10;stroke-dasharray:none;stroke-opacity:1"
             id="path2883" /></g><g
           id="g2885"
           transform="translate(251.6885,343.3564)"><path
             d="M 0,0 -1.98,9.496"
             style="fill:none;stroke:#000000;stroke-width:15;stroke-linecap:round;stroke-linejoin:round;stroke-miterlimit:10;stroke-dasharray:none;stroke-opacity:1"
             id="path2887" /></g><g
           id="g2889"
           transform="translate(320.9634,319.2007)"><path
             d="M 0,0 -28.579,-28.579"
             style="fill:none;stroke:#000000;stroke-width:15;stroke-linecap:round;stroke-linejoin:round;stroke-miterlimit:10;stroke-dasharray:none;stroke-opacity:1"
             id="path2891" /></g><g
           id="g2893"
           transform="translate(348.0493,287.4858)"><path
             d="M 0,0 C 0,0 -18.27,-0.165 -35.317,-17.212"
             style="fill:none;stroke:#000000;stroke-width:15;stroke-linecap:round;stroke-linejoin:round;stroke-miterlimit:10;stroke-dasharray:none;stroke-opacity:1"
             id="path2895" /></g><g
           id="g2897"
           transform="translate(290.1084,345.4272)"><path
             d="M 0,0 C 0,0 -0.165,-18.27 -17.212,-35.317"
             style="fill:none;stroke:#000000;stroke-width:15;stroke-linecap:round;stroke-linejoin:round;stroke-miterlimit:10;stroke-dasharray:none;stroke-opacity:1"
             id="path2899" /></g></g></g></g></svg>
