<svg id="icons" height="512" viewBox="0 0 60 60" width="512" xmlns="http://www.w3.org/2000/svg"><path d="m57.71 0h-7.29a2.3 2.3 0 0 0 -1.655.713l-31.357 33.107-4.071-4.071a2.342 2.342 0 0 0 -3.861.915l-.576 1.736a3.051 3.051 0 0 0 .737 3.141l4.224 4.214a126.885 126.885 0 0 0 -8.673 10.11l-.851-.853a2.163 2.163 0 0 0 -3.392.409 7 7 0 0 0 1.145 8.497 7.118 7.118 0 0 0 5.015 2.082 6.828 6.828 0 0 0 3.476-.945h.006a2.123 2.123 0 0 0 1.02-1.571 2.175 2.175 0 0 0 -.627-1.815l-.851-.853a126.681 126.681 0 0 0 10.115-8.677l4.218 4.219a3.105 3.105 0 0 0 2.185.9 3 3 0 0 0 .953-.158l1.728-.577a2.339 2.339 0 0 0 .917-3.864l-4.06-4.059 33.108-31.37a2.3 2.3 0 0 0 .707-1.65v-7.29a2.292 2.292 0 0 0 -2.29-2.29zm-48.149 57.337a5.007 5.007 0 0 1 -6.061-.837 4.991 4.991 0 0 1 -.838-6.056.147.147 0 0 1 .112-.073h.026a.171.171 0 0 1 .124.054l6.64 6.655a.186.186 0 0 1 .059.157.127.127 0 0 1 -.062.1zm-2.947-6.043c2.967-3.887 5.885-7.155 7.655-9.055v.579a2.919 2.919 0 0 0 2.917 2.916h.572c-1.9 1.77-5.169 4.687-9.054 7.654zm22.3-2.908a.331.331 0 0 1 -.224.245l-1.725.575a1.082 1.082 0 0 1 -1.093-.264l-4.914-4.915a1 1 0 0 0 -.707-.293h-3.065a.917.917 0 0 1 -.917-.916v-3.069a1 1 0 0 0 -.294-.708l-4.925-4.913a1.077 1.077 0 0 1 -.252-1.095l.573-1.731a.329.329 0 0 1 .242-.217.4.4 0 0 1 .086-.01.32.32 0 0 1 .23.094l16.9 16.9a.331.331 0 0 1 .088.317zm29.086-38.806a.3.3 0 0 1 -.088.2l-33.141 31.4-2.27-2.27 28.876-28.873a1 1 0 0 0 -1.414-1.414l-28.876 28.877-2.265-2.265 31.389-33.141a.3.3 0 0 1 .209-.094h7.29a.294.294 0 0 1 .29.29z"/></svg>