<svg id="Capa_1" enable-background="new 0 0 512 512" height="512" viewBox="0 0 512 512" width="512" xmlns="http://www.w3.org/2000/svg"><g><path d="m489.806 451.96c-2.559-1.683-5.631-2.251-8.561-1.646v-12.244c0-67.259-4.609-135.116-13.701-201.794.652-.255 1.303-.514 1.953-.777 4.939-2.003 8.13-6.72 8.13-12.017v-15.919c0-4.25-2.088-8.232-5.584-10.652-3.048-2.109-6.829-2.793-10.378-1.934-.218-2.734-.329-5.478-.329-8.211 0-1.297.489-2.536 1.344-3.401 15.782-15.992 24.474-37.173 24.474-59.642v-90.407c0-11.536-9.385-20.92-20.92-20.92h-11.84c-2.534 0-4.965.453-7.215 1.282-2.954-7.977-10.639-13.678-19.63-13.678h-11.885c-5.104 0-9.786 1.837-13.421 4.884-3.636-3.047-8.318-4.884-13.422-4.884h-11.865c-5.103 0-9.785 1.837-13.42 4.883-3.634-3.046-8.316-4.883-13.419-4.883h-11.913c-11.534 0-20.917 9.384-20.917 20.894l-.026 8.4-18.719 12.481c-12.536 8.357-20.02 22.341-20.02 37.407v24.852c0 14.672 5.713 28.466 16.089 38.841l13.325 13.324c2.926 2.926 7.675 2.929 10.605-.001 2.928-2.928 2.928-7.677-.001-10.605l-13.324-13.324c-7.542-7.541-11.696-17.569-11.696-28.235v-24.852c0-10.04 4.988-19.358 13.341-24.928l10.387-6.925v55.873c0 4.142 3.357 7.499 7.499 7.499s7.499-3.357 7.499-7.499c0-81.91-.013-65.855.039-82.284 0-3.264 2.655-5.919 5.919-5.919h11.913c3.264 0 5.919 2.655 5.919 5.922v41.792c0 4.142 3.357 7.499 7.499 7.499s7.499-3.357 7.499-7.499v-41.793c0-3.265 2.657-5.922 5.922-5.922h11.865c3.265 0 5.922 2.657 5.922 5.922v41.321c0 4.142 3.357 7.499 7.499 7.499s7.499-3.357 7.499-7.499v-41.321c0-3.265 2.657-5.922 5.922-5.922h11.885c3.266 0 5.923 2.657 5.923 5.922v41.792c0 4.142 3.357 7.499 7.499 7.499s7.499-3.357 7.499-7.499v-29.396c0-3.265 2.657-5.922 5.922-5.922h11.84c3.265 0 5.922 2.657 5.922 5.922v90.405c0 18.5-7.156 35.94-20.149 49.106-3.655 3.703-5.668 8.652-5.668 13.938 0 4.326.241 8.674.718 12.987-29.315 8.286-60.243 8.092-89.431-.547l.215-1.521c1.009-7.239-1.537-14.325-6.428-19.217l-7.188-7.188c-2.929-2.927-7.677-2.927-10.606 0-2.928 2.929-2.928 7.677 0 10.606l7.188 7.188c1.348 1.347 2.147 3.161 2.246 5.054-3.947-1.532-8.384-1.034-11.902 1.342-3.568 2.412-5.698 6.422-5.698 10.728v15.815c0 5.163 3.041 9.817 7.745 11.855 1.417.614 2.84 1.208 4.271 1.783-7.975 62.5-12.017 126.066-12.017 189.036v26.034c-6.074-.058-11.505 4.81-11.505 11.403v18.799c0 4.21 2.295 8.059 5.99 10.043 86.905 46.698 162.779 1.21 168.117.096 4.183-1.805 6.886-5.914 6.886-10.469v-19.106c.003-3.85-1.917-7.41-5.131-9.526zm-149.355-242.745c39.361 15.028 82.509 15.486 122.178 1.296v11.583c-39.094 15.46-83.461 14.94-122.178-1.436zm112.627 31.995c8.74 65.072 13.169 131.254 13.169 196.86v18.451c-40.178 17.031-85.697 17.005-125.797.044v-31.879c0-61.268 3.865-123.105 11.493-183.95 31.849 9.641 67.242 10.393 101.135.474zm26.864 237.015c-4.768 1.05-71.878 41.588-150.996.537v-10.895c.228.105.455.21.683.315.138.068.279.133.422.193 79.828 36.47 147.087-.831 149.892-1.424v11.274z"/><path d="m360.558 432.186c4.142 0 7.499-3.357 7.499-7.499 0-46.533 2.291-93.736 6.809-140.301.4-4.123-2.618-7.788-6.739-8.188-4.135-.406-7.788 2.618-8.188 6.739-4.565 47.044-6.879 94.736-6.879 141.75-.001 4.142 3.356 7.499 7.498 7.499z"/><path d="m213.459 41.775-18.719-12.481-.026-8.377c-.001-11.533-9.384-20.917-20.918-20.917h-11.913c-5.102 0-9.785 1.837-13.419 4.884-3.636-3.047-8.318-4.884-13.421-4.884h-11.865c-5.104 0-9.786 1.837-13.421 4.884-3.635-3.047-8.317-4.884-13.421-4.884h-11.885c-8.991 0-16.676 5.701-19.629 13.678-2.25-.829-4.681-1.282-7.215-1.282h-11.84c-11.536 0-20.92 9.385-20.92 20.92v20.613c0 4.142 3.357 7.499 7.499 7.499s7.499-3.357 7.499-7.499v-20.613c0-3.265 2.657-5.922 5.922-5.922h11.84c3.265 0 5.922 2.657 5.922 5.922v29.396c0 4.142 3.357 7.499 7.499 7.499s7.499-3.357 7.499-7.499v-41.792c0-3.265 2.657-5.922 5.923-5.922h11.885c3.265 0 5.922 2.657 5.922 5.922v41.321c0 4.142 3.357 7.499 7.499 7.499s7.499-3.357 7.499-7.499v-41.321c0-3.265 2.657-5.922 5.922-5.922h11.865c3.265 0 5.922 2.657 5.922 5.922v41.792c0 4.142 3.357 7.499 7.499 7.499s7.499-3.357 7.499-7.499v-41.795c0-3.264 2.655-5.919 5.919-5.919h11.913c3.264 0 5.919 2.655 5.919 5.943.052 16.456.039 1.275.039 82.261 0 4.142 3.357 7.499 7.499 7.499s7.499-3.357 7.499-7.499v-55.873l10.387 6.926c8.354 5.568 13.341 14.886 13.341 24.927v24.852c0 10.666-4.154 20.693-11.696 28.234l-46.198 46.199c-4.865 4.866-7.452 11.966-6.426 19.224l.213 1.513c-29.189 8.639-60.116 8.835-89.431.548.478-4.314.719-8.662.719-12.987 0-5.284-2.012-10.234-5.668-13.938-12.994-13.165-20.15-30.605-20.15-49.106v-34.796c0-4.142-3.357-7.499-7.499-7.499s-7.499 3.357-7.499 7.499v34.797c0 22.469 8.691 43.65 24.474 59.641.854.866 1.345 2.106 1.345 3.402 0 2.733-.111 5.477-.33 8.211-3.55-.859-7.33-.175-10.378 1.934-3.497 2.42-5.584 6.402-5.584 10.652v15.919c0 5.297 3.191 10.014 8.132 12.018.649.263 1.299.522 1.951.777-9.089 66.678-13.698 134.534-13.698 201.794v12.244c-2.93-.605-6.002-.038-8.561 1.646-3.214 2.116-5.134 5.676-5.134 9.525v19.106c0 4.555 2.703 8.665 6.887 10.469 5.473 1.159 81.092 46.591 168.12-.097 3.692-1.985 5.986-5.832 5.986-10.042v-18.799c0-6.567-5.405-11.464-11.505-11.398v-26.039c0-22.671-.526-45.656-1.564-68.313-.19-4.137-3.718-7.329-7.834-7.149-4.138.189-7.338 3.697-7.149 7.834 1.027 22.431 1.549 45.184 1.549 67.628v31.88c-40.101 16.959-85.621 16.985-125.797-.045v-18.45c0-65.607 4.429-131.788 13.169-196.86 31.935 9.347 67.334 9.757 101.135-.474 3.37 26.889 6.026 54.116 7.907 81.069.288 4.134 3.882 7.255 8.002 6.959 4.132-.288 7.247-3.871 6.959-8.002-1.974-28.304-4.795-56.906-8.394-85.113 1.43-.575 2.853-1.169 4.269-1.783 4.706-2.039 7.747-6.692 7.747-11.855v-15.815c0-4.306-2.131-8.316-5.699-10.728-3.516-2.378-7.955-2.875-11.902-1.342.098-1.892.898-3.707 2.246-5.054l46.197-46.199c10.375-10.374 16.089-24.168 16.089-38.84v-24.851c.001-15.067-7.483-29.051-20.019-37.407zm-30.405 426.092v10.895c-78.799 40.959-146.409.42-150.996-.537v-11.274c.469.202 6.255 2.698 6.844 2.952 46.053 19.86 98.818 19.126 144.152-2.036zm-11.504-247.21c-38.716 16.373-83.088 16.896-122.179 1.436v-11.583c39.67 14.191 82.819 13.733 122.179-1.296z"/><path d="m66.648 282.511c-4.91 46.063-7.665 92.844-8.191 139.04-.048 4.156 3.302 7.585 7.5 7.585 4.101 0 7.45-3.301 7.497-7.413.52-45.726 3.249-92.029 8.108-137.623.438-4.119-2.544-7.813-6.662-8.252-4.123-.442-7.813 2.544-8.252 6.663z"/></g></svg>