<?xml version="1.0" encoding="iso-8859-1"?>
<!-- Generator: Adobe Illustrator 19.0.0, SVG Export Plug-In . SVG Version: 6.00 Build 0)  -->
<svg version="1.1" id="Capa_1" xmlns="http://www.w3.org/2000/svg" xmlns:xlink="http://www.w3.org/1999/xlink" x="0px" y="0px"
	 viewBox="0 0 512 512" style="enable-background:new 0 0 512 512;" xml:space="preserve">
<g>
	<g>
		<path d="M161.893,49.869c-10.991-10.992-25.603-17.044-41.147-17.044c-15.544,0-30.156,6.053-41.147,17.044
			C68.608,60.86,62.555,75.473,62.555,91.016s6.053,30.156,17.044,41.147c11.346,11.345,26.243,17.016,41.147,17.016
			c14.899,0,29.804-5.674,41.147-17.016C184.581,109.474,184.581,72.557,161.893,49.869z M151.153,121.422
			c-16.767,16.765-44.047,16.765-60.812,0c-8.122-8.122-12.595-18.92-12.595-30.406c0-11.486,4.473-22.284,12.595-30.406
			s18.92-12.595,30.406-12.595c11.486,0,22.285,4.473,30.407,12.594C167.918,77.375,167.918,104.656,151.153,121.422z"/>
	</g>
</g>
<g>
	<g>
		<path d="M309.372,92.102c-10.991-10.992-25.603-17.044-41.147-17.044s-30.156,6.053-41.147,17.044
			c-22.688,22.689-22.688,59.605,0,82.294c11.344,11.344,26.245,17.016,41.147,17.016s29.802-5.672,41.147-17.016
			c10.992-10.991,17.044-25.603,17.044-41.147C326.416,117.705,320.363,103.092,309.372,92.102z M298.63,163.655
			c-8.383,8.384-19.393,12.575-30.406,12.574c-11.01-0.001-22.024-4.192-30.406-12.574c-16.766-16.766-16.766-44.046,0-60.812
			c8.122-8.122,18.92-12.595,30.406-12.595c11.486,0,22.284,4.474,30.406,12.596c8.122,8.122,12.595,18.92,12.595,30.406
			C311.225,144.734,306.752,155.534,298.63,163.655z"/>
	</g>
</g>
<g>
	<g>
		<path d="M419.316,202.045c-2.787-2.787-5.856-5.293-9.122-7.45c-3.499-2.313-8.212-1.349-10.523,2.152
			c-2.312,3.5-1.349,8.212,2.152,10.523c2.414,1.594,4.686,3.45,6.751,5.516c16.766,16.766,16.766,44.046,0,60.812
			c-8.122,8.122-18.92,12.595-30.406,12.595c-11.486,0-22.284-4.473-30.406-12.595c-8.122-8.122-12.595-18.92-12.595-30.406
			c0-11.485,4.473-22.284,12.595-30.406c8.121-8.122,18.919-12.595,30.406-12.595c4.194,0,7.595-3.401,7.595-7.595
			c0-4.194-3.401-7.595-7.595-7.595c-15.545,0-30.156,6.053-41.147,17.043c-10.992,10.991-17.044,25.603-17.044,41.147
			c0,15.544,6.053,30.156,17.044,41.147c10.991,10.992,25.603,17.044,41.147,17.044c15.544,0,30.156-6.053,41.147-17.044
			C442.004,261.65,442.004,224.734,419.316,202.045z"/>
	</g>
</g>
<g>
	<g>
		<path d="M462.153,350.129c-22.689-22.689-59.606-22.688-82.294,0c-22.688,22.689-22.688,59.605,0,82.294
			c11.344,11.344,26.245,17.016,41.147,17.016c14.902,0,29.803-5.672,41.147-17.016
			C484.841,409.734,484.841,372.818,462.153,350.129z M451.411,421.683c-16.765,16.766-44.044,16.767-60.812,0
			c-16.766-16.766-16.766-44.046,0-60.812c8.384-8.384,19.394-12.574,30.407-12.574c11.01,0,22.024,4.191,30.406,12.574
			C468.177,377.636,468.177,404.917,451.411,421.683z"/>
	</g>
</g>
<g>
	<g>
		<g>
			<path d="M485.361,326.919c-10.933-10.933-24.531-18.879-39.292-23.117c31.9-35.694,30.717-90.703-3.545-124.966
				c-13.219-13.219-29.902-21.939-48.245-25.217c-12.603-2.252-25.371-1.847-37.617,1.134c2.981-12.245,3.386-25.013,1.134-37.617
				C354.52,98.793,345.8,82.111,332.58,68.891c-17.19-17.191-40.046-26.659-64.357-26.659c-22.416,0-43.598,8.05-60.239,22.782
				c-4.256-14.431-12.02-27.496-22.88-38.356C167.913,9.467,145.056,0,120.746,0c-24.31,0-47.167,9.467-64.357,26.659
				c-17.19,17.19-26.66,40.045-26.66,64.356s9.467,47.167,26.659,64.357c8.902,8.902,19.631,15.893,31.318,20.45
				c-1.895,11.616-6.221,28.483-16.094,44.918c-9.963-18.162-18.205-36.315-24.557-54.101c-1.013-2.836-3.604-4.805-6.607-5.021
				c-3.006-0.223-5.849,1.361-7.258,4.021L0.906,226.613c-1.144,2.163-1.178,4.745-0.087,6.937
				c28.254,56.8,67.678,110.787,117.197,160.481c8.545,8.516,17.333,16.843,26.119,24.751c3.117,2.806,7.92,2.553,10.726-0.564
				c2.806-3.117,2.554-7.92-0.564-10.726c-8.596-7.737-17.195-15.886-25.54-24.201c-47.332-47.499-85.196-98.965-112.593-153.029
				l22.643-42.765c7.021,17.042,15.622,34.289,25.668,51.458c1.28,2.186,3.565,3.592,6.093,3.746
				c2.529,0.156,4.967-0.962,6.502-2.977c19.178-25.163,24.872-53.497,26.559-68.146c0.418-3.632-1.812-7.048-5.306-8.126
				c-11.878-3.665-22.374-9.996-31.195-18.818C52.808,130.311,44.92,111.271,44.92,91.016s7.888-39.296,22.21-53.617
				c14.321-14.321,33.362-22.209,53.616-22.209c20.254,0,39.296,7.888,53.615,22.208c12.02,12.021,19.489,27.291,21.597,44.158
				c0.377,3.017,2.516,5.518,5.439,6.358c2.925,0.839,6.064-0.145,7.985-2.502c1.629-1.999,3.387-3.944,5.223-5.781
				c14.322-14.321,33.363-22.209,53.617-22.209s39.296,7.887,53.617,22.209c22.27,22.269,28.467,55.298,15.79,84.145
				c-1.26,2.867-0.632,6.213,1.583,8.426c2.215,2.215,5.561,2.844,8.426,1.583c28.846-12.677,61.874-6.481,84.145,15.79
				c29.564,29.565,29.564,77.67,0,107.234c-1.931,1.931-4.059,3.829-6.324,5.643c-2.399,1.92-3.405,5.096-2.548,8.047
				c0.857,2.951,3.407,5.095,6.461,5.432c17.296,1.909,32.943,9.422,45.249,21.728c29.564,29.564,29.564,77.67,0,107.234
				c-29.564,29.564-77.668,29.565-107.234,0c-8.821-8.821-15.153-19.318-18.816-31.195c-1.079-3.494-4.483-5.723-8.127-5.306
				c-14.65,1.688-42.985,7.383-68.148,26.561c-2.014,1.535-3.131,3.974-2.977,6.502c0.154,2.529,1.558,4.813,3.745,6.093
				c17.165,10.045,34.408,18.644,51.451,25.668l-42.767,22.644c-37.35-18.928-73.677-42.989-108.034-71.563
				c-3.223-2.681-8.013-2.241-10.696,0.983c-2.682,3.226-2.242,8.014,0.983,10.697c36.324,30.209,74.833,55.52,114.456,75.229
				c1.066,0.531,2.224,0.795,3.382,0.795c1.222,0,2.444-0.295,3.552-0.882l60.972-32.283c2.66-1.409,4.238-4.255,4.021-7.258
				c-0.216-3.002-2.185-5.594-5.02-6.607c-17.787-6.356-35.935-14.597-54.093-24.557c16.435-9.875,33.304-14.202,44.922-16.096
				c4.557,11.687,11.547,22.416,20.45,31.318c35.487,35.487,93.23,35.486,128.716,0
				C520.848,420.147,520.848,362.406,485.361,326.919z"/>
			<path d="M307.181,204.237c-2.213-2.214-5.56-2.843-8.426-1.583c-28.846,12.677-61.875,6.48-84.146-15.79
				c-12.02-12.021-19.489-27.291-21.597-44.158c-0.377-3.017-2.518-5.518-5.439-6.358c-2.922-0.841-6.064,0.145-7.985,2.501
				c-1.631,2.002-3.389,3.947-5.223,5.781c-5.881,5.881-12.651,10.728-20.125,14.408c-2.078,1.024-3.576,2.939-4.067,5.202
				c-9.658,44.472-29.533,79.205-59.07,103.236c-3.113,2.533-3.719,7.049-1.383,10.312c18.894,26.405,41.251,52.66,66.447,78.036
				c0.013,0.012,0.025,0.025,0.038,0.037c25.367,25.19,51.619,47.545,78.026,66.442c1.336,0.956,2.881,1.419,4.415,1.419
				c2.213,0,4.401-0.964,5.898-2.802c24.032-29.54,58.766-49.413,103.237-59.071c2.263-0.492,4.178-1.989,5.202-4.067
				c3.681-7.475,8.529-14.245,14.408-20.125c1.932-1.932,4.06-3.83,6.324-5.643c2.4-1.919,3.406-5.096,2.549-8.047
				c-0.857-2.951-3.407-5.095-6.461-5.432c-17.295-1.909-32.942-9.423-45.248-21.729c-22.27-22.27-28.468-55.299-15.79-84.145
				C310.024,209.797,309.396,206.452,307.181,204.237z M313.81,307.551c10.933,10.933,24.532,18.88,39.293,23.118
				c-4.664,5.224-8.7,10.958-12.052,17.124c-52.81,12.232-85.006,37.221-103.623,58.066c-23.839-17.531-47.528-37.943-70.502-60.755
				c-22.818-22.982-43.232-46.674-60.761-70.509c20.845-18.618,45.833-50.813,58.065-103.622c6.02-3.273,11.63-7.198,16.755-11.725
				c4.257,14.433,12.021,27.499,22.882,38.36c13.22,13.219,29.903,21.939,48.245,25.217c12.604,2.252,25.372,1.847,37.617-1.134
				c-2.981,12.245-3.386,25.013-1.134,37.617C291.871,277.649,300.591,294.332,313.81,307.551z"/>
		</g>
	</g>
</g>
<g>
</g>
<g>
</g>
<g>
</g>
<g>
</g>
<g>
</g>
<g>
</g>
<g>
</g>
<g>
</g>
<g>
</g>
<g>
</g>
<g>
</g>
<g>
</g>
<g>
</g>
<g>
</g>
<g>
</g>
</svg>
