<svg height="512" viewBox="0 0 60 60" width="512" xmlns="http://www.w3.org/2000/svg"><g id="Page-1" fill="none" fill-rule="evenodd"><g id="020---Archery" fill="rgb(0,0,0)" fill-rule="nonzero" transform="translate(-1 -1)"><path id="Shape" d="m54.439 22.382c-1.0163721-.3932435-2.1497777-.3509307-3.134.117-.8484187.4060482-1.5227101 1.1034074-1.9 1.965-2.3775974-.918066-4.543533-2.3103074-6.366-4.092l6.97-6.97c.3902698.3890509 1.0217302.3890509 1.412 0 1.159858-1.0833743 2.6600121-1.7302362 4.244-1.83.3786657-.0002022.7247365-.2142706.894-.553l4.244-8.485c.189573-.38403571.1135471-.84615559-.1890643-1.14921937-.3026115-.30306378-.7646173-.37977978-1.1489357-.19078063l-8.486 4.243c-.3383409.16954255-.5519873.51555681-.552.894-.099902 1.58307983-.7455654 3.08255984-1.827 4.243-.3903819.3904999-.3903819 1.0235001 0 1.414l-6.97 6.97c-1.8011876-1.8053453-3.2347131-3.9432376-4.221-6.295 1.4995104-.6026529 2.4820231-2.0564177 2.4820231-3.6725 0-1.61608228-.9825127-3.06984712-2.4820231-3.6725-.0731371-.02878944-.1492835-.04925169-.227-.061-1.510827-.59455469-3.0826847-1.02046875-4.687-1.27-3.2399187-.3588519-6.5150129-.23889988-9.72.356-4.4.617-8.56 1.2-13.929-1.106-1.0589664-.44534015-2.07347662-.98976048-3.03-1.626-.95644731-.72691633-2.25431145-.81316495-3.29853685-.21920188s-1.63342716 1.75358863-1.49746315 2.94720188c.08783354.79031708.48871233 1.51247517 1.113 2.005 1.18284937.921042 2.45249585 1.72482769 3.791 2.4l22.957 22.961-12.525 12.525-5.29 1.058c-1.16189895.2308641-2.22903246.8016726-3.066 1.64l-6.707 6.708c-.26957941.2675535-.36431662.6647309-.24452727 1.0251591.11978935.3604281.43342455.6218818.80952727.6748409l2.971.424-2.536 2.533c-.25995658.2510745-.3642126.6228779-.27269716.9725073.09151544.3496295.3645604.6226744.71418984.7141899.34962943.0915154.72143285-.0127406.97250732-.2726972l2.536-2.536.424 2.971c.05370614.3749355.31463257.6873504.674.807.10196891.0336229.20863086.0508373.316.051.26519481-.0000566.51950727-.1054506.707-.293l6.707-6.707c.8386441-.8368753 1.4097991-1.9040059 1.641-3.066l1.059-5.291 12.529-12.524 22.895 22.9c.6917611 1.3635836 1.517496 2.6549459 2.465 3.855 1.016423 1.2336167 2.8215684 1.4536612 4.1045756.5003415s1.5932448-2.7451685.7054244-4.0743415c-.013-.019-.027-.037-.041-.054-1.3085647-1.9765719-2.2524722-4.1715719-2.787-6.481-.911-3.71-.459-7.07.019-10.626.6-4.481 1.226-9.114-.98-14.547-.4121466-1.0132842-1.2228959-1.8124617-2.242-2.21zm-2.039-15.418 5.28-2.639-2.644 5.275c-1.5495502.18500275-3.0203534.7851402-4.257 1.737l-.12-.12c.9530199-1.23485546 1.5545642-2.70433713 1.741-4.253zm-48.279 46.672 5.294-5.294c.55794859-.5588608 1.2693982-.9392984 2.044-1.093l2.348-.47-7.207 7.211zm10.63-3.094c-.15388.7744633-.534702 1.4856328-1.094 2.043l-5.293 5.293-.353-2.478 7.21-7.21zm34.327-24.079c.0412074.4548405.1609821.8990894.354 1.313.4633017.9766859.7993787 2.0087783 1 3.071-.9042051-1.3029635-2.12521-2.3543079-3.548-3.055-2.4244421-1.215971-4.6673929-2.7642263-6.664-4.6l1.41-1.411c2.1096273 2.0875311 4.652271 3.6859009 7.448 4.682zm-10.278-4.674c-1.9392122-2.0689885-3.5721221-4.4050363-4.849-6.937-.6187635-1.274002-1.5265431-2.3858694-2.651-3.247 1.0122498.2014152 1.996173.5254718 2.93.965.3583465.1625538.7388182.2710674 1.129.322 1.0600599 2.8145273 2.7162461 5.3665208 4.855 7.481zm-8.5 8.5-19.656-19.649c4.715 1.426 8.967 1.118 12.719.841 1.2-.088 2.349-.167 3.467-.2 1.6.683 4.245 2.107 5.3 4.4 1.3733161 2.7485352 3.1413733 5.2813581 5.248 7.518zm-27.293-26.178c-.03094814-.26290285.04468237-.52724948.21-.734.17264161-.21741718.42745713-.35382427.70411871-.37692674.27666158-.02310248.55057151.06915369.75688129.25492674 1.06350946.71319398 2.19302264 1.32265559 3.373 1.82 5.88 2.528 10.512 1.878 15 1.249 3.0208256-.5691186 6.10913-.68907893 9.165-.356 1.5086655.21869114 2.9858001.61684607 4.4 1.186l.048.02c1.0028388.40440848 1.4894316 1.54396583 1.088 2.548-.2010433.502267-.6009436.8989663-1.10481 1.0959667-.5038665.1970004-1.0667875.1767426-1.55519-.0559667-2.32705-1.06221933-4.8670912-1.57542809-7.424-1.5-1.46 0-2.937.108-4.445.22-3.787.279-7.7.568-12.116-.794-2.79270819-.82266896-5.4121519-2.14730098-7.73-3.909-.20744189-.16444767-.34063572-.40491653-.37-.668zm28.7 27.594 7.1-7.1c2.1661269 2.0026207 4.6066771 3.6862233 7.248 5 2.5 1.146 3.967 4.133 4.653 5.938-.041 1.094-.121 2.277-.215 3.608-.065.932-.135 1.926-.2 3-.1648969 3.1087579.1972102 6.2230144 1.071 9.211zm23.966 7.163c-.483 3.585-.982 7.292.017 11.357.5962561 2.4877045 1.6168649 4.854015 3.017 6.995.0286245.0763802.0665789.1489301.113.216.2732661.4417906.1627576 1.0192461-.2543183 1.3289249-.4170758.3096788-1.0018126.248443-1.3456817-.1409249-3.5410517-4.6904985-5.2895014-10.4919466-4.93-16.358.063-1.06.132-2.046.2-2.971.36-5.119.6-8.5-1.25-12.379-.3001147-.6437212-.2283058-1.3994594.1876742-1.9751386.4159799-.5756792 1.1109655-.8811162 1.8163602-.7982665.7053948.0828497 1.310695.5410073 1.5819656 1.1974051 2.004 4.941 1.443 9.112.849 13.528z"/></g></g></svg>