<svg id="Capa_1" enable-background="new 0 0 611.776 611.776" height="512" viewBox="0 0 611.776 611.776" width="512" xmlns="http://www.w3.org/2000/svg"><g><g id="Page-1_39_"><g id="_x30_40---Bow"><path id="Shape_66_" d="m553.583 149.959c1.912 1.912 4.505 2.987 7.209 2.988.828-.003 1.652-.102 2.457-.296 3.473-.862 6.24-3.482 7.29-6.903l40.785-132.551c1.112-3.61.136-7.539-2.535-10.21-2.671-2.671-6.6-3.647-10.21-2.535l-132.551 40.785c-3.418 1.052-6.036 3.817-6.898 7.288s.158 7.14 2.687 9.668l38.674 38.674-25.348 25.378c-29.988-27.64-64.407-50.044-101.82-66.276-39.271-16.6-80.767-27.342-123.16-31.884-41.178-4.505-82.734-4.334-123.874.51-6.515.867-35.932 4.864-46.322 7.525l-3.059-2.641c-4.425-3.813-4.425-3.813-9.054-7.698l-17.313-14.559c-12.212-10.25-30.233-9.467-41.51 1.805s-12.069 29.292-1.824 41.509l17.262 20.474 39.878 390.689c-.061.051-.133.071-.184.122l-61.177 61.178c-2.915 2.916-3.787 7.301-2.209 11.11s5.295 6.294 9.418 6.295h46.76l-33.577 33.576c-2.651 2.56-3.714 6.351-2.78 9.916.933 3.565 3.717 6.349 7.282 7.282s7.356-.13 9.916-2.781l33.576-33.576v46.76c.001 4.123 2.485 7.84 6.295 9.418s8.194.706 11.11-2.209l61.177-61.177c0-.051.071-.133.122-.194l390.74 39.939 20.392 17.201c12.212 10.25 30.233 9.467 41.51-1.805 11.277-11.271 12.069-29.292 1.824-41.509-6.335-7.525-12.691-15.033-19.067-22.523l-5.914-6.974c1.509-5.934 3.059-15.906 3.059-15.906 8.961-50.878 10.677-102.768 5.098-154.126-4.58-42.451-15.371-83.999-32.026-123.313-16.207-37.385-38.572-71.785-66.163-101.769l25.378-25.348zm-52.062 224.083c7.43 44.034 9.964 88.755 7.555 133.347-.122 3.334-.377 6.444-.632 9.442-1.559 10.972-.671 22.152 2.6 32.74 1.731 5.292 4.155 10.332 7.209 14.988l-365.311-37.339v-53.969l269.793-269.793c38.969 42.05 66.234 100.638 78.786 170.584zm-416.965 84.792-37.359-365.637c8.945 6.235 19.415 9.925 30.293 10.675h1.642c5.934-.296 36.319-1.744 52.368-1.978 35.594-.419 71.153 2.376 106.245 8.351 69.926 12.541 128.473 39.765 170.604 78.786l-269.825 269.803zm338.178-284.21c-20.146-18.587-42.76-34.305-67.203-46.709l38.858-38.858c23.911 13.17 46.16 29.152 66.276 47.606zm-294.019-129.757c39.579-4.653 79.558-4.818 119.174-.489 40.405 4.332 79.956 14.57 117.389 30.385 3.355 1.448 6.668 3.059 9.982 4.588l-39.296 39.296c-30.324-13.18-62.098-22.732-94.662-28.458-34.754-5.965-69.964-8.875-105.225-8.697h-4.833c-15.641.235-43.314 1.519-52.725 1.978-3.673-.324-7.289-1.123-10.757-2.376l14.193-28.366c.96-.194 1.902-.47 2.814-.826 4.089-1.244 33.128-5.618 43.946-7.035zm-104.633-22.045c3.845-3.247 9.471-3.247 13.316 0l17.334 14.581c4.354 3.65 4.588 3.844 8.463 7.199l-12.48 24.991c-2.937-2.875-5.985-6.22-9.319-10.094l-18.579-22.086c-3.666-4.382-3.101-10.904 1.265-14.591zm10.726 497.19 40.785-40.785h42.539l-40.785 40.785zm56.956 56.956v-42.539l40.785-40.785v42.539zm497.19-2.6c3.436 4.113 3.167 10.169-.62 13.961s-9.842 4.07-13.96.64l-24.858-20.943c-8.823-6.082-15.508-14.786-19.108-24.879-1.092-3.3-1.757-6.727-1.978-10.196l30.966 4.415c.873 2.483 2.216 4.775 3.956 6.75l6.607 7.78c6.341 7.497 12.673 14.988 18.995 22.472zm-21.525-210.359c5.385 49.486 3.734 99.485-4.904 148.508-.092.551-.418 2.386-.816 4.609l-32.526-4.649c.092-1.387.224-2.733.275-4.078 2.487-46.114-.146-92.361-7.851-137.894-5.607-31.845-14.865-62.938-27.591-92.663l39.337-39.337c1.224 2.651 2.498 5.282 3.65 7.953 15.85 37.48 26.101 77.087 30.426 117.551zm-43.691-144.787-38.888 38.888c-12.562-25.155-28.616-48.409-47.688-69.069l37.981-37.95c18.917 20.643 35.237 43.524 48.595 68.131zm62.422-193.616-30.14 97.966-67.805-67.825z"/></g></g></g></svg>