<svg id="Capa_1" enable-background="new 0 0 512 512" viewBox="0 0 512 512" xmlns="http://www.w3.org/2000/svg"><g><path d="m376.679 367.66 23.004 5.085c40.481 7.718 69.201 20.427 92.412 53.455 1.914 2.724.002 6.488-3.327 6.544-45.881.771-67.521 9.414-92.454 18.646-23.043 8.532-40.681 21.469-67.969 28.286-20.236 5.056-44.562 8.459-77.314 8.459-124.696 0-127.251-49.332-246.943-51.353-3.338-.056-5.248-3.838-3.315-6.561 23.522-33.134 60.728-55.63 101.509-60.009l23.102-2.553 125.648-14.858z" fill="#bd80e1"/><path d="m498.016 436.784c-89.66 1.504-113.603 29.544-172.34 43.539 38.684-16.11 64.183-43.736 64.183-75.106 0-13.434-4.793-26.101-13.185-37.553l24.69 2.728c40.292 4.139 76.766 26.816 99.972 59.847 1.919 2.728.01 6.483-3.32 6.545z" fill="#af66da"/><g><path d="m459.552 204.517c-18.825 8.501-21.241 12.922-29.742 31.747-.93 2.06-3.869 2.06-4.8 0-5.087-11.265-10.049-14.98-17.247-20.962-4.831-4.014-10.668-7.371-18.228-10.785-2.06-.93-2.06-3.869 0-4.8 18.825-8.501 26.974-16.65 35.475-35.475.93-2.06 3.869-2.06 4.8 0 3.414 7.559 6.771 13.397 10.785 18.228 5.982 7.199 7.692 12.16 18.957 17.247 2.06.931 2.06 3.87 0 4.8z" fill="#ffe177"/><path d="m465.285 199.717c-11.265-5.087-18.706-10.051-24.688-17.249-1.551 17.418-15.418 31.285-32.836 32.836 7.198 5.982 12.162 13.423 17.249 24.688.93 2.06 3.869 2.06 4.8 0 8.501-18.825 16.65-26.974 35.475-35.475 2.06-.93 2.06-3.869 0-4.8z" fill="#ffd15b"/></g><g><path d="m101.852 299.123c-14.602 6.594-16.476 10.024-23.071 24.626-.722 1.598-3.001 1.598-3.723 0-3.946-8.738-7.795-11.619-13.378-16.26-3.747-3.114-8.275-5.718-14.139-8.366-1.598-.722-1.598-3.001 0-3.723 14.602-6.594 20.923-12.915 27.517-27.517.722-1.598 3.001-1.598 3.723 0 2.648 5.864 5.252 10.392 8.366 14.139 4.64 5.584 5.966 9.432 14.705 13.378 1.598.721 1.598 3.001 0 3.723z" fill="#ffe177"/><path d="m106.299 295.4c-8.738-3.946-14.51-7.796-19.15-13.38-1.203 13.511-11.96 24.267-25.47 25.47 5.584 4.64 9.434 10.412 13.38 19.15.722 1.598 3.001 1.598 3.723 0 6.594-14.602 12.915-20.923 27.517-27.517 1.598-.722 1.598-3.002 0-3.723z" fill="#ffd15b"/></g><path d="m131.636 350.923 28.43-135.23c5.151-24.501 18.149-46.654 37.024-63.103l1.22-11.632-4.215-6.301c.265-18.428 12.774-35.104 31.448-39.888 9.185-5.363 17.484-9.647 18.046-18.662 28.468-26.611 62.699-46.487 100.167-57.99 8.018-2.462 16.691-1.582 24.051 2.44l76.07 41.567c9.645 5.27 20.826 8.197 31.711 8.589 3.419 2.107 7.252 1.969 10.89 1.534l10.792-1.293c8.079-.968 11.814 4.654 11.814 12.79 0 4.477-6.754 7.916-10.447 10.447-21.63 14.821-40.074 19.918-66.294 19.918l-16.012 2.271h-47.073l-8.04-2.759-8.542 2.759-1.834 5.198c.368 17.401-13.753 32.768-29.023 41.118l33.197 191.595z" fill="#cb97e7"/><path d="m512 82.437c0 2.241-.55 4.398-1.566 6.328-1.017 1.919-2.49 3.6-4.336 4.865-10.82 7.417-22.625 13.102-35.001 16.93-12.386 3.838-25.343 5.82-38.456 5.82h-17.584c25.488-3.776 61.361-21.277 60.531-45.665 3.465.104 6.961-.052 10.436-.467l10.789-1.297c8.081-.965 15.187 5.342 15.187 13.486z" fill="#bd80e1"/><path d="m361.217 327.839-13.964 6.536-16.068-6.536-27.916-141.488c-.757-3.818-1.141-7.677-1.141-11.525 0-10.519 2.822-20.924 8.258-30.094 8.517-14.357 22.739-24.43 39.119-27.719l3.174-.633.125 5.892c.247 11.835-4 23.098-11.548 31.72-6.964.026-11.358 4.383-12.706 10.19z" fill="#bd80e1"/><g><path d="m238.765 129.948c0 4.295-3.475 7.78-7.78 7.78-10.519 0-20.696 3.672-28.777 10.363-.301.249-5.114 4.502-5.114 4.502l-1.805-7.407c-.861-3.527-1.245-7.054-1.193-10.529 10.56-8.081 23.517-12.49 36.889-12.49 4.305.001 7.78 3.487 7.78 7.781z" fill="#bd80e1"/></g><g><path d="m321.755 130.457c-10.057-6.993-18.624 7.841-8.195 13.227 4.09 2.533 7.517 5.941 10.098 9.922 4.547-2.401 9.225-4.794 13.346-8.042-3.851-6.079-9.05-11.264-15.249-15.107z" fill="#bd80e1"/></g><g><path d="m341.256 153.992c-3.537 4.056-7.82 7.524-12.706 10.19-.135-.425-1.463-3.652-1.618-4.056-2.479-6.816-7.189-12.615-13.372-16.443-.674-.353-1.276-.736-1.795-1.162 2.905-4.43 6.37-8.424 10.28-11.878 8.756 5.519 15.508 13.722 19.211 23.349z" fill="#af66da"/></g><g><path d="m369.257 116.38h-16.577c-2.355-7.334-7.324-14.191-13.88-18.247l-1.245-.768c-3.652-2.262-4.782-7.054-2.521-10.716 2.262-3.652 7.065-4.782 10.716-2.521l1.245.778c9.108 5.643 16.059 14.17 19.741 24.181.135.342 1.359 3.901 2.521 7.293z" fill="#bd80e1"/></g><path d="m362.631 330.713-31.446-2.874h-196.346c-5.222 0-9.455 4.233-9.455 9.455v30.367h213.665l32.809-3.263.228-24.23c0-5.222-4.233-9.455-9.455-9.455z" fill="#ffe177"/><path d="m376.674 337.289v30.374h-37.626l-2.251-11.411-5.612-28.414h36.038c5.219.001 9.451 4.233 9.451 9.451z" fill="#ffd15b"/><path d="m294.145 367.66h-86.226v-48.74c0-3.449 2.796-6.244 6.244-6.244h73.737c3.449 0 6.244 2.796 6.244 6.244v48.74z" fill="#ffe177"/><g><path d="m294.145 375.44h-86.226c-4.297 0-7.78-3.483-7.78-7.78v-48.74c0-7.734 6.292-14.025 14.025-14.025h73.736c7.734 0 14.025 6.291 14.025 14.025v48.74c0 4.297-3.483 7.78-7.78 7.78zm-78.446-15.56h70.666v-39.423h-70.666z" fill="#ffd15b"/></g><g><path d="m245.29 347.949h-31.887c-4.297 0-7.78-3.483-7.78-7.78s3.483-7.78 7.78-7.78h31.887c4.297 0 7.78 3.483 7.78 7.78s-3.483 7.78-7.78 7.78z" fill="#ffc344"/></g><g><path d="m276.806 83.256c0 4.295-3.486 7.78-7.78 7.78h-11.09c-9.046 0-18.144.83-27.045 2.459l-5.353 1.276c5.716-6.546 11.743-12.77 18.05-18.662 4.782-.425 9.565-.633 14.347-.633h11.09c4.295 0 7.781 3.485 7.781 7.78z" fill="#bd80e1"/></g><g><path d="m177.752 456.77c-19.568 8.837-22.08 13.432-30.916 33-.967 2.142-4.022 2.142-4.989 0-5.288-11.71-10.445-15.571-17.928-21.789-5.021-4.173-11.09-7.662-18.947-11.211-2.142-.967-2.142-4.022 0-4.989 19.568-8.837 28.039-17.308 36.875-36.875.967-2.142 4.022-2.142 4.989 0 3.549 7.858 7.038 13.926 11.211 18.947 6.218 7.483 7.995 12.64 19.705 17.928 2.142.967 2.142 4.022 0 4.989z" fill="#ffe177"/><path d="m183.711 451.781c-11.71-5.288-19.444-10.448-25.662-17.93-1.612 18.106-16.027 32.52-34.132 34.132 7.482 6.218 12.642 13.953 17.93 25.662.967 2.142 4.022 2.142 4.989 0 8.837-19.568 17.308-28.039 36.875-36.875 2.142-.967 2.142-4.022 0-4.989z" fill="#ffd15b"/></g></g><g/><g/><g/><g/><g/><g/><g/><g/><g/><g/><g/><g/><g/><g/><g/></svg>