<svg id="Line" viewBox="0 0 64 64" xmlns="http://www.w3.org/2000/svg"><path d="m23.31836 10c.55225 0 1-.44775 1-1v-1h1c.55225 0 1-.44775 1-1s-.44775-1-1-1h-1v-1c0-.55225-.44775-1-1-1s-1 .44775-1 1v1h-1c-.55225 0-1 .44775-1 1s.44775 1 1 1h1v1c0 .55225.44775 1 1 1z"/><path d="m52 32c.55225 0 1-.44775 1-1v-1h1c.55225 0 1-.44775 1-1s-.44775-1-1-1h-1v-1c0-.55225-.44775-1-1-1s-1 .44775-1 1v1h-1c-.55225 0-1 .44775-1 1s.44775 1 1 1h1v1c0 .55225.44775 1 1 1z"/><path d="m5 20c2.75684 0 5 2.24316 5 5 .02121 1.31072 1.97745 1.31727 2-.00005 0-2.75679 2.24317-4.99995 5-4.99995 1.31072-.02121 1.31727-1.97745-.00005-2-2.75679 0-4.99995-2.24317-4.99995-5-.02121-1.31072-1.97745-1.31727-2 .00005 0 2.75679-2.24317 4.99995-5 4.99995-1.31072.02121-1.31727 1.97745 0 2zm6-3.39746c.59131.98096 1.4165 1.80615 2.39746 2.39746-.98096.59131-1.80615 1.4165-2.39746 2.39746-.59131-.98096-1.4165-1.80615-2.39746-2.39746.98096-.59131 1.80615-1.4165 2.39746-2.39746z"/><path d="m39 59c.02095 1.31083 1.97771 1.31736 2-.00005 0-2.75679 2.24317-4.99995 5-4.99995 1.31077-.02085 1.31733-1.97781-.00005-2-2.75679 0-4.99995-2.24317-4.99995-5-.02095-1.31083-1.97771-1.31736-2 .00005 0 2.75679-2.24317 4.99995-5 4.99995-1.31077.02085-1.31733 1.97781.00005 2 2.75679 0 4.99995 2.24317 4.99995 5zm1-8.39746c.59131.98047 1.4165 1.80664 2.39746 2.39746-.98096.59082-1.80615 1.41699-2.39746 2.39746-.59131-.98047-1.4165-1.80664-2.39746-2.39746.98096-.59082 1.80615-1.41699 2.39746-2.39746z"/><path d="m47.75537 35.57617c-.13239-.01709-.24695-.03229-.3653-.04791-.32123-1.18103-.64819-2.35974-.97894-3.53754-1.2793-4.55664-2.60254-9.26904-3.30469-14.03027-.21951-1.28399-2.14543-1.02124-1.97851.29204.90469 6.11849 2.72501 11.86918 4.30926 17.71852-8.08358 5.48987-18.54887 4.45173-24.73457 1.32137 1.84684-7.0627 4.2735-13.29599 7.20165-18.84561 3.14651-5.95946 6.2134-9.77343 11.77395-10.37255 7.49316-.81982 12.65039 5.23486 14.98145 11.17285-.13798.15092-1.38961-.60625-2.05458-1.05218-1.76866-1.21002-3.61192-1.62311-5.62852-1.26959-.54395.0957-.90723.61475-.81152 1.1582.09521.54395.61279.9043 1.1582.81152 1.49951-.26318 2.81836.0376 4.1543.95166 2.30469 1.56787 3.91895 2.00391 4.79883 1.30029.64746-.51807.72949-1.4043.24414-2.63232-2.60059-6.62451-8.44238-13.37207-17.05762-12.42871-7.13623.76855-10.62109 6.30127-13.32666 11.42578-2.97754 5.62109-5.36572 11.8252-7.31299 19.0127l-.08789.40625-.26758.02832c-2.91699.38965-5.72168 1.11328-8.33936 2.15234-1.93701.77539-3.79004 1.61914-5.17139 3.40918-1.65785 2.11106-1.11572 4.88488 1.35795 6.0703 2.54855.9948 5.0094 1.00309 7.51559 1.13869 3.30322.16308 6.69092.60937 10.27783 1.08301 1.80859.23828 3.62939.47754 5.45068.68164.5393.06137 1.04525-.33132 1.10449-.88282.06153-.54882-.33398-1.04394-.88281-1.10546-1.80762-.20117-3.61572-.43945-5.41113-.67676-3.46875-.45703-7.05566-.92969-10.43652-1.09766-2.427-.20573-9.96772.07783-7.39171-3.9902 1.07384-1.39164 2.5963-2.07914 4.32775-2.77152 2.65799-1.04794 5.57135-1.79458 8.51287-2.09578 2.72004 1.32393 7.30079 3.04012 12.82453 3.04012 2.02148 0 4.16748-.23047 6.39014-.79395 2.87622-.7298 5.63629-1.9668 8.21973-3.651.20288.02759.42426.05695.68018.09045 6.47217.8457 9.9917 1.98242 10.46045 3.37695.21338.63477-.44434 1.45996-1.03271 2.04004-2.40039 2.36426-5.05029 4.07324-8.10156 5.22656-1.23041.48443-.51738 2.31893.70707 1.87107 3.31686-1.25388 6.19479-3.10935 8.7983-5.67283 5.47716-6.03873-3.55204-7.94793-10.57275-8.8252z"/></svg>