<svg id="icon" height="512" viewBox="0 0 340 340" width="512" xmlns="http://www.w3.org/2000/svg"><path d="m294.485 66.173-18.815-18.814c-55.5 46.471-112.442 104.88-170.228 170.228l18.814 18.813z" fill="#7784b2"/><path d="m298.086 24.943-3.602 41.23-33.448-4.181-4.181-33.448z" fill="#dce2f9"/><path d="m177.762 145.266 97.908-97.907-18.815-18.815-97.616 97.616z" fill="#dce2f9"/><path d="m159.863 163.165-18.973-18.656-54.263 54.263 18.815 18.815 20.383-20.384z" fill="#7784b2"/><path d="m66.789 211.423h12.991a9.754 9.754 0 0 1 9.754 9.754v66.887a0 0 0 0 1 0 0h-32.5a0 0 0 0 1 0 0v-66.887a9.754 9.754 0 0 1 9.754-9.754z" fill="#342a35" transform="matrix(-.707 -.707 .707 -.707 -51.491 478.159)"/><path d="m60.485 196.406 33.069 33.069q9.569-2.935 13.655-13.655l-39.147-39.148-7.577 7.577a8.6 8.6 0 0 0 0 12.157z" fill="#ffb655"/><circle cx="32.902" cy="290.126" fill="#ffb655" r="24.931"/><circle cx="32.902" cy="290.126" fill="#f27b31" r="8.799"/><path d="m107.209 215.82 39.147 39.147-7.576 7.576a8.6 8.6 0 0 1 -12.158 0l-33.068-33.068z" fill="#f27b31"/><path d="m45.515 66.173 18.815-18.814c55.5 46.471 112.442 104.88 170.228 170.228l-18.814 18.813z" fill="#7784b2"/><path d="m83.145 28.544-18.815 18.815 149.845 149.841c11.541-1.206 20.692-4.6 27.552-10.077z" fill="#dce2f9"/><path d="m41.914 24.943 3.602 41.23 33.448-4.181 4.181-33.448z" fill="#dce2f9"/><path d="m234.558 217.587 18.815-18.815-11.646-11.646-27.552 10.077z" fill="#7784b2"/><path d="m250.466 211.423h32.5a0 0 0 0 1 0 0v66.887a9.754 9.754 0 0 1 -9.754 9.754h-12.992a9.754 9.754 0 0 1 -9.754-9.754v-66.887a0 0 0 0 1 0 0z" fill="#342a35" transform="matrix(.707 -.707 .707 .707 -98.476 261.745)"/><path d="m279.515 196.406-33.069 33.069q-9.568-2.935-13.655-13.655l39.147-39.148 7.577 7.577a8.6 8.6 0 0 1 0 12.157z" fill="#ffb655"/><circle cx="307.098" cy="290.126" fill="#ffb655" r="24.931"/><g fill="#f27b31"><circle cx="307.098" cy="290.126" r="8.799"/><path d="m232.791 215.82-39.147 39.147 7.576 7.576a8.6 8.6 0 0 0 12.158 0l33.068-33.068z"/></g></svg>