<?xml version="1.0" encoding="UTF-8" standalone="no"?>
<!-- Created with Inkscape (http://www.inkscape.org/) -->

<svg
   version="1.1"
   id="svg6048"
   xml:space="preserve"
   width="682.66669"
   height="682.66669"
   viewBox="0 0 682.66669 682.66669"
   xmlns="http://www.w3.org/2000/svg"
   xmlns:svg="http://www.w3.org/2000/svg"><defs
     id="defs6052"><clipPath
       clipPathUnits="userSpaceOnUse"
       id="clipPath6066"><path
         d="M 0,512 H 512 V 0 H 0 Z"
         id="path6064" /></clipPath></defs><g
     id="g6054"
     transform="matrix(1.3333333,0,0,-1.3333333,0,682.66667)"><g
       id="g6056"
       transform="translate(71.7324,91.2676)"><path
         d="M 0,0 237.368,237.632"
         style="fill:none;stroke:#060606;stroke-width:15;stroke-linecap:round;stroke-linejoin:round;stroke-miterlimit:10;stroke-dasharray:none;stroke-opacity:1"
         id="path6058" /></g><g
       id="g6060"><g
         id="g6062"
         clip-path="url(#clipPath6066)"><g
           id="g6068"
           transform="translate(329.4961,308.4805)"><path
             d="m 0,0 -296.415,-296.752 c -5.632,-5.638 -14.764,-5.638 -20.396,0 -5.631,5.639 -5.631,14.78 0,20.419 l 30.066,30.1"
             style="fill:none;stroke:#060606;stroke-width:15;stroke-linecap:round;stroke-linejoin:round;stroke-miterlimit:10;stroke-dasharray:none;stroke-opacity:1"
             id="path6070" /></g><g
           id="g6072"
           transform="translate(329.1504,308.8271)"><path
             d="m 0,0 -19.716,19.738 c -5.442,5.449 -5.442,14.278 0,19.725 v 10e-4 c 5.446,5.452 14.281,5.452 19.729,0 L 19.729,19.726 C 25.17,14.277 25.17,5.448 19.729,0 14.281,-5.453 5.446,-5.453 0,0 Z"
             style="fill:none;stroke:#060606;stroke-width:15;stroke-linecap:round;stroke-linejoin:round;stroke-miterlimit:10;stroke-dasharray:none;stroke-opacity:1"
             id="path6074" /></g><g
           id="g6076"
           transform="translate(348.8662,328.5654)"><path
             d="m 0,0 -19.716,19.738 c -5.442,5.448 -5.442,14.278 0,19.725 5.446,5.453 14.281,5.453 19.729,0 L 19.729,19.725 C 25.17,14.277 25.17,5.448 19.729,0 14.281,-5.453 5.446,-5.453 0,0 Z"
             style="fill:none;stroke:#060606;stroke-width:15;stroke-linecap:round;stroke-linejoin:round;stroke-miterlimit:10;stroke-dasharray:none;stroke-opacity:1"
             id="path6078" /></g><g
           id="g6080"
           transform="translate(368.5811,348.3037)"><path
             d="m 0,0 -19.715,19.738 c -5.442,5.448 -5.442,14.277 0,19.725 5.446,5.453 14.281,5.453 19.729,0 L 19.729,19.725 C 25.171,14.277 25.171,5.447 19.729,0 V 0 C 14.282,-5.453 5.447,-5.453 0,0 Z"
             style="fill:none;stroke:#060606;stroke-width:15;stroke-linecap:round;stroke-linejoin:round;stroke-miterlimit:10;stroke-dasharray:none;stroke-opacity:1"
             id="path6082" /></g><g
           id="g6084"
           transform="translate(476.4395,449.9053)"><path
             d="m 0,0 27.1,54.595 -110.817,-55.131 -25.494,-60.235 21.075,-21.099 60.167,25.523 10.387,20.925"
             style="fill:none;stroke:#060606;stroke-width:15;stroke-linecap:round;stroke-linejoin:round;stroke-miterlimit:10;stroke-dasharray:none;stroke-opacity:1"
             id="path6086" /></g><g
           id="g6088"
           transform="translate(378.127,378.9463)"><path
             d="M 0,0 45.208,45.259"
             style="fill:none;stroke:#060606;stroke-width:15;stroke-linecap:round;stroke-linejoin:round;stroke-miterlimit:10;stroke-dasharray:none;stroke-opacity:1"
             id="path6090" /></g></g></g></g></svg>
