<svg id="Capa_1" enable-background="new 0 0 512 512" viewBox="0 0 512 512" xmlns="http://www.w3.org/2000/svg"><path d="m507.5 107.1c-3.1-1.5-6.8-.9-9.2 1.5l-90.3 90.8-31.1-31.1 79.2-79.3 10.7 16.3c1.7 2.6 4.8 4 7.9 3.5s5.6-2.7 6.5-5.7l25.5-87.7c.8-2.8 0-5.8-2-7.9-2.1-2.1-5.1-2.8-7.9-2l-87.7 25.5c-3 .9-5.2 3.4-5.7 6.5s.9 6.2 3.5 7.9l15.1 10-79.1 79.1-31.1-31.1 88.2-88.9c2.4-2.4 3-6.2 1.5-9.3-1.6-3.1-4.9-4.8-8.3-4.3l-98.4 14.9c-3.3.5-5.9 3-6.6 6.2s.6 6.6 3.4 8.4l15.1 10-34.5 34.5c-15.6 15.6-15.6 41 0 56.6l36.8 36.8-25.5 25.5-5.7-5.7c-3.1-3.1-8.2-3.1-11.3 0l-17 17c-3.1 3.1-3.1 8.2 0 11.3l5.7 5.7-248.2 248.1c-4.5 4.5-7 10.6-7 17s2.5 12.4 7 17c4.7 4.7 10.8 7 17 7s12.3-2.3 17-7l248.1-248.2 5.7 5.7c1.6 1.6 3.6 2.3 5.7 2.3 2 0 4.1-.8 5.7-2.3l17-17c3.1-3.1 3.1-8.2 0-11.3l-5.7-5.7 25.5-25.5 36.8 36.8c7.8 7.8 18.1 11.7 28.3 11.7 10.3 0 20.5-3.9 28.3-11.7l36.8-36.8 10.7 16.3c1.8 2.8 5.2 4.1 8.5 3.4s5.7-3.4 6.2-6.7l13.4-99.8c.4-3.4-1.4-6.8-4.5-8.3zm-477.8 385.7c-3.1 3.1-8.2 3.1-11.3 0-1.5-1.5-2.3-3.5-2.3-5.7 0-2.1.8-4.1 2.3-5.7l248.1-248.1 11.3 11.3zm270.7-248.1s-28.3-28.3-28.3-28.3l-5.7-5.7 5.7-5.7s5.7 5.7 5.7 5.7l22.6 22.6s5.7 5.7 5.7 5.7zm185.1-52.8-4.4-6.6c-1.3-2-3.5-3.3-5.9-3.6-2.4-.2-4.8.6-6.5 2.3l-43.8 43.8c-9.4 9.4-24.6 9.4-34 0l-38.2-38.2c-2.6-2.6-6.2-4.1-9.9-4.1s-7.3 1.5-9.9 4.1l-26.9 26.9-11.3-11.3 26.9-26.9c2.6-2.6 4.1-6.2 4.1-9.9s-1.5-7.3-4.1-9.9l-38.2-38.2c-9.4-9.4-9.4-24.6 0-34l41.5-41.5c1.7-1.7 2.5-4.1 2.3-6.5s-1.5-4.5-3.6-5.9l-5.9-3.9 53.8-8.1-72.5 72.9c-5.5 5.5-5.5 14.4 0 19.8l34 34c2.6 2.6 6.2 4.1 9.9 4.1s7.3-1.5 9.9-4.1l87.5-87.5c1.7-1.7 2.5-4.1 2.3-6.5s-1.5-4.5-3.6-5.9l-8.8-5.8 57.1-16.6-16.6 57.2-6.6-10c-1.3-2-3.5-3.3-5.9-3.6-2.4-.2-4.8.6-6.5 2.3l-87.7 87.7c-5.5 5.5-5.5 14.4 0 19.8l34 34c5.5 5.5 14.4 5.5 19.8 0l75-75.3z"/></svg>