<svg id="b1fee700-128a-4ca5-8411-9cc103b398f9" height="512" viewBox="0 0 64 64" width="512" xmlns="http://www.w3.org/2000/svg" data-name="line"><path d="m58.014 13.24805a.99014.99014 0 0 0 -1.80854.80621c7.03339 14.44635-7.46954 46.19183-23.13 41.90387-5.34174-1.79895-8.31073-8.90936-7.564-18.11548a.98981.98981 0 0 0 -1.9729-.1604c-.823 10.14368 2.67273 18.05347 8.90448 20.15106 17.98366 4.88056 33.11677-29.33978 25.57096-44.58526z"/><path d="m29.23633 21.675a.9901.9901 0 0 0 1.34308-.39246c6.25177-11.23034 16.60559-17.97583 23.686-10.377a.99012.99012 0 0 0 1.51084-1.27954c-8.17011-8.78768-19.95478-1.80679-26.93335 10.70512a.99029.99029 0 0 0 .39343 1.34388z"/><path d="m28.04205 36.16559a.98045.98045 0 0 0 -1.02173.956c-.2199 6.6861 2.2566 11.7193 6.46332 13.13538 13.03272 3.64464 23.95178-21.37776 18.17847-32.26857-4.82758-9.06091-14.52612-5.04467-20.145 4.29254a.99016.99016 0 0 0 1.69537 1.02277c4.81134-7.89343 12.63324-12.00879 16.66742-4.45428 5.1221 9.88525-4.89369 32.40757-15.76381 29.53234-3.34674-1.12713-5.3075-5.417-5.11707-11.19445a.989.989 0 0 0 -.95697-1.02173z"/><path d="m35.16992 40.80054c-1.37793-.47174-2.30829-2.06568-2.55285-4.374a.99.99 0 0 0 -1.969.20881c.43134 3.71441 2.26148 6.20629 5.40912 6.28692 3.491-.001 7.35022-3.63843 9.30475-9.065 1.75043-5.116 1.91144-11.46942-2.8523-13.48834-2.5719-.863-5.711.62262-8.19085 3.883a.98985.98985 0 1 0 1.57562 1.19861c6.96789-8.36456 10.45611.57758 7.60467 7.73584-1.81414 5.03713-5.63281 8.5237-8.32916 7.61416z"/><path d="m38.36523 31.00507c.01618-.02442-18.03472-13.71186-18.03784-13.73786l.365-3.09991a.99039.99039 0 0 0 -.32721-.85742l-4.8645-4.3053a.9977.9977 0 0 0 -1.59106.41668l-.93962 2.70838-2.57406 1.26236a.99638.99638 0 0 0 -.21991 1.62976l4.86407 4.3053a1.00168 1.00168 0 0 0 .8902.2204l3.12347-.76105 13.99909 10.65976-18.38786-5.12488-1.36292-2.90051a.99035.99035 0 0 0 -.73071-.55579l-6.40487-1.08551a.99818.99818 0 0 0 -1.13043 1.1947l.63214 2.79547-1.51855 2.432a.997.997 0 0 0 .67419 1.50018s6.515 1.09906 6.57013 1.09906a.99064.99064 0 0 0 .70709-.29675l2.18818-2.23321 18.90033 5.2677-17.53437 2.90473-2.05591-2.3656a.99.99 0 0 0 -.854-.33447l-6.45795.70178a.99714.99714 0 0 0 -.76269 1.45764l1.37115 2.51807s-.7962 2.74517-.7984 2.75293a1.00417 1.00417 0 0 0 1.0575 1.25952l6.45794-.70178a.988.988 0 0 0 .76221-.51038l1.53351-2.81342c.06744-.03253 22.018-3.61676 22.07178-3.66925a.99216.99216 0 0 0 .38488-1.73333zm-19.98986-14.09064-2.41071.58673-3.37012-2.983 1.6128-.79071c.57251-.20056.7882-1.56494 1.08789-2.26093l3.3706 2.983zm-7.326 9.83435-4.43775-.752.95166-1.52436c.38086-.47308-.16406-1.76947-.27069-2.49389l4.43775.752 1.05512 2.24647zm1.83514 11.07068-4.474.4862.50025-1.7254c.23748-.56055-.64124-1.66046-.94056-2.32666l4.47449-.4862 1.62781 1.87329z"/></svg>