<svg enable-background="new 0 0 32 32" height="512" viewBox="0 0 32 32" width="512" xmlns="http://www.w3.org/2000/svg"><g id="star"><path d="m30.164 12.724c-.118-.362-.431-.626-.808-.681l-8.609-1.25-3.85-7.802c-.337-.683-1.457-.683-1.794 0l-3.85 7.802-8.609 1.25c-.377.055-.69.319-.808.681s-.02.759.253 1.025l6.229 6.072-1.471 8.576c-.064.375.09.754.398.978.309.226.717.254 1.053.076l7.702-4.048 7.701 4.048c.146.077.306.115.465.115.207 0 .414-.064.588-.191.308-.224.462-.603.398-.978l-1.471-8.576 6.229-6.072c.273-.266.371-.663.254-1.025zm-8.256 6.033c-.235.229-.343.561-.288.885l1.217 7.097-6.373-3.35c-.144-.077-.304-.116-.464-.116s-.32.038-.465.115l-6.373 3.35 1.217-7.097c.055-.324-.052-.655-.288-.885l-5.155-5.025 7.124-1.035c.326-.047.607-.252.753-.547l3.187-6.456 3.186 6.456c.146.295.427.5.753.547l7.124 1.035z"/></g></svg>