<svg id="Icons" height="512" viewBox="0 0 60 60" width="512" xmlns="http://www.w3.org/2000/svg"><path d="m58.9 26.878a3.568 3.568 0 0 0 .489-4.546 3.451 3.451 0 0 0 -2.529-1.447 3.5 3.5 0 0 0 -.806.027 13.278 13.278 0 0 0 -17-16.923 3.359 3.359 0 0 0 -.544-2.529 3.466 3.466 0 0 0 -5.275-.447l-2.6 2.611a18.184 18.184 0 0 0 -4.045 19.613 2.608 2.608 0 0 1 -.432 2.734l-25.242 28.035a3.6 3.6 0 0 0 .139 4.943 3.681 3.681 0 0 0 2.545 1.051 3.637 3.637 0 0 0 2.4-.915l28.045-25.231a2.614 2.614 0 0 1 2.731-.431 18.21 18.21 0 0 0 19.624-4.042zm-15.383-21.669a11.291 11.291 0 1 1 -7.993 3.3l.006-.006a11.269 11.269 0 0 1 7.987-3.294zm-6 26.354a4.6 4.6 0 0 0 -4.807.806l-28.037 25.222a1.64 1.64 0 0 1 -2.2-.056 1.6 1.6 0 0 1 -.073-2.194l25.238-28.03a4.6 4.6 0 0 0 .8-4.81 16.193 16.193 0 0 1 3.6-17.463l2.6-2.612a1.48 1.48 0 0 1 2.233.2 1.554 1.554 0 0 1 -.265 1.97l-2.496 2.504a13.3 13.3 0 0 0 18.816 18.8l2.6-2.6a1.482 1.482 0 0 1 2.233.2 1.556 1.556 0 0 1 -.275 1.97l-2.505 2.5a16.2 16.2 0 0 1 -17.466 3.593z"/><path d="m38.3 12.284a.993.993 0 0 0 .7-.293 6.393 6.393 0 0 1 9.025 0 1 1 0 0 0 1.414-1.414 8.4 8.4 0 0 0 -11.853 0 1 1 0 0 0 .707 1.707z"/></svg>