<svg id="Layer_1" viewBox="0 0 64 64" xmlns="http://www.w3.org/2000/svg" data-name="Layer 1"><path d="m32.441 6.38c-6.073 5.529-7.568 14.535-3.688 21.679l-25 28.087c-1.233 1.373-1.333 3.238-.233 4.337.508.508 1.181.759 1.893.759.824 0 1.701-.335 2.436-.995l29.095-25.898c.875-.779 1.396-1.896 1.429-3.067s-.423-2.316-1.278-3.168c-1.204-1.205-2.084-2.63-2.618-4.242-1.342-3.956-.335-8.25 2.628-11.206 4.099-4.087 10.881-4.215 15.121-.285 3.826 3.547 4.614 9.332 1.874 13.756-1.117 1.802-.831 4.127.696 5.655l.594.594c.188.188.442.293.707.293h.009c.259 0 .508-.101.695-.281 3.563-3.442 5.497-8.065 5.444-13.018-.053-4.951-2.086-9.533-5.728-12.903-6.723-6.223-17.298-6.265-24.076-.097zm23.655 23.876c-.753-.855-.883-2.118-.296-3.066 3.243-5.235 2.312-12.08-2.215-16.276-5.018-4.651-13.045-4.5-17.893.335-3.507 3.498-4.699 8.581-3.112 13.257.629 1.904 1.672 3.593 3.127 5.048.447.446.684 1.04.666 1.671s-.288 1.21-.759 1.63l-29.099 25.901c-.597.535-1.299.595-1.582.313-.284-.285-.229-.99.311-1.59l25.481-28.627c.291-.327.335-.804.111-1.179-3.845-6.424-2.604-14.757 2.952-19.814 2.991-2.723 6.815-4.083 10.639-4.083 3.866 0 7.731 1.391 10.732 4.167 3.233 2.993 5.04 7.062 5.086 11.457.043 4.068-1.423 7.886-4.148 10.854z"/><path d="m37.766 20.024c0 .552.448 1 1 1h3.852l-1.221 1.221c-.391.391-.391 1.023 0 1.414.195.195.451.293.707.293s.512-.098.707-.293l1.221-1.221v3.853c0 .552.448 1 1 1s1-.448 1-1v-3.853l1.221 1.221c.195.195.451.293.707.293s.512-.098.707-.293c.391-.391.391-1.023 0-1.414l-1.221-1.221h3.853c.552 0 1-.448 1-1s-.448-1-1-1h-3.853l1.221-1.221c.391-.391.391-1.023 0-1.414s-1.023-.391-1.414 0l-1.221 1.221v-3.852c0-.552-.448-1-1-1s-1 .448-1 1v3.852l-1.221-1.221c-.391-.391-1.023-.391-1.414 0s-.391 1.023 0 1.414l1.221 1.221h-3.852c-.552 0-1 .448-1 1z"/></svg>