<?xml version="1.0" encoding="UTF-8"?>
<svg xmlns="http://www.w3.org/2000/svg" viewBox="0 0 64 64" width="512" height="512"><g id="Layer_32" data-name="Layer 32"><path d="M50.612,10.2l3.136-3.534a1,1,0,0,0-.041-1.371l-4-4A1.075,1.075,0,0,0,48.973,1a1,1,0,0,0-.718.333L45.18,4.766l-.473-.473a1,1,0,0,0-1.414,0L43,4.586,39.707,1.293a1,1,0,0,0-1.414,0l-4,4a1,1,0,0,0,0,1.414L37.586,10l-.293.293a1,1,0,0,0,0,1.414l.865.865L22.222,29.608A245.157,245.157,0,0,0,1.866,54.466a4.657,4.657,0,0,0,1,6.43l1.717,1.289a4.083,4.083,0,0,0,6.155-1.557A83.366,83.366,0,0,1,23.918,40.4l19.72-22.351.655.655a1,1,0,0,0,1.414,0l1.272-1.271A15.953,15.953,0,0,1,51,28.071V30a1,1,0,0,0,1,1,1.018,1.018,0,0,0,.274-.038l1.394-.4a15.715,15.715,0,0,0,9.189-7.048,1,1,0,0,0-.15-1.222ZM49.04,3.454l2.587,2.587L49.2,8.781l-2.6-2.6ZM36.414,6,39,3.414,41.586,6,39,8.586ZM28.665,32,26,35.021V32Zm-4.071-2,1.871-2H31v1.354L30.43,30ZM31,26H28.336L31,23.152Zm2-4.986,2-2.138V24.82l-2,2.267ZM8.918,59.79a2.083,2.083,0,0,1-3.14.794L4.062,59.3a2.658,2.658,0,0,1-.568-3.669A243.121,243.121,0,0,1,20,35.014V41.96A85.335,85.335,0,0,0,8.918,59.79Zm13.5-20.709c-.142.161-.277.329-.418.491V32.8q.369-.4.739-.8H24v5.288ZM37,22.553V16.738l2.573-2.751,2.648,2.648ZM53.119,28.64,53,28.674v-.6a17.953,17.953,0,0,0-5.293-12.778,1,1,0,0,0-1.414,0L45,16.586,39.414,11,44,6.414,60.725,23.14A13.721,13.721,0,0,1,53.119,28.64Z"/></g></svg>
