<svg height="512" viewBox="0 0 60 60" width="512" xmlns="http://www.w3.org/2000/svg"><g id="Page-1" fill="none" fill-rule="evenodd"><g id="087---Ninja-Stars" fill="rgb(0,0,0)" fill-rule="nonzero"><path id="Shape" d="m.577 39.906 13.308 6.209 6.209 13.308c.1643875.3518615.5176319.5767223.906.5767223s.7416125-.2248608.906-.5767223l6.209-13.308 13.308-6.209c.3518615-.1643875.5767223-.5176319.5767223-.906s-.2248608-.7416125-.5767223-.906l-13.308-6.209-6.209-13.308c-.1643875-.3518615-.5176319-.5767223-.906-.5767223s-.7416125.2248608-.906.5767223l-6.209 13.308-13.308 6.209c-.35186146.1643875-.57672231.5176319-.57672231.906s.22486085.7416125.57672231.906zm14.483-6.363c.2121112-.1001577.3828423-.2708888.483-.483l5.457-11.695 5.457 11.7c.1001577.2121112.2708888.3828423.483.483l11.695 5.452-11.695 5.457c-.2121112.1001577-.3828423.2708888-.483.483l-5.457 11.695-5.457-11.695c-.1001577-.2121112-.2708888-.3828423-.483-.483l-11.695-5.457z"/><path id="Shape" d="m21 44c2.7614237 0 5-2.2385763 5-5s-2.2385763-5-5-5-5 2.2385763-5 5c.0033061 2.7600532 2.2399468 4.9966939 5 5zm0-8c1.6568542 0 3 1.3431458 3 3s-1.3431458 3-3 3-3-1.3431458-3-3 1.3431458-3 3-3z"/><path id="Shape" d="m41 12c-2.209139 0-4 1.790861-4 4s1.790861 4 4 4 4-1.790861 4-4-1.790861-4-4-4zm0 6c-1.1045695 0-2-.8954305-2-2s.8954305-2 2-2 2 .8954305 2 2-.8954305 2-2 2z"/><path id="Shape" d="m57 16c-.0000504-.388432-.2250302-.7416933-.577-.906l-9.9-4.618-4.617-9.899c-.1643875-.35186146-.5176319-.57672231-.906-.57672231s-.7416125.22486085-.906.57672231l-4.618 9.9-9.9 4.618c-.3518615.1643875-.5767223.5176319-.5767223.906s.2248608.7416125.5767223.906l9.9 4.618 4.618 9.9c.1643875.3518615.5176319.5767223.906.5767223s.7416125-.2248608.906-.5767223l4.618-9.9 9.9-4.618c.3519076-.1647507.5765197-.5184367.576-.907zm-11.65 3.866c-.2128972.0998716-.3841284.2711028-.484.484l-3.866 8.285-3.866-8.285c-.0998716-.2128972-.2711028-.3841284-.484-.484l-8.285-3.866 8.285-3.866c.2128972-.0998716.3841284-.2711028.484-.484l3.866-8.285 3.866 8.285c.0998716.2128972.2711028.3841284.484.484l8.285 3.866z"/><path id="Shape" d="m29.293 51.293c-.3903819.3904999-.3903819 1.0235001 0 1.414l7 7c.3923789.3789722 1.0160848.3735524 1.4018186-.0121814s.3911536-1.0094397.0121814-1.4018186l-7-7c-.3904999-.3903819-1.0235001-.3903819-1.414 0z"/><path id="Shape" d="m46 60c.4043959-.0000863.7689341-.2437275.923678-.6173454.1547439-.373618.0692299-.8036603-.216678-1.0896546l-12-12c-.3923789-.3789722-1.0160848-.3735524-1.4018186.0121814s-.3911536 1.0094397-.0121814 1.4018186l12 12c.1874927.1875494.4418052.2929434.707.293z"/><path id="Shape" d="m47.707 51.707c.3903819-.3904999.3903819-1.0235001 0-1.414l-7-7c-.3923789-.3789722-1.0160848-.3735524-1.4018186.0121814s-.3911536 1.0094397-.0121814 1.4018186l7 7c.3904999.3903819 1.0235001.3903819 1.414 0z"/><path id="Shape" d="m48.707 25.293c-.3923789-.3789722-1.0160848-.3735524-1.4018186.0121814s-.3911536 1.0094397-.0121814 1.4018186l11 11c.3923789.3789722 1.0160848.3735524 1.4018186-.0121814s.3911536-1.0094397.0121814-1.4018186z"/><path id="Shape" d="m52.707 21.293c-.3923789-.3789722-1.0160848-.3735524-1.4018186.0121814s-.3911536 1.0094397-.0121814 1.4018186l7 7c.3923789.3789722 1.0160848.3735524 1.4018186-.0121814s.3911536-1.0094397.0121814-1.4018186z"/><path id="Shape" d="m52 39c.4043959-.0000863.7689341-.2437275.923678-.6173454.1547439-.373618.0692299-.8036603-.216678-1.0896546l-6-6c-.3923789-.3789722-1.0160848-.3735524-1.4018186.0121814s-.3911536 1.0094397-.0121814 1.4018186l6 6c.1874927.1875494.4418052.2929434.707.293z"/></g></g></svg>