<svg id="_x33_0" enable-background="new 0 0 64 64" height="512" viewBox="0 0 64 64" width="512" xmlns="http://www.w3.org/2000/svg"><path d="m62 1c-2.847 0-5.522 1.108-7.535 3.121l-29.42 29.42c-.953-.344-1.975-.541-3.045-.541-2.055 0-4.019.697-5.611 1.969-1.58-.798-3.376-1.126-5.203-.898-1.53.189-3.071.84-4.502 1.916-2.286 1.719-3.855 4.086-4.417 6.667-.664 3.04-.089 6.126 1.622 8.695l.947 1.399-2.509 2.509c-.855.857-1.327 1.996-1.327 3.208 0 2.501 2.034 4.535 4.535 4.535 1.212 0 2.351-.472 3.207-1.328l13.277-13.277c2.474 2.274 5.865 3.249 9.177 2.586l1.938-.388-1.46-1.331c-.021-.019-1.117-1.02-2.299-2.113 1.05-1.504 1.625-3.297 1.625-5.149 0-1.07-.197-2.092-.541-3.045l29.42-29.42c2.013-2.013 3.121-4.688 3.121-7.535v-1zm-53.121 47.014c-.575-.861-.879-1.868-.879-2.972 0-1.593.761-3.113 2.035-4.068l.499-.374c.515-.387 1.153-.6 1.8-.6h.003c.794.001 1.572.323 2.135.886l1.114 1.114-6.43 6.43zm8.121-4.6 3.586 3.586-10.586 10.586-3.586-3.586zm-11.465 17.586c-1.397 0-2.535-1.138-2.535-2.535 0-.678.264-1.314.742-1.793l1.258-1.258 3.586 3.586-1.258 1.258c-.478.478-1.115.742-1.793.742zm17.567-14.312-7.216-7.216c-.934-.935-2.227-1.471-3.547-1.472-.002 0-.004 0-.005 0-1.076 0-2.142.355-3 .999l-.498.374c-1.775 1.331-2.836 3.45-2.836 5.729 0 1.441.42 2.832 1.214 4.021l.5.75-1.436 1.436-.728-1.075c-1.403-2.107-1.875-4.648-1.328-7.154.46-2.112 1.762-4.063 3.709-5.528 1.107-.832 2.318-1.35 3.502-1.496 2.192-.269 4.324.46 5.864 1.999l7.996 7.996c.613.613 2.117 2.009 3.323 3.12-2.054-.123-4.019-.988-5.514-2.483zm3.605-2.051-7.996-7.996c-.175-.175-.363-.332-.549-.49 1.133-.746 2.459-1.151 3.838-1.151 3.859 0 7 3.141 7 7 0 1.345-.392 2.649-1.109 3.769-.5-.469-.928-.877-1.184-1.132zm31.758-36.516-28.946 28.946c-.677-1.028-1.558-1.909-2.586-2.586l28.946-28.946c1.382-1.381 3.147-2.238 5.057-2.471-.233 1.91-1.09 3.675-2.471 5.057z"/></svg>