<?xml version="1.0" encoding="UTF-8" standalone="no"?>
<!-- Created with Inkscape (http://www.inkscape.org/) -->

<svg
   version="1.1"
   id="svg2622"
   xml:space="preserve"
   width="682.66669"
   height="682.66669"
   viewBox="0 0 682.66669 682.66669"
   xmlns="http://www.w3.org/2000/svg"
   xmlns:svg="http://www.w3.org/2000/svg"><defs
     id="defs2626"><clipPath
       clipPathUnits="userSpaceOnUse"
       id="clipPath2636"><path
         d="M 0,512 H 512 V 0 H 0 Z"
         id="path2634" /></clipPath></defs><g
     id="g2628"
     transform="matrix(1.3333333,0,0,-1.3333333,0,682.66667)"><g
       id="g2630"><g
         id="g2632"
         clip-path="url(#clipPath2636)"><g
           id="g2638"
           transform="translate(395.8271,387.5029)"><path
             d="m 0,0 -31.416,-61.996 c -1.21,-2.388 -0.753,-5.287 1.132,-7.183 l 48.931,-49.2 c 4.215,-4.237 0.575,-11.421 -5.312,-10.483 l -68.349,10.884 c -2.632,0.419 -5.233,-0.914 -6.444,-3.301 l -31.416,-61.996 c -2.705,-5.339 -10.626,-4.079 -11.558,1.84 l -10.826,68.723 c -0.417,2.648 -2.481,4.723 -5.113,5.143 l -68.349,10.883 c -5.886,0.938 -7.14,8.902 -1.831,11.623 l 61.658,31.587 c 2.375,1.217 3.701,3.833 3.284,6.48 l -10.826,68.724 c -0.932,5.918 6.212,9.579 10.427,5.341 l 48.932,-49.2 c 1.885,-1.895 4.768,-2.354 7.143,-1.138 L -8.274,8.32 C -2.964,11.041 2.706,5.339 0,0 Z"
             style="fill:none;stroke:#000000;stroke-width:20;stroke-linecap:round;stroke-linejoin:round;stroke-miterlimit:10;stroke-dasharray:none;stroke-opacity:1"
             id="path2640" /></g><g
           id="g2642"
           transform="translate(429.498,429.6787)"><path
             d="M 0,0 C 11.601,11.664 23.201,23.328 34.803,34.992"
             style="fill:none;stroke:#000000;stroke-width:20;stroke-linecap:round;stroke-linejoin:round;stroke-miterlimit:10;stroke-dasharray:none;stroke-opacity:1"
             id="path2644" /></g><g
           id="g2646"
           transform="translate(345.4297,472.748)"><path
             d="M 0,0 3.85,24.438"
             style="fill:none;stroke:#000000;stroke-width:20;stroke-linecap:round;stroke-linejoin:round;stroke-miterlimit:10;stroke-dasharray:none;stroke-opacity:1"
             id="path2648" /></g><g
           id="g2650"
           transform="translate(240.2744,457.9062)"><path
             d="M 0,0 C -7.448,14.698 -14.896,29.396 -22.345,44.094"
             style="fill:none;stroke:#000000;stroke-width:20;stroke-linecap:round;stroke-linejoin:round;stroke-miterlimit:10;stroke-dasharray:none;stroke-opacity:1"
             id="path2652" /></g><g
           id="g2654"
           transform="translate(185.5234,390.8242)"><path
             d="M 0,0 -21.927,11.233"
             style="fill:none;stroke:#000000;stroke-width:20;stroke-linecap:round;stroke-linejoin:round;stroke-miterlimit:10;stroke-dasharray:none;stroke-opacity:1"
             id="path2656" /></g><g
           id="g2658"
           transform="translate(390.8564,184.3662)"><path
             d="M 0,0 11.173,-22.047"
             style="fill:none;stroke:#000000;stroke-width:20;stroke-linecap:round;stroke-linejoin:round;stroke-miterlimit:10;stroke-dasharray:none;stroke-opacity:1"
             id="path2660" /></g><g
           id="g2662"
           transform="translate(458.1465,238.4941)"><path
             d="M 0,0 C 14.618,-7.489 29.236,-14.979 43.854,-22.467"
             style="fill:none;stroke:#000000;stroke-width:20;stroke-linecap:round;stroke-linejoin:round;stroke-miterlimit:10;stroke-dasharray:none;stroke-opacity:1"
             id="path2664" /></g><g
           id="g2666"
           transform="translate(472.333,345.1494)"><path
             d="M 0,0 24.306,3.871"
             style="fill:none;stroke:#000000;stroke-width:20;stroke-linecap:round;stroke-linejoin:round;stroke-miterlimit:10;stroke-dasharray:none;stroke-opacity:1"
             id="path2668" /></g><g
           id="g2670"
           transform="translate(162.9609,134.584)"><path
             d="m 0,0 -118.803,-118.727 c -7.814,-7.809 -20.482,-7.809 -28.297,0 -7.814,7.811 -7.814,20.471 0,28.281 L 92.075,148.595"
             style="fill:none;stroke:#000000;stroke-width:20;stroke-linecap:round;stroke-linejoin:round;stroke-miterlimit:10;stroke-dasharray:none;stroke-opacity:1"
             id="path2672" /></g><g
           id="g2674"
           transform="translate(283.6533,255.1982)"><path
             d="M 0,0 -64.105,-64.064"
             style="fill:none;stroke:#000000;stroke-width:20;stroke-linecap:round;stroke-linejoin:round;stroke-miterlimit:10;stroke-dasharray:none;stroke-opacity:1"
             id="path2676" /></g><g
           id="g2678"
           transform="translate(201.2539,162.8594)"><path
             d="m 0,0 c 0,-5.523 -4.477,-10 -10,-10 -5.522,0 -10,4.477 -10,10 0,5.522 4.478,10 10,10 C -4.477,10 0,5.522 0,0"
             style="fill:#000000;fill-opacity:1;fill-rule:nonzero;stroke:none"
             id="path2680" /></g></g></g></g></svg>
