<svg version="1.2" baseProfile="tiny-ps" xmlns="http://www.w3.org/2000/svg" viewBox="0 0 512 512" width="512" height="512">
	<title>sword (5)-svg</title>
	<style>
		tspan { white-space:pre }
		.shp0 { fill: #30c78d } 
		.shp1 { fill: #cdd2df } 
		.shp2 { fill: #bbc6d4 } 
		.shp3 { fill: #ffffff } 
		.shp4 { fill: #ff9400 } 
		.shp5 { fill: #ff7a00 } 
		.shp6 { fill: #ffe92f } 
		.shp7 { fill: #ffd82f } 
		.shp8 { fill: #ffc600 } 
		.shp9 { fill: #f4af00 } 
	</style>
	<path id="Layer" class="shp0" d="M128.49 1.79C127.37 0.69 125.86 0.08 124.29 0.09L124.29 0.09C122.71 0.09 121.2 0.72 120.08 1.84L1.69 120.59C-0.6 122.94 -0.56 126.7 1.79 128.99C2.89 130.05 4.36 130.66 5.89 130.67L71.18 130.67L71.18 279.06C71.18 282.33 73.83 284.99 77.11 284.99L172.08 284.99C175.36 284.99 178.01 282.33 178.01 279.06L178.01 130.67L243.05 130.67C246.33 130.68 248.99 128.02 249 124.75C249 123.16 248.38 121.65 247.26 120.53L128.49 1.79Z" />
	<path id="Layer" class="shp1" d="M246.59 337.69L174.31 265.41L388.67 51.04C405.6 34.12 426.55 21.77 449.55 15.16L501.12 0.34C507.55 -1.51 513.51 4.45 511.66 10.88L496.84 62.45C490.23 85.45 477.88 106.4 460.95 123.33L246.59 337.69Z" />
	<path id="Layer" class="shp2" d="M460.95 123.33C477.88 106.4 490.23 85.45 496.84 62.45L511.66 10.88C512.52 7.87 511.66 4.97 509.86 2.92L376.39 136.38L210.84 301.94L246.59 337.69L460.95 123.33Z" />
	<path id="Layer" class="shp3" d="M210.84 310.18C208.73 310.18 206.62 309.38 205.01 307.77C201.79 304.55 201.79 299.33 205.01 296.11L370.56 130.55C373.78 127.33 379 127.33 382.22 130.55C385.44 133.77 385.44 138.99 382.22 142.21L216.67 307.77C215.06 309.38 212.95 310.18 210.84 310.18Z" />
	<path id="Layer" class="shp4" d="M81.43 474.86L37.13 430.56L117.95 349.75L162.25 394.05L81.43 474.86Z" />
	<path id="Layer" class="shp5" d="M117.95 349.75L117.95 349.75L146.95 378.75L66.14 459.56L37.13 430.56L37.13 430.56L81.44 474.86L162.25 394.05L117.95 349.75Z" />
	<path id="Layer" class="shp6" d="M174.3 409.97L102.03 337.69C99.02 334.69 99.02 329.81 102.03 326.8L124.87 303.96L208.04 387.13L185.19 409.97C182.19 412.98 177.31 412.98 174.3 409.97Z" />
	<path id="Layer" class="shp7" d="M124.87 303.96L112.69 316.14L163.43 366.87C172.32 375.77 172.32 390.19 163.43 399.09L163.43 399.09L174.3 409.97C177.31 412.98 182.19 412.98 185.19 409.97L208.04 387.13L124.87 303.96Z" />
	<path id="Layer" class="shp8" d="M221.98 404.79L107.21 290.02C86.75 269.56 86.75 236.38 107.21 215.92L107.21 215.92C112.07 211.06 119.96 211.06 124.82 215.92L296.08 387.18C300.94 392.04 300.94 399.93 296.08 404.79L296.08 404.79C275.62 425.25 242.44 425.25 221.98 404.79Z" />
	<path id="Layer" class="shp9" d="M296.08 387.18L262.51 353.61C267.38 358.47 267.37 366.36 262.51 371.22L262.51 371.22C242.05 391.69 208.87 391.69 188.41 371.22L147.81 330.62L221.98 404.79C242.44 425.25 275.62 425.25 296.08 404.79L296.08 404.79C300.94 399.93 300.94 392.04 296.08 387.18Z" />
	<path id="Layer" class="shp6" d="M26.91 497.31L14.69 485.09C-4.9 465.5 -4.9 433.73 14.69 414.14L14.69 414.14C17.42 411.41 21.85 411.41 24.58 414.14L97.86 487.42C100.59 490.15 100.59 494.58 97.86 497.31L97.86 497.31C78.27 516.9 46.5 516.9 26.91 497.31Z" />
	<path id="Layer" class="shp7" d="M97.86 487.42L87.97 477.53C68.32 496.2 37.25 495.91 17.97 476.63L5.75 464.41C3.94 462.6 2.31 460.69 0.83 458.7C2.61 468.36 7.22 477.61 14.69 485.09L26.91 497.31C46.5 516.9 78.27 516.9 97.86 497.31L97.86 497.31C100.59 494.57 100.59 490.15 97.86 487.42Z" />
	<g id="Layer">
	</g>
	<g id="Layer">
	</g>
	<g id="Layer">
	</g>
	<g id="Layer">
	</g>
	<g id="Layer">
	</g>
	<g id="Layer">
	</g>
	<g id="Layer">
	</g>
	<g id="Layer">
	</g>
	<g id="Layer">
	</g>
	<g id="Layer">
	</g>
	<g id="Layer">
	</g>
	<g id="Layer">
	</g>
	<g id="Layer">
	</g>
	<g id="Layer">
	</g>
	<g id="Layer">
	</g>
</svg>