<svg clip-rule="evenodd" fill-rule="evenodd" height="512" image-rendering="optimizeQuality" shape-rendering="geometricPrecision" text-rendering="geometricPrecision" viewBox="0 0 1707 1707" width="512" xmlns="http://www.w3.org/2000/svg"><g id="Layer_x0020_1"><path d="m853 1707c-9 0-15-4-21-11l-560-829c-5-8-5-19 0-27l561-830c5-6 13-11 20-11 8 0 15 5 19 11l555 820 6 10c6 8 6 19 0 27l-8 12-553 817c-4 7-11 11-19 11z" fill="#76e2f8"/><path d="m853 1707h-1-1s-1 0-2 0h-1-1c-5-2-9-4-12-8-2-2-4-5-6-8l-264-770c-1-4-1-9 0-15l264-890c3-8 10-14 19-16 1 0 2-1 3-1 14-1 25 9 27 23l66 776v4l-68 883c0 11-7 19-17 22-2 0-4 0-6 0z" fill="#28c7f7"/><path d="m571 886 258-869-547 808z" fill="#9bfcff"/><path d="m1427 830-550-812c0 1 1 2 1 4l64 756z" fill="#9bfcff"/><path d="m942 778-64-756c0-2-1-3-1-4-3-13-13-19-24-19-10 1-20 6-24 17v1l-258 869 17 4 325-113c2-1 6-1 11-1z" fill="#76e2f8"/></g></svg>