<svg id="Icons" height="512" viewBox="0 0 60 60" width="512" xmlns="http://www.w3.org/2000/svg"><path d="m51.6 28.81-20.56-27.29a1.3 1.3 0 0 0 -2.08 0l-20.56 27.29a1.97 1.97 0 0 0 0 2.38l20.56 27.29a1.3 1.3 0 0 0 2.08 0l20.56-27.29a1.97 1.97 0 0 0 0-2.38z" fill="#cd4c60"/><path d="m30 59a1.311 1.311 0 0 1 -1.04-.52l-20.56-27.29a2.005 2.005 0 0 1 -.4-1.19h10z" fill="#a53c50"/><path d="m52 30a2.005 2.005 0 0 1 -.4 1.19l-20.56 27.29a1.311 1.311 0 0 1 -1.04.52l12-29z" fill="#a53c50"/><path d="m42 30-12 29-12-29z" fill="#cd4c60"/><path d="m42 30h-24l12-29z" fill="#f26376"/><path d="m26 22a1 1 0 0 1 -.707-1.707l2-2a1 1 0 0 1 1.414 1.414l-2 2a1 1 0 0 1 -.707.293z" fill="#ff8a9e"/><path d="m27 26a1 1 0 0 1 -.707-1.707l6-6a1 1 0 0 1 1.414 1.414l-6 6a1 1 0 0 1 -.707.293z" fill="#ff8a9e"/><g fill="#f26376"><path d="m26 38a1 1 0 0 1 -.707-1.707l2-2a1 1 0 0 1 1.414 1.414l-2 2a1 1 0 0 1 -.707.293z"/><path d="m27 42a1 1 0 0 1 -.707-1.707l6-6a1 1 0 0 1 1.414 1.414l-6 6a1 1 0 0 1 -.707.293z"/></g></svg>