<svg xmlns="http://www.w3.org/2000/svg" version="1.1" xmlns:xlink="http://www.w3.org/1999/xlink" width="512" height="512" x="0" y="0" viewBox="0 0 512 512" style="enable-background:new 0 0 512 512" xml:space="preserve"><g><path fill="#1d1d1b" d="M144.813 375.887c5.62-16.85-35.954 129.221-35.954 129.221h182.025s-3.373-10.123-6.742-41.579c-3.37-31.462-2.249-46.073 22.471-50.563 24.722-4.495 88.763 32.573 93.258 10.107 4.494-22.473 2.248-38.204 11.236-42.693 8.985-4.493 7.865-10.118 2.247-17.978-5.615-7.866 0-8.989 8.988-14.575 8.99-5.572 0-7.902-2.244-20.257-2.249-12.365 15.728-11.236 29.212-14.607 13.48-3.371-2.247-15.73-22.153-48.311-19.905-32.59-8.185-23.601-1.442-52.81 6.741-29.209-12.36-102.25-12.36-102.25s13.483-19.096 8.988-48.321c-4.493-29.204-26.967-33.704-103.369-47.192C242.568.602 88.632-3.888 61.67 93.862c-26.967 97.75 94.382 302.254 0 366.301 0 0 65.167-30.333 83.143-84.276z" opacity="1" data-original="#1d1d1b"></path></g></svg>