<svg id="flat" height="512" viewBox="0 0 64 64" width="512" xmlns="http://www.w3.org/2000/svg"><circle cx="32.44" cy="32" fill="#fadf01" r="25.91"/><path d="m40.83 47.08h-16.78c-1.07 0-1.8-1.14-1.31-2.09 1.84-3.58 5.56-5.93 9.7-5.93 4.13 0 7.86 2.35 9.7 5.93.49.95-.24 2.09-1.31 2.09z" fill="#724a03"/><path d="m48.08 15.83c4.57 3.98 7.53 10.03 7.37 16.17-.02.55-.48.99-1.03.97-.53-.02-.95-.45-.97-.97-.1-2.79-.66-5.56-1.7-8.17s-2.57-5.05-4.46-7.2c-.47-.5.28-1.26.79-.8z" fill="#fff"/><path d="m38.37 10.12c1.34.06 7.44 1.56 6.1 3.56-.3.39-.82.5-1.24.29-.87-.43-1.7-.93-2.55-1.4s-1.73-.91-2.62-1.37c-.55-.26-.29-1.15.31-1.08z" fill="#fff"/><circle cx="22.39" cy="26.74" fill="#fff" r="6.48"/><circle cx="22.39" cy="26.74" fill="#724a03" r="3.62"/><circle cx="42.49" cy="26.74" fill="#fff" r="6.48"/><g fill="#724a03"><circle cx="42.49" cy="26.74" r="3.62"/><path d="m12.01 20.29c3.14-.51 5.84-2.48 7.46-5.14.65-1.05 2.29-.15 1.75.96-.81 1.72-2.23 3.11-3.85 4.02-1.62.92-3.49 1.41-5.32 1.29-.31-.02-.55-.29-.53-.6.02-.27.22-.48.48-.52z"/><path d="m52.64 21.42c-3.69.22-7.54-1.92-9.17-5.31-.53-1.12 1.11-2.01 1.75-.96.81 1.29 1.85 2.45 3.12 3.36 1.27.9 2.76 1.52 4.35 1.79.65.09.59 1.1-.06 1.12z"/></g></svg>