<svg id="Capa_1" enable-background="new 0 0 512 512" height="512" viewBox="0 0 512 512" width="512" xmlns="http://www.w3.org/2000/svg"><g><path d="m458.14 98.93c33.76 43.36 53.86 97.87 53.86 157.07 0 141.38-114.62 256-256 256l-28.957-35.128 28.957-33.112c103.7 0 187.76-84.06 187.76-187.76 0-40.34-12.71-77.71-34.37-108.32l-153.39 153.39-22.83-39.687 22.83-50.453 108.32-108.32c-30.61-21.66-67.98-34.37-108.32-34.37l-28.957-37.895 28.957-30.345c59.2 0 113.71 20.1 157.07 53.86l53.52-53.86 45.41 44.7z" fill="#66b3ff"/><path d="m68.24 256c0 40.34 12.71 77.71 34.37 108.32l153.39-153.39v90.14l-108.32 108.32c30.61 21.66 67.98 34.37 108.32 34.37v68.24c-59.2 0-113.71-20.1-157.07-53.86l-53.91 53.86-45.02-45.02 53.86-53.91c-33.76-43.36-53.86-97.87-53.86-157.07 0-141.38 114.62-256 256-256v68.24c-103.7 0-187.76 84.06-187.76 187.76z" fill="#80d4ff"/></g></svg>