<svg version="1.2" baseProfile="tiny-ps" xmlns="http://www.w3.org/2000/svg" viewBox="0 0 427 427" width="427" height="427">
	<title>poison-svg</title>
	<style>
		tspan { white-space:pre }
		.shp0 { fill: #2f9748 } 
		.shp1 { fill: #769f80 } 
	</style>
	<g id="Layer">
		<g id="Layer">
			<g id="Layer">
				<path id="Layer" fill-rule="evenodd" class="shp0" d="M426.67 213.33C426.67 330.97 330.97 426.67 213.33 426.67C95.7 426.67 0 330.97 0 213.33C0 95.7 95.7 0 213.33 0C330.96 0 426.67 95.7 426.67 213.33ZM384 213.33C384 173.95 370.48 137.77 347.97 108.84L313.75 143.06L283.58 112.9L317.8 78.68C288.9 56.21 252.72 42.67 213.33 42.67C173.95 42.67 137.77 56.21 108.87 78.68L143.06 112.92L112.9 143.08L78.68 108.86C56.19 137.77 42.67 173.95 42.67 213.33C42.67 252.71 56.19 288.92 78.7 317.82L112.92 283.58L143.08 313.75L108.86 347.99C137.77 370.45 173.95 384 213.33 384C252.72 384 288.9 370.45 317.82 347.99L283.6 313.75L313.77 283.58L347.99 317.82C370.48 288.92 384 252.71 384 213.33Z" />
				<path id="Layer" fill-rule="evenodd" class="shp1" d="M298.67 213.33C298.67 244.84 281.39 272.04 256 286.83L256 320L170.67 320L170.67 286.83C145.28 272.04 128 244.86 128 213.33C128 166.21 166.21 128 213.33 128C260.46 128 298.67 166.21 298.67 213.33ZM192 213.33C192 201.54 182.46 192 170.67 192C158.87 192 149.33 201.54 149.33 213.33C149.33 225.13 158.87 234.67 170.67 234.67C182.46 234.67 192 225.13 192 213.33ZM277.33 213.33C277.33 201.54 267.8 192 256 192C244.2 192 234.67 201.54 234.67 213.33C234.67 225.13 244.2 234.67 256 234.67C267.8 234.67 277.33 225.13 277.33 213.33Z" />
			</g>
		</g>
	</g>
	<g id="Layer">
	</g>
	<g id="Layer">
	</g>
	<g id="Layer">
	</g>
	<g id="Layer">
	</g>
	<g id="Layer">
	</g>
	<g id="Layer">
	</g>
	<g id="Layer">
	</g>
	<g id="Layer">
	</g>
	<g id="Layer">
	</g>
	<g id="Layer">
	</g>
	<g id="Layer">
	</g>
	<g id="Layer">
	</g>
	<g id="Layer">
	</g>
	<g id="Layer">
	</g>
	<g id="Layer">
	</g>
</svg>