<svg id="Capa_1" enable-background="new 0 0 512 512" height="512" viewBox="0 0 512 512" width="512" xmlns="http://www.w3.org/2000/svg"><g><path d="m460.696 88.883c-107.426-6.117-169.747-58.993-193.511-84.078-6.069-6.406-16.302-6.406-22.371 0-24.185 25.53-88.301 79.847-199.26 84.363-8.295.338-14.856 7.14-14.856 15.442v138.866c0 9.442.539 18.803 1.586 28.06 34.043 175.103 220.624 231.164 220.624 231.164s222.519-74.306 222.519-270.556c.002-99.705-14.731-143.261-14.731-143.261z" fill="#87a0af"/><path d="m466.445 89.167c-1.932-.079-3.846-.176-5.749-.284v143.259c0 57.311-19.46 111.699-56.276 157.285-9.793 12.126-20.798 23.45-32.917 34.015-12.372-42.474-18.982-86.262-3.604-141.239h.571c9.174 0 16.611-6.926 16.611-15.469v-30.939c9.174 0 16.611-6.926 16.611-15.469v-63.205c0-4.272-3.463-7.735-7.735-7.735h-38.143c-4.272 0-7.735 3.463-7.735 7.735v21.953h-44.67v-21.953c0-4.272-3.463-7.735-7.735-7.735h-38.143c-4.272 0-7.735 3.463-7.735 7.735v21.953h-44.67v-21.953c0-4.272-3.463-7.735-7.735-7.735h-38.143c-4.272 0-7.735 3.463-7.735 7.735v63.205c0 8.544 7.437 15.469 16.611 15.469v30.939c0 8.543 7.437 15.469 16.611 15.469h-.571c19.385 69.297 5.948 108.369-12.527 168.958-53.903-33.539-117.616-90.533-139.356-179.627 5.308 46.931 23.939 91.15 54.69 129.226 36.114 44.716 87.036 80.027 151.353 104.952l14.879 5.766c1.797.696 3.789.696 5.586 0l14.879-5.766c64.317-24.925 115.24-60.236 151.353-104.952 36.817-45.586 56.276-99.974 56.276-157.285v-138.866c.004-8.301-6.557-15.104-14.852-15.442z" fill="#738c96"/><path d="m333.87 271.695c-123.137-13.226-165.316 10.508-165.316 10.508 11.947 58.961-1.842 96.562-19.233 154.012 33.295 39.092 103.589 66.483 103.589 66.483l103.503-54.297c-12.98-56.663-24.566-135.515-22.543-176.706z" fill="#b4d2d7"/><path d="m347.295 261.598-91.295-13.658-92.437 13.658c2.007 7.175 3.656 14.021 4.99 20.605h153.281c-11.227 58.636 3.945 108.265 20.364 157.021 1.117 3.316-.134 6.957-3.038 8.908-23.945 16.084-50.954 30.021-80.559 42.007-1.7.688-3.587.748-5.327.171-11.376-3.772-56.651-20.029-103.952-54.095-1.801 5.949-3.64 12.111-5.494 18.532 27.212 20.077 58.788 37.125 94.502 50.965l14.879 5.766c1.797.696 3.789.696 5.586 0l14.879-5.766c28.576-11.074 54.501-24.203 77.664-39.291 5.676-3.697 11.184-7.513 16.525-11.445-20.251-60.664-42.237-115.913-20.568-193.378z" fill="#9bb9c3"/><path d="m360.483 128.781h-25.273c-4.272 0-7.735 3.463-7.735 7.735v21.953h-44.67l-20.605-29.687h-25.273c-4.272 0-7.735 3.463-7.735 7.735v21.953h-44.67l-20.605-29.687h-25.273c-4.272 0-7.735 3.463-7.735 7.735v58.07l16.611 20.605v25.803s43.697 19.067 200.769 9.25c10.908-11.271 10.075-26.542 16.185-48.721 6.113-22.183-3.991-72.744-3.991-72.744z" fill="#d2e4e7"/><path d="m373.354 128.781h-12.87v58.078c0 4.267-3.459 7.726-7.726 7.726h-221.846v5.136c0 8.544 7.437 15.469 16.611 15.469h196.349v18.077c0 4.267-3.459 7.726-7.726 7.726h-188.623v5.136c0 8.544 7.437 15.469 16.611 15.469h183.732c9.174 0 16.611-6.926 16.611-15.469v-30.939c9.174 0 16.611-6.926 16.611-15.469v-63.205c0-4.272-3.463-7.735-7.734-7.735z" fill="#b4d2d7"/><path d="m269.928 158.469h12.879v-21.953c0-4.272-3.463-7.735-7.735-7.735h-12.87v21.961c-.001 4.267 3.458 7.727 7.726 7.727z" fill="#b4d2d7"/><path d="m171.645 158.469h12.879v-21.953c0-4.272-3.463-7.735-7.735-7.735h-12.87v21.961c0 4.267 3.459 7.727 7.726 7.727z" fill="#b4d2d7"/><g fill="#607882"><circle cx="453.398" cy="118.879" r="7.726"/><circle cx="381.088" cy="404.467" r="7.726"/><circle cx="130.912" cy="404.467" r="7.726"/><circle cx="58.602" cy="118.879" r="7.726"/><circle cx="256" cy="38.38" r="7.726"/></g></g></svg>