<svg xmlns="http://www.w3.org/2000/svg" version="1.1" xmlns:xlink="http://www.w3.org/1999/xlink" width="512" height="512" x="0" y="0" viewBox="0 0 64 64" style="enable-background:new 0 0 512 512" xml:space="preserve" class=""><g><circle cx="32.44" cy="32" r="25.91" fill="#fa8801" opacity="1" data-original="#fadf01" class=""></circle><path fill="#ffffff" d="M48.08 15.83c4.57 3.98 7.53 10.03 7.37 16.17-.02.55-.48.99-1.03.97-.53-.02-.95-.45-.97-.97-.1-2.79-.66-5.56-1.7-8.17s-2.57-5.05-4.46-7.2c-.47-.5.28-1.26.79-.8zM38.37 10.12c1.34.06 7.44 1.56 6.1 3.56-.3.39-.82.5-1.24.29-.87-.43-1.7-.93-2.55-1.4s-1.73-.91-2.62-1.37c-.55-.26-.29-1.15.31-1.08z" opacity="1" data-original="#ffffff"></path><path fill="#724a03" d="M43.55 15.96c3.69-.22 7.54 1.92 9.17 5.31.53 1.12-1.11 2.01-1.75.96-.81-1.29-1.85-2.45-3.12-3.36-1.27-.9-2.76-1.52-4.35-1.79-.65-.09-.59-1.1.06-1.12z" opacity="1" data-original="#724a03"></path><circle cx="22.39" cy="26.74" r="7.61" fill="#ffffff" opacity="1" data-original="#ffffff"></circle><circle cx="22.39" cy="26.74" r="2.99" fill="#724a03" opacity="1" data-original="#724a03"></circle><circle cx="42.49" cy="26.74" r="7.61" fill="#ffffff" opacity="1" data-original="#ffffff"></circle><circle cx="42.49" cy="26.74" r="2.99" fill="#724a03" opacity="1" data-original="#724a03"></circle><g fill="#724a03"><path d="M21.38 17.09c-3.14.51-5.84 2.48-7.47 5.14-.65 1.05-2.29.15-1.75-.96.81-1.72 2.23-3.11 3.85-4.02 1.62-.92 3.49-1.41 5.32-1.29.31.02.55.29.53.6-.02.27-.22.48-.48.52z" fill="#724a03" opacity="1" data-original="#724a03"></path><ellipse cx="32.44" cy="43.61" rx="3.4" ry="4.24" fill="#724a03" opacity="1" data-original="#724a03"></ellipse></g></g></svg>