<svg id="Capa_1" enable-background="new 0 0 512 512" height="512" viewBox="0 0 512 512" width="512" xmlns="http://www.w3.org/2000/svg"><g><g><path d="m451 76h-30v-15c0-33.091 26.909-61 60-61v30c-16.538 0-30 14.462-30 31z" fill="#ffab99"/></g><path d="m440.937 61.82c-28.477 4.629-49.937 31.451-49.937 62.388v131.792l-195 195h-151c-24.853 0-45 21.147-45 46v15h196 105c99.412 0 180-81.588 180-181v-121.157c0-17.769 7.504-36.167 20.336-54.683 6.973-10.063 10.664-21.885 10.664-34.16 0-36.416-34.076-65.317-71.063-59.18z" fill="#ffe6cc"/><path d="m481 331v-121.157c0-17.769 7.504-36.167 20.336-54.683 6.973-10.063 10.664-21.885 10.664-34.16 0-36.416-34.076-65.317-71.063-59.18-28.477 4.629-49.937 31.451-49.937 62.388v131.792l-195 195v61h105c99.412 0 180-81.588 180-181z" fill="#ffccb3"/><path d="m196 61c-107.401 0-196 87.599-196 195s88.599 195 196 195 195-87.599 195-195-87.599-195-195-195z" fill="#b36859"/><path d="m391 256c0 107.401-87.599 195-195 195v-390c107.401 0 195 87.599 195 195z" fill="#99453d"/><g><g><path d="m196 151c-57.9 0-105 47.1-105 105s47.1 105 105 105 105-47.1 105-105-47.1-105-105-105z" fill="#ff7f66"/></g><path d="m301 256c0 57.9-47.1 105-105 105v-210c57.9 0 105 47.1 105 105z" fill="#e64560"/><g><path d="m196 181c-41.4 0-75 33.6-75 75s33.6 75 75 75 75-33.6 75-75-33.6-75-75-75z" fill="#f3f5f9"/></g><path d="m271 256c0 41.4-33.6 75-75 75v-150c41.4 0 75 33.6 75 75z" fill="#e1e6f0"/><g><path d="m241 241v30h-60v-60h30v30z" fill="#405580"/></g><path d="m241 241v30h-45v-60h15v30z" fill="#333d66"/></g></g></svg>