<svg version="1.2" xmlns="http://www.w3.org/2000/svg" viewBox="0 0 512 512" width="512" height="512"><style>.a{fill:#ff5e2d}.b{fill:#fd3600}</style><path class="a" d="m391 121v30c-66.3 0-120 53.7-120 120h-30c0-66.3-53.7-120-120-120v-30c66.3 0 120-54.7 120-121h30c0 66.3 53.7 121 120 121z"/><path class="a" d="m481 391v30c-49.5 0-90 41.5-90 91h-30c0-49.5-40.5-91-90-91v-30c49.5 0 90-40.5 90-90h30c0 49.5 40.5 90 90 90z"/><path class="a" d="m181 301v30c-33 0-60 27-60 60h-30c0-33-27-60-60-60v-30c33 0 60-27 60-60h30c0 33 27 60 60 60z"/><path class="a" d="m181 421h30v30h-30z"/><path class="b" d="m421 241h30v30h-30z"/><path class="a" d="m61 61h30v30h-30z"/><path class="b" d="m361 0h30v30h-30z"/><path class="b" d="m181 301v30c-33 0-60 27-60 60h-15v-150h15c0 33 27 60 60 60z"/><path class="b" d="m391 121v30c-66.3 0-120 53.7-120 120h-15v-271h15c0 66.3 53.7 121 120 121z"/><path class="b" d="m481 391v30c-49.5 0-90 41.5-90 91h-15v-211h15c0 49.5 40.5 90 90 90z"/></svg>