<svg xmlns="http://www.w3.org/2000/svg" version="1.1" xmlns:xlink="http://www.w3.org/1999/xlink" width="512" height="512" x="0" y="0" viewBox="0 0 504 504.617" style="enable-background:new 0 0 512 512" xml:space="preserve" class=""><g><path fill="#a40f0f" d="M59.922 102.207c-66.082 76.008-78.418 184.902-31.024 273.77 47.399 88.863 144.707 139.277 244.637 126.742C373.47 490.184 455.31 417.297 479.29 319.48c23.98-97.82-14.871-200.293-97.676-257.625h-.086L265.676 19.68a239.439 239.439 0 0 0-22.39-1.043 238.406 238.406 0 0 0-66.735 9.375zm0 0" opacity="1" data-original="#f0c419" class=""></path><path fill="#802d40" d="M380.57 402.813c-4.617 11.953-17.226 18.792-29.765 16.14-96.934-20.308-134.16-12.496-180.328 2.43a77.612 77.612 0 0 1-28.637 5.12c30.808-90.773.781-172.78-9.024-208.273 46.774-10.847 87.645 6.684 119.149 8.68a224.019 224.019 0 0 0 116.629-26.64c8.46-4.47 18.941-1.247 23.433 7.199 33.32 62.484 4.426 154.554-11.457 195.344zm0 0" opacity="1" data-original="#802d40"></path><path fill="#ffffff" d="M382.133 70.707c-.035 32.2-22.207 60.148-53.551 67.512-31.348 7.36-63.644-7.801-78.008-36.621L343.602 8.57a69.265 69.265 0 0 1 38.53 62.137zm0 0" opacity="1" data-original="#ffffff" class=""></path><path fill="#7e0000" d="m343.602 8.57-93.028 93.028a68.348 68.348 0 0 1-7.289-30.891c0-38.344 31.082-69.426 69.426-69.426a68.348 68.348 0 0 1 30.89 7.29zm0 0" opacity="1" data-original="#f29c1f" class=""></path><path fill="#ffffff" d="M183.93 101.598c-13.438 27.125-42.899 42.414-72.813 37.789-29.914-4.621-53.383-28.094-58.004-58.004-4.625-29.914 10.664-59.375 37.79-72.813zm0 0" opacity="1" data-original="#ffffff" class=""></path><path fill="#7e0000" d="M191.219 70.707a68.348 68.348 0 0 1-7.29 30.89L90.903 8.57a68.348 68.348 0 0 1 30.891-7.289c38.344 0 69.426 31.082 69.426 69.426zm0 0" opacity="1" data-original="#f29c1f" class=""></path><path fill="#c03a2b" d="M155.047 386.758a8.27 8.27 0 0 1-1.203-.086 8.68 8.68 0 0 1-7.414-9.79 298.105 298.105 0 0 0-9.493-113.683c-1.261-4.625 1.465-9.394 6.09-10.656s9.399 1.469 10.66 6.094a315.776 315.776 0 0 1 9.942 120.62 8.675 8.675 0 0 1-8.582 7.5zm0 0" opacity="1" data-original="#c03a2b" class=""></path><path fill="#df1515" d="M126.473 183.52c-44.328 0-54.891-20.098-55.95-22.399a8.681 8.681 0 0 1 4.168-11.312 8.673 8.673 0 0 1 11.454 3.773c.418.684 8.261 12.582 40.32 12.582 35.265 0 49.558-14.414 49.687-14.57 3.254-3.524 8.75-3.742 12.27-.489a8.686 8.686 0 0 1 .488 12.274c-.754.812-19.094 20.14-62.437 20.14zM308.707 183.52c-44.324 0-54.887-20.098-55.945-22.399-1.883-4.277-.043-9.281 4.168-11.312a8.675 8.675 0 0 1 11.453 3.773c.418.684 8.262 12.582 40.316 12.582 35.27 0 49.563-14.414 49.692-14.57a8.682 8.682 0 0 1 12.27-.489 8.686 8.686 0 0 1 .487 12.274c-.757.812-19.093 20.14-62.441 20.14zm0 0" opacity="1" data-original="#e57e25" class=""></path><path fill="#ff0000" d="M330.066 75.043c0 11.984-9.714 21.695-21.695 21.695-11.98 0-21.695-9.71-21.695-21.695 0-11.98 9.715-21.691 21.695-21.691s21.695 9.71 21.695 21.691zM147.828 75.043c0 11.984-9.715 21.695-21.695 21.695s-21.695-9.71-21.695-21.695c0-11.98 9.714-21.691 21.695-21.691 11.98 0 21.695 9.71 21.695 21.691zm0 0" opacity="1" data-original="#2c2f38" class=""></path><path fill="#e6e7e8" d="M361.828 119.824A69.351 69.351 0 0 0 336.312 17.25l7.29-8.68a69.426 69.426 0 0 1 37.628 50.957 69.424 69.424 0 0 1-19.402 60.297zM115.113 139.781c-30.797-3.023-55.87-26.062-61.488-56.492-5.613-30.43 9.59-60.902 37.277-74.719l3.989 3.993C70.52 27.093 57.457 55 61.91 83.02c4.452 28.023 25.526 50.507 53.202 56.761zm0 0" opacity="1" data-original="#e6e7e8" class=""></path><path fill="#ffffff" d="M337.27 246.766a10.11 10.11 0 0 1-3.079 7.144 10.097 10.097 0 0 1-7.25 2.832l-66.558.61-103.531 3.472-4.946.086-15.879.434a9.755 9.755 0 0 1-11.023-7.375l-3.211-30.375c54.152-20.828 101.36 1.129 136.766 3.297a211.7 211.7 0 0 0 77.93-10.325zM364.605 419.367c-2.41.246-4.843.098-7.203-.433-96.933-20.305-134.164-12.497-180.328 2.43a70.215 70.215 0 0 1-43.91 2.866l3.211-26.992s3.902-10.5 24.21-18.918a4.84 4.84 0 0 1 1.04-.343 156.008 156.008 0 0 1 50.508-9.375c.43-.07.863-.102 1.3-.086l7.637-.262c8.243-.258 16.489-.434 24.73-.344a240.152 240.152 0 0 1 71.68 8.852 145.907 145.907 0 0 1 17.098 6.508 77.769 77.769 0 0 1 10.5 5.898 47.561 47.561 0 0 1 19.527 30.2zm0 0" opacity="1" data-original="#ffffff" class=""></path><path fill="#ff5364" d="M334.578 383.27a145.907 145.907 0 0 0-17.098-6.508 240.152 240.152 0 0 0-71.68-8.852c-8.241-.09-16.488.086-24.73.344a101.905 101.905 0 0 0-1.3-34.625v-.086a45.255 45.255 0 0 1-7.551-3.383 30.777 30.777 0 0 1-10.934-11.457 27.387 27.387 0 0 1-3.387-14.578 16.506 16.506 0 0 1 7.032-11.977 30.832 30.832 0 0 1 19.437-4.425 100.483 100.483 0 0 1 32.11 7.289c47.293 17.011 74.543 55.367 78.101 88.258zm0 0" opacity="1" data-original="#ff5364" class=""></path><path fill="#df1515" d="M143.559 435.18a74.456 74.456 0 0 1-50.133-19.68 8.684 8.684 0 0 1 3.265-14.73 8.678 8.678 0 0 1 8.5 1.972c16.852 15.512 41.262 19.63 62.266 10.5 47.27-15.316 85.488-23.734 185.137-2.812a17.438 17.438 0 0 0 19.906-10.762c14.223-36.574 43.852-128.11 11.898-188.117a8.783 8.783 0 0 0-5.207-4.34 8.486 8.486 0 0 0-6.464.625 232.377 232.377 0 0 1-121.301 27.75 261.267 261.267 0 0 1-33.844-5.309c-35.84-7.187-76.46-15.3-121.89 12.72a8.678 8.678 0 0 1-9.114-14.75c51.254-31.59 97.36-22.364 134.414-14.954a249.512 249.512 0 0 0 31.508 4.937 214.161 214.161 0 0 0 112-25.632 25.714 25.714 0 0 1 19.707-1.946 26.028 26.028 0 0 1 15.516 12.758c34.054 63.957 7.699 154.363-11.047 202.559-6.145 15.93-22.957 25.027-39.649 21.453-95.457-20.02-131.62-12.149-175.902 2.223a85.274 85.274 0 0 1-29.566 5.535zm0 0" opacity="1" data-original="#e57e25" class=""></path><path fill="#ffffff" d="M130.473 62.027c0 4.793-3.887 8.68-8.68 8.68s-8.676-3.887-8.676-8.68c0-4.793 3.883-8.675 8.676-8.675s8.68 3.882 8.68 8.675zM312.71 62.027a8.68 8.68 0 0 1-17.358 0c0-4.793 3.886-8.675 8.68-8.675s8.679 3.882 8.679 8.675zm0 0" opacity="1" data-original="#ffffff" class=""></path><g fill="#e57e25"><path d="M250.574 110.277a8.681 8.681 0 0 1-8.015-5.359 8.666 8.666 0 0 1 1.882-9.453L337.47 2.437a8.676 8.676 0 0 1 12.164.106 8.676 8.676 0 0 1 .105 12.164l-93.027 93.027a8.678 8.678 0 0 1-6.137 2.543zM183.93 110.277c-2.301 0-4.508-.914-6.137-2.543L84.766 14.707a8.676 8.676 0 0 1 .105-12.164 8.676 8.676 0 0 1 12.164-.105l93.028 93.027a8.68 8.68 0 0 1 1.882 9.453 8.681 8.681 0 0 1-8.015 5.36zm0 0" fill="#df1515" opacity="1" data-original="#e57e25" class=""></path></g></g></svg>