<svg height="512" viewBox="0 0 64 64" width="512" xmlns="http://www.w3.org/2000/svg"><g id="Archery"><path d="m59.49805 57.41443c-.93457-.84424-1.44532-1.55322-.63965-4.31983a35.07132 35.07132 0 0 0 -.00488-14.7856 41.98443 41.98443 0 0 0 -9.884-19.74213l3.89-3.89062 1.60626 1.60638a1.00022 1.00022 0 0 0 1.665-.42187l2.85937-9.60938a1.0008 1.0008 0 0 0 -1.24316-1.24365l-9.6084 2.85986a1.00085 1.00085 0 0 0 -.42187 1.66553l1.60728 1.60732-3.8902 3.89087a41.98836 41.98836 0 0 0 -19.74243-9.883 35.04739 35.04739 0 0 0 -14.832.00634c-2.71875.794-3.42872.28223-4.27344-.65185-1.2544-1.38568-2.51355-.85938-2.8291.24316a4.47129 4.47129 0 0 0 1.15235 3.80519 4.40775 4.40775 0 0 0 2.09991 1.27813l3.05817 36.97413-3.72937 3.72967a1.00032 1.00032 0 0 0 .81152 1.70166l5.16016-.54394-.543 5.15966a1.00084 1.00084 0 0 0 1.70117.812l3.72968-3.73 36.97488 3.05784a4.404 4.404 0 0 0 1.2779 2.10137 4.47431 4.47431 0 0 0 3.80468 1.15186c1.08832-.31177 1.64466-1.56342.24317-2.8291zm-2.95117-49.96289-1.85352 6.23-4.376-4.376zm-5.8252 5.12012.707.707-3.82368 3.82455q-.34973-.35789-.70746-.70746zm-41.69159-2.5824c.5191-.01166 1.092-.03711 1.758-.048 12.54083-.21179 21.03155 2.68982 29.51379 10.22248l-21.67316 21.67232-4.05841.97827a2.46716 2.46716 0 0 0 -1.167.65283l-1.48163 1.48175zm32.74219 11.53222c.12219.11615.24408.2226.36639.3407.118.12226.22437.244.34046.36615l-21.21643 21.21735c-.43476-.43445-.27332-.273-.70783-.7077zm-28.33869 28.04529c-.03515 0-.06933.002-.10449.00537l-3.5791.37744 5.06641-5.06738a.47.47 0 0 1 .22265-.12353l3.7937-.91449c.81275.81268.51093.5108 1.32349 1.32367l-.915 3.79394a.46621.46621 0 0 1 -.12109.21973l-.001.001-5.06836 5.06835.377-3.5791a.99945.99945 0 0 0 -.99421-1.105zm7.09864 1.03076a2.4497 2.4497 0 0 0 .65332-1.168l.97809-4.05677 21.67315-21.67403c7.53259 8.48279 10.43048 16.974 10.22278 29.514-.01086.66644-.03589 1.239-.0473 1.75757l-34.96149-2.8913zm36.77832 7.40088a1.90518 1.90518 0 0 1 -.44629-.3208c-1.0907-1.09131-.8515-1.48388-.80469-4.43164.23242-14.04541-3.27051-23.23779-12.49512-32.78564l-.02445-.02442c-9.64327-9.31659-18.853-12.71478-32.78512-12.49463-2.14673.0365-3.85363.43262-4.75195-1.25048 1.19336.90966 2.67871 1.18164 5.37109.396a33.5424 33.5424 0 0 1 13.93067.02344 40.49779 40.49779 0 0 1 31.58594 31.58593 33.51114 33.51114 0 0 1 .03515 13.88476c-.79492 2.72657-.52539 4.22266.38477 5.41748z"/></g></svg>