<svg id="Layer_1" enable-background="new 0 0 512 512" height="512" viewBox="0 0 512 512" width="512" xmlns="http://www.w3.org/2000/svg"><g><path d="m509.323 327.556-176.351 51.412c-2.54.741-3.758 3.628-2.516 5.965l18.504 34.788c1.139 2.142.434 4.801-1.618 6.096l-130.402 82.332c-1.99 1.257-.695 4.333 1.595 3.787l235.487-56.143c2.802-.668 4.1-3.907 2.535-6.325l-26.291-40.62c-1.24-1.917-.901-4.451.801-5.973l80.226-71.766c1.654-1.48.159-4.174-1.97-3.553z" fill="#ffd15b"/><path d="m511.295 331.108c1.653-1.479.157-4.173-1.972-3.552l-37.032 10.796-72.128 64.522c-1.701 1.522-2.041 4.057-.801 5.973l26.291 40.62c1.565 2.418.267 5.657-2.535 6.325l-198.031 47.213-8.146 5.143c-1.99 1.257-.695 4.333 1.595 3.787l235.487-56.143c2.802-.668 4.1-3.907 2.535-6.325l-26.291-40.62c-1.24-1.917-.901-4.451.801-5.973z" fill="#fdb441"/><path d="m400.644 0h-191.977c-3.994 0-7.484 2.705-8.487 6.578l-56.698 218.85c-1.439 5.553 1.698 11.265 7.149 13.021l87.282 28.104c2.899.934 4.536 4.004 3.698 6.937l-66.433 232.624c-1.36 4.762 4.725 8.015 7.915 4.231l248.294-294.412c4.443-5.268 2.021-13.374-4.581-15.328l-105.206-31.147c-4.969-1.471-7.158-7.292-4.394-11.683l90.854-144.302c3.684-5.85-.512-13.473-7.416-13.473z" fill="#ffd15b"/><path d="m426.805 200.605-105.205-31.147c-4.969-1.471-7.158-7.292-4.394-11.683l90.854-144.302c3.684-5.851-.512-13.473-7.416-13.473h-30.905c6.904 0 11.1 7.622 7.416 13.473l-90.855 144.302c-2.764 4.391-.575 10.212 4.394 11.683l105.206 31.147c6.602 1.955 9.025 10.06 4.581 15.328l-215.36 255.361-9.944 34.82c-1.36 4.762 4.725 8.015 7.915 4.231l248.294-294.412c4.444-5.268 2.022-13.373-4.581-15.328z" fill="#fdb441"/><path d="m.024 195.999 26.239 181.808c.378 2.619 3.067 4.229 5.554 3.325l37.035-13.456c2.281-.829 4.814.242 5.81 2.454l63.282 140.637c.966 2.147 4.193 1.294 3.973-1.049l-22.651-241.025c-.27-2.868-3.295-4.606-5.908-3.395l-43.898 20.35c-2.071.96-4.533.269-5.802-1.629l-59.841-89.476c-1.233-1.843-4.11-.739-3.793 1.456z" fill="#ffd15b"/><g fill="#fdb441"><path d="m141.916 509.718-22.651-241.025c-.269-2.868-3.295-4.606-5.908-3.395l-24.259 11.246 28.885 189.862 19.961 44.361c.965 2.147 4.192 1.294 3.972-1.049z"/><path d="m7.217 245.841 25.533 38.179c6.633 7.865 30.906 0 30.906 0l-59.839-89.477c-1.233-1.843-4.109-.74-3.793 1.455z"/></g></g></svg>